<?xml version="1.0" encoding="utf-8"?>
<!-- Generator: Adobe Illustrator 26.5.0, SVG Export Plug-In . SVG Version: 6.00 Build 0)  -->
<svg version="1.1"
	 id="Layer_1" xmlns:rdf="http://www.w3.org/1999/02/22-rdf-syntax-ns#" xmlns:dc="http://purl.org/dc/elements/1.1/" xmlns:cc="http://creativecommons.org/ns#"
	 xmlns="http://www.w3.org/2000/svg" xmlns:xlink="http://www.w3.org/1999/xlink" x="0px" y="0px" viewBox="0 0 544 544"
	 style="enable-background:new 0 0 544 544;" xml:space="preserve">
<style type="text/css">
	.st0{fill:#0052A2;}
	.st1{fill:#ABB6DB;}
	.st2{fill:#FFD90F;}
	.st3{fill:none;stroke:#FFD90F;stroke-width:9.14;stroke-miterlimit:10;}
	.st4{fill:none;stroke:#000000;stroke-width:1.6798;stroke-miterlimit:10;}
	.st5{fill:none;stroke:#FFD90F;stroke-width:2.4991;stroke-miterlimit:10;}
	.st6{fill:#009D56;}
	.st7{fill:#FFFFFF;}
	.st8{fill:none;stroke:#FFD90F;stroke-width:6.7203;stroke-miterlimit:10;}
</style>
<g transform="matrix(.75 0 0 .75 .0027475 .0028081)">
	<g>
		<path class="st0" d="M-474.9,711.2l18.5-0.5l18.3-1.4l18.1-2.3l17.7-3.2l17.4-4l17.1-4.9l16.7-5.7l16.4-6.4l15.9-7.2l15.5-8
			l15.1-8.7l14.6-9.3l14.1-10.1l13.6-10.7l13.1-11.3l12.5-11.9l11.9-12.5l11.3-13.1l10.7-13.6l10-14.1l9.4-14.7l8.7-15.1l7.9-15.5
			l7.2-15.9l6.5-16.3l5.7-16.7l4.9-17.1l4-17.4l3.2-17.7l2.3-18l1.4-18.3l0.5-18.5c0-198.8-161.2-360-360-360
			c-198.9,0-360,161.2-360,360C-834.9,550.1-673.7,711.2-474.9,711.2L-474.9,711.2z"/>
		<path class="st1" d="M-474.5,608l13.3-0.3l13.1-1l12.9-1.7l12.7-2.3l12.5-2.9l12.2-3.5l11.9-4l11.7-4.7l11.4-5.1l11.1-5.7
			l10.8-6.2l10.4-6.7l10.1-7.2l9.7-7.7l9.3-8.1l8.9-8.5l8.5-8.9l8.1-9.3l7.6-9.7l7.2-10.1l6.7-10.5l6.2-10.7l5.7-11.1l5.2-11.4
			l4.6-11.7l4-11.9l3.5-12.2l2.9-12.5l2.3-12.7l1.6-12.9l1-13.1l0.3-13.3c0-142.1-115.2-257.2-257.2-257.2
			c-142,0-257.2,115.2-257.2,257.2C-731.7,492.9-616.5,608.1-474.5,608L-474.5,608z"/>
		<path class="st2" d="M-371.9,563.8l-0.1-4.9l-0.4-4.8l-0.7-4.8l-0.9-4.7l-1.2-4.6l-1.3-4.5l-1.6-4.4l-1.9-4.3l-2-4.2l-2.3-4.1
			l-2.5-4l-2.7-3.9l-2.9-3.7l-3-3.6l-3.3-3.5l-3.3-3.3l-3.6-3.1l-3.7-3l-3.9-2.8l-4-2.7l-4.1-2.5l-4.3-2.3l-4.4-2.1l-4.5-1.9
			l-4.6-1.7l-4.8-1.5l-4.8-1.3l-4.9-1.1l-5.1-0.8l-5.1-0.6l-5.2-0.3l-5.2-0.1c-61.6,0.3-104.8,42.4-103.6,101.2L-371.9,563.8
			L-371.9,563.8z"/>
		<path class="st2" d="M-466.1,89.1l-14.1,0.7v47l13.4-3.7l0.1-0.1V133v-0.2v-0.2v-0.3V132v-0.3v-0.5v-0.5v-0.5v-0.5l0.1-0.6v-0.7
			v-0.7V127v-0.8l0.1-1.6v-1.7v-1.8l0.1-1.9v-2l0.1-2l0.1-4.1l0.1-4.1V105l0.1-1.9v-1.9l0.1-1.9v-1.7l0.1-1.6v-0.7v-0.7v-0.7v-0.7
			l0.1-0.6V92v-0.5V91v-0.4v-0.4v-0.3v-0.3v-0.2v-0.1L-466.1,89.1L-466.1,89.1z M-546.7,101l-19.4,6.7v0.1l0.1,0.1v0.3l0.1,0.3
			l0.1,0.3l0.1,0.4l0.1,0.5l0.1,0.5l0.1,0.6l0.1,0.7l0.1,0.7l0.1,0.7l0.2,0.7l0.1,0.9l0.2,0.8l0.4,1.8l0.4,1.9l0.4,2.1l0.5,2.1
			l0.5,2.2l0.5,2.2l1,4.6l1,4.6l0.5,2.3l0.5,2.2l0.4,2.1l0.5,2.1l0.4,1.9l0.4,1.8l0.2,0.8l0.1,0.9l0.2,0.7l0.1,0.7l0.1,0.7l0.1,0.7
			l0.1,0.5l0.1,0.5l0.1,0.5l0.1,0.4l0.1,0.3l0.1,0.3v0.2l0.1,0.2v0.1v0l13.5-3.7L-546.7,101L-546.7,101z M-390.7,104l-7.5,47
			l13.4,1.5l9.7-43.3h-0.1h-0.1h-0.1l-0.1-0.1l-0.1-0.1h-0.1l-0.1-0.1l-0.2-0.1l-0.2-0.1l-0.2-0.1l-0.2-0.1l-0.2-0.1l-0.3-0.1
			l-0.3-0.1l-0.3-0.1l-0.6-0.2l-0.6-0.2l-0.6-0.2l-0.7-0.2l-0.7-0.3l-0.7-0.3l-1.5-0.5l-1.5-0.5l-0.7-0.3l-0.7-0.2l-0.7-0.3
			l-0.7-0.2l-0.6-0.2l-0.6-0.2l-0.3-0.1l-0.2-0.1l-0.3-0.1l-0.3-0.1l-0.2-0.1l-0.2-0.1l-0.2-0.1l-0.1-0.1h-0.1l-0.1-0.1l-0.1-0.1
			h-0.1L-390.7,104L-390.7,104L-390.7,104z M-633.2,145.1l-17.9,14.9l0.1,0.1l0.1,0.1l0.1,0.2l0.1,0.3l0.2,0.3l0.2,0.3l0.2,0.4
			l0.2,0.4l0.3,0.5l0.3,0.5l0.3,0.5l0.3,0.6l0.3,0.6l0.3,0.7l0.4,0.7l0.8,1.4l0.9,1.5l0.9,1.6l0.9,1.7l1,1.7l1,1.8l2.1,3.7l2,3.7
			l1,1.8l1,1.7l0.9,1.7l0.9,1.7l0.9,1.5l0.8,1.4l0.4,0.7l0.3,0.7l0.3,0.6l0.3,0.6l0.3,0.5l0.3,0.5l0.3,0.5l0.2,0.5l0.2,0.3l0.2,0.3
			l0.2,0.3l0.1,0.2l0.1,0.2l0.1,0.1l0.1,0.1l13.1-3.5L-633.2,145.1L-633.2,145.1z M-308.6,148.8l-20.2,46.3l2.5,3.1h0.1h0.1l0.1-0.1
			h0.1h0.1h0.1l0.1-0.1h0.1l0.2-0.1h0.2l0.2-0.1h0.2l0.3-0.1h0.3l0.5-0.1l0.5-0.1l0.6-0.1l0.6-0.1l0.7-0.1l0.6-0.1l1.3-0.3l1.3-0.2
			l0.7-0.1l0.6-0.1l0.6-0.1l0.6-0.1l0.5-0.1l0.5-0.1h0.3l0.2-0.1l0.2-0.1h0.2l0.2-0.1h0.2h0.2l0.1-0.1h0.1l0.1-0.1h0.1h0.1h0.1h0.1
			h0.1l16.4-36.6L-308.6,148.8L-308.6,148.8z M-696.7,216l-10.4,15.7l0.1,0.1l0.1,0.1l0.1,0.2l0.2,0.2l0.1,0.3l0.3,0.3l0.3,0.3
			l0.3,0.3l0.3,0.4l0.3,0.5l0.3,0.5l0.4,0.5l0.4,0.5l0.4,0.5l0.5,0.6l0.9,1.2l1.1,1.3l1.1,1.4l1.1,1.5l1.1,1.5l1.2,1.5l2.5,3.1
			l2.4,3.1l1.2,1.5l1.2,1.5l1.1,1.4l1.1,1.4l1,1.3l1,1.2l0.4,0.6l0.5,0.5l0.4,0.5l0.4,0.5l0.3,0.5l0.3,0.5l0.3,0.4l0.3,0.3l0.3,0.3
			l0.2,0.3l0.2,0.2l0.2,0.2l0.1,0.2l0.1,0.1l0.1,0.1l8.2-10.5L-696.7,216L-696.7,216z M-251.1,216.7l-28.4,44.8l7.5,11.2l0.1-0.1
			l0.1-0.1l0.1-0.2l0.2-0.2l0.2-0.3l0.3-0.3l0.3-0.4l0.3-0.4l0.3-0.5l0.4-0.5l0.4-0.6l0.4-0.6l0.5-0.6l0.5-0.7l0.5-0.7l1.1-1.5
			l1.1-1.6l1.2-1.7l1.3-1.7l1.3-1.8l1.3-1.9l2.7-3.7l2.7-3.8l1.3-1.8l1.3-1.8l1.3-1.7l1.2-1.7l1.1-1.6l1.1-1.5l0.5-0.7l0.5-0.6
			l0.4-0.7l0.5-0.6l0.4-0.5l0.4-0.5l0.3-0.5l0.3-0.5l0.3-0.3l0.2-0.4l0.3-0.3l0.1-0.3l0.1-0.2l0.1-0.1l0.1-0.1v-0.1L-251.1,216.7
			L-251.1,216.7z M-728.8,301.1L-728.8,301.1l-3.7,14.9l41.1,37.3l5.9-9.7l-0.1-0.1l-0.2-0.1l-0.2-0.2l-0.3-0.3l-0.3-0.3l-0.3-0.3
			l-0.4-0.4l-0.5-0.5l-0.5-0.5l-0.5-0.5l-0.6-0.6l-0.7-0.6l-0.7-0.7l-0.7-0.7l-0.7-0.7l-1.6-1.5l-1.7-1.7l-1.8-1.7l-1.9-1.9
			l-1.9-1.9l-2-2l-4-3.9l-4.1-4l-1.9-1.9l-1.9-1.9l-1.9-1.9l-1.8-1.7l-1.7-1.7l-1.5-1.6l-0.8-0.7l-0.7-0.7l-0.7-0.7l-0.7-0.7
			l-0.6-0.5l-0.5-0.6l-0.5-0.5l-0.5-0.5l-0.4-0.4l-0.4-0.4l-0.3-0.3l-0.3-0.3l-0.2-0.2l-0.1-0.2L-728.8,301.1L-728.8,301.1
			L-728.8,301.1z M-218.3,302.6L-218.3,302.6l-0.2,0.2l-0.1,0.1l-0.2,0.2l-0.2,0.2l-0.3,0.3l-0.3,0.3l-0.3,0.3l-0.3,0.3l-0.4,0.4
			l-0.4,0.4l-0.5,0.5l-0.5,0.5l-0.5,0.5l-0.5,0.5l-1.1,1.1l-1.1,1.1l-1.3,1.3l-1.3,1.3l-1.3,1.3l-1.3,1.4l-2.8,2.8l-2.7,2.8
			l-1.3,1.4l-1.3,1.3l-1.3,1.3l-1.2,1.3l-1.1,1.1l-1.1,1.1l-0.5,0.5l-0.5,0.5l-0.4,0.5l-0.5,0.5l-0.4,0.4l-0.4,0.4l-0.3,0.3
			l-0.3,0.3l-0.3,0.3l-0.3,0.2l-0.2,0.3l-0.2,0.2l-0.1,0.1l-0.1,0.1l-0.1,0.1v0.1l6.5,8.7l25.3-24.1L-218.3,302.6L-218.3,302.6z
			 M-731,386.1l2.2,15l88.1,58.2l-3.8-13.4h0v-0.1l-0.2-0.1l-0.3-0.2l-0.4-0.3l-0.5-0.3l-0.7-0.5l-0.7-0.5l-0.8-0.6l-0.9-0.7
			l-1.1-0.7l-1.1-0.8l-1.2-0.8l-1.3-0.9l-1.3-0.9l-1.4-1l-1.5-1l-3.2-2.2l-3.4-2.3l-3.5-2.5l-3.7-2.6l-3.9-2.7l-4-2.7l-8.1-5.6
			l-8.1-5.5l-3.9-2.7l-3.9-2.7l-3.7-2.6l-3.6-2.5l-3.4-2.3l-3.1-2.2l-1.5-1l-1.4-1l-1.3-0.9l-1.3-0.9l-1.1-0.8l-1.1-0.8l-1.1-0.7
			l-0.9-0.7l-0.8-0.6l-0.7-0.5l-0.7-0.5l-0.5-0.3l-0.4-0.3l-0.3-0.2L-731,386.1L-731,386.1L-731,386.1z M-217.5,389.9l-0.1,0.1
			l-0.3,0.2l-0.7,0.5l-0.8,0.6l-1.1,0.7l-1.3,0.9l-1.5,1l-1.7,1.2l-1.9,1.3l-2.1,1.5l-2.3,1.5l-2.4,1.7l-2.5,1.7l-2.7,1.9l-2.9,2
			l-3,2.1l-6.4,4.4l-6.9,4.7l-7.2,4.9l-7.5,5.2l-7.8,5.3l-8,5.5l-16.3,11.2l-16.3,11.2l-7.9,5.5l-7.8,5.3l-7.5,5.2l-7.3,5l-6.8,4.7
			l-6.4,4.4l-3,2.1l-2.9,2l-2.7,1.9l-2.6,1.7l-2.4,1.7l-2.3,1.5l-2.1,1.5l-1.9,1.3l-1.7,1.2l-1.5,1l-1.3,0.9l-1.1,0.8l-0.9,0.5
			l-0.6,0.5l-0.4,0.2l-0.1,0.1v0l1.5,4.5L-222,407.1L-217.5,389.9L-217.5,389.9z M-407.3,414l-11.5,22l-2.4-3.5v0.1v0.1v0.1l0.1,0.1
			v0.1l0.1,0.1v0.1l0.1,0.1v0.1l0.1,0.1v0.2l0.1,0.1l0.1,0.2l0.1,0.1l0.1,0.4l0.1,0.4l0.1,0.5l0.1,0.5l0.1,0.5l0.1,0.5l0.3,0.9
			l0.3,1l0.1,0.5l0.1,0.5l0.1,0.5l0.1,0.4l0.1,0.4l0.1,0.4l0.1,0.2l0.1,0.1v0.2l0.1,0.1l0.1,0.1v0.1l0.1,0.1v0.1l0.1,0.1v0.1v0.1
			l0.1,0.1v0.1v0.1l15.9-28.9L-407.3,414L-407.3,414z M-502.6,419L-502.6,419v0.2v0.1l0.1,0.3l0.1,0.3l0.1,0.3l0.1,0.5l0.1,0.5
			l0.1,0.5l0.1,0.6l0.1,0.7l0.1,0.7l0.1,0.7l0.1,0.8l0.1,0.8l0.2,0.9l0.3,1.9l0.3,2l0.3,2.1l0.4,2.2l0.4,2.3l0.4,2.3l0.9,4.7
			l0.8,4.7l0.4,2.3l0.4,2.3l0.4,2.2l0.4,2.1l0.3,2l0.3,1.9l0.1,0.9l0.2,0.8l0.1,0.8l0.1,0.8l0.1,0.7l0.1,0.7l0.1,0.6l0.1,0.5
			l0.1,0.5l0.1,0.5l0.1,0.4v0.3l0.1,0.3l0.1,0.2v0.1v0.1l6-0.7l-7.5-46.3L-502.6,419L-502.6,419z M-516.6,450l-3.7,5.8v0.1v0.1
			l0.1,0.1l0.1,0.1l0.1,0.1l0.1,0.1l0.1,0.2l0.1,0.2l0.1,0.2l0.1,0.3l0.1,0.3l0.1,0.3l0.1,0.3l0.2,0.3l0.1,0.3l0.3,0.7l0.3,0.7
			l0.4,0.8l0.4,0.8l0.4,0.8l0.4,0.9l0.9,1.7l0.9,1.7l0.4,0.9l0.4,0.8l0.4,0.8l0.4,0.8l0.3,0.7l0.3,0.7l0.2,0.3l0.1,0.3l0.1,0.3
			l0.1,0.3l0.1,0.3l0.1,0.3l0.1,0.2l0.1,0.2l0.1,0.2l0.1,0.1l0.1,0.1l0.1,0.1l0.1,0.1v0.1l0.1,0.1v0.2l3.3-0.9L-516.6,450
			L-516.6,450z M-402.6,459.3L-402.6,459.3l-0.1,0.1l-0.1,0.1l-0.1,0.1l-0.1,0.2l-0.2,0.2l-0.1,0.2l-0.2,0.3l-0.2,0.3l-0.3,0.3
			l-0.2,0.3l-0.3,0.3l-0.3,0.4l-0.3,0.3l-0.3,0.4l-0.6,0.9l-0.7,0.9l-0.7,0.9l-0.8,1l-0.8,1l-0.8,1.1l-1.7,2.2l-1.7,2.1l-0.8,1.1
			l-0.8,1.1l-0.8,0.9l-0.7,1l-0.7,0.9l-0.6,0.9l-0.3,0.4l-0.3,0.4l-0.3,0.3l-0.3,0.3l-0.2,0.3l-0.3,0.3l-0.2,0.3l-0.2,0.2l-0.1,0.3
			l-0.2,0.2l-0.1,0.1l-0.1,0.1l-0.1,0.1l-0.1,0.1v0.1h0l3.7,2.3l14.5-18.9L-402.6,459.3L-402.6,459.3z M-239.2,460L-239.2,460
			l-0.4,0.2l-0.5,0.3l-0.7,0.3l-0.9,0.4l-1.1,0.5l-1.2,0.5l-1.4,0.7l-1.5,0.7l-1.7,0.8l-1.8,0.9l-2,0.9l-2.1,1l-2.3,1.1l-2.3,1.1
			l-2.5,1.2l-5.3,2.5l-5.6,2.7l-5.9,2.8l-6.2,2.9l-6.4,3l-6.5,3.1l-13.4,6.3l-13.4,6.3l-6.6,3.1l-6.4,3l-6.2,2.9l-5.9,2.8l-5.6,2.7
			l-5.3,2.5l-2.5,1.2l-2.3,1.1l-2.3,1.1l-2.1,1l-2,0.9l-1.9,0.9l-1.7,0.8l-1.5,0.7l-1.4,0.7l-1.3,0.5l-1.1,0.5l-0.9,0.4l-0.7,0.3
			l-0.5,0.3l-0.3,0.1l-0.1,0.1h0l0.9,3l137.4-58.2L-239.2,460L-239.2,460z M-705.7,468.2L-705.7,468.2l0.1,0.1l0.1,0.1l0.1,0.1v0.1
			l0.1,0.1l0.1,0.1l0.1,0.1l0.1,0.1l0.1,0.1l0.1,0.1l0.1,0.2l0.1,0.2l0.1,0.2l0.3,0.4l0.2,0.4l0.3,0.5l0.3,0.5l0.3,0.5l0.3,0.5
			l0.6,1l0.7,1.1l0.3,0.5l0.3,0.5l0.3,0.5l0.3,0.5l0.2,0.4l0.3,0.4l0.1,0.2l0.1,0.2l0.1,0.2l0.1,0.1l0.1,0.1l0.1,0.1l0.1,0.1
			l0.1,0.1l0.1,0.1v0.1l0.1,0.1l0.1,0.1l0.1,0.1l131.8,49.6l1.7-5.4L-705.7,468.2L-705.7,468.2z M-529.9,473.5l-3.9,4.3l4.5,5.8
			l3.5-2.1v-0.1l-0.1-0.1v-0.1l-0.1-0.1v-0.1l-0.1-0.1l-0.1-0.1l-0.1-0.1v-0.1l-0.1-0.1l-0.1-0.1l-0.1-0.1l-0.1-0.1l-0.2-0.3
			l-0.1-0.3l-0.1-0.3l-0.2-0.3l-0.2-0.3l-0.2-0.4l-0.3-0.7l-0.4-0.7l-0.2-0.4l-0.2-0.3l-0.1-0.3l-0.2-0.3l-0.1-0.3l-0.1-0.3
			l-0.1-0.1l-0.1-0.1l-0.1-0.1l-0.1-0.1l-0.1-0.1l-0.1-0.1l-0.1-0.1v-0.1l-0.1-0.1v-0.1l-0.1-0.1L-529.9,473.5L-529.9,473.5
			L-529.9,473.5L-529.9,473.5z M-592.9,481l-3.8,4.5l37.9,26.1l3-4.7h-0.1l-0.1-0.1l-0.1-0.1l-0.2-0.1l-0.2-0.2l-0.3-0.1l-0.3-0.3
			l-0.3-0.3l-0.4-0.3l-0.5-0.3l-0.5-0.3l-0.5-0.4l-0.5-0.3l-0.6-0.5l-0.6-0.4l-0.7-0.5l-1.3-0.9l-1.5-1l-1.5-1.1l-1.6-1.1l-1.7-1.1
			l-1.7-1.2l-3.5-2.5l-3.5-2.4l-1.7-1.2l-1.7-1.1l-1.6-1.1l-1.5-1.1l-1.5-1l-1.3-0.9l-0.7-0.5l-0.6-0.5l-0.6-0.4l-0.5-0.3l-0.5-0.4
			l-0.5-0.3l-0.5-0.3l-0.4-0.3l-0.3-0.2l-0.3-0.3l-0.3-0.2l-0.2-0.1l-0.2-0.1L-592.9,481L-592.9,481L-592.9,481z M-548.2,484
			l-6.7,2.2l9.7,9l3.2-2.1l-0.1-0.1l-0.1-0.1v-0.1l-0.1-0.1l-0.1-0.1l-0.1-0.1l-0.1-0.1l-0.1-0.1l-0.1-0.1l-0.1-0.1l-0.1-0.1
			l-0.1-0.1l-0.1-0.1l-0.3-0.3l-0.2-0.4l-0.3-0.3l-0.3-0.4l-0.3-0.5l-0.3-0.4l-0.5-0.9l-0.6-0.8l-0.3-0.5l-0.3-0.4l-0.3-0.4
			l-0.3-0.4l-0.3-0.3l-0.2-0.3l-0.1-0.1l-0.1-0.2l-0.1-0.1l-0.1-0.1l-0.1-0.1l-0.1-0.1l-0.1-0.1l-0.1-0.1l-0.1-0.1v-0.1l-0.1-0.1
			L-548.2,484L-548.2,484L-548.2,484L-548.2,484z M-395.9,484.7L-395.9,484.7l-0.1,0.1l-0.1,0.1l-0.1,0.1l-0.1,0.1l-0.1,0.1
			l-0.1,0.1l-0.1,0.1l-0.1,0.1l-0.1,0.1l-0.1,0.1l-0.1,0.2l-0.1,0.2l-0.2,0.1l-0.3,0.4l-0.3,0.5l-0.4,0.4l-0.3,0.5l-0.4,0.5
			l-0.4,0.5l-0.9,1l-0.9,1l-0.4,0.5l-0.4,0.5l-0.3,0.5l-0.4,0.5l-0.3,0.4l-0.3,0.4l-0.2,0.2l-0.1,0.2l-0.1,0.1l-0.1,0.2l-0.1,0.1
			l-0.1,0.1l-0.1,0.1l-0.1,0.1l-0.1,0.1l-0.1,0.1l-0.1,0.1l-0.1,0.1l-0.1,0.1v0l2.2,2.7l10.5-9L-395.9,484.7L-395.9,484.7z
			 M-280.2,523.5L-280.2,523.5l-0.3,0.1l-0.3,0.1l-0.5,0.1l-0.6,0.1l-0.7,0.1l-0.8,0.2l-1,0.2l-1,0.2l-1.2,0.3l-1.3,0.3l-1.3,0.3
			l-1.5,0.3l-1.5,0.3l-1.7,0.3l-1.7,0.3l-3.5,0.8l-3.9,0.8l-4,0.9l-4.3,0.9l-4.3,0.9l-4.5,0.9l-9.1,1.9l-9.1,2l-4.5,0.9l-4.3,0.9
			l-4.3,0.9l-4,0.9l-3.9,0.9l-3.5,0.7l-1.7,0.3l-1.6,0.4l-1.5,0.3l-1.4,0.3l-1.4,0.3l-1.2,0.3l-1.2,0.2l-1.1,0.3l-0.9,0.2l-0.8,0.1
			l-0.7,0.2l-0.6,0.1l-0.5,0.1l-0.3,0.1l-0.3,0.1h-0.1l0.7,3.7l88.1-14.9L-280.2,523.5L-280.2,523.5z M-668.5,524.8L-668.5,524.8
			l6.9,8.4l88.8,16.4l1.3-5h-0.1l-0.2-0.1l-0.3-0.1l-0.5-0.1l-0.6-0.1l-0.7-0.2l-0.8-0.1l-0.9-0.2l-1.1-0.2l-1.1-0.3l-1.3-0.2
			l-1.3-0.3l-1.4-0.3l-1.5-0.3l-1.6-0.3l-1.7-0.4l-3.5-0.7l-3.8-0.8l-4-0.8l-4.2-0.9l-4.3-0.9l-4.5-0.9l-9.1-1.9l-9-1.8l-4.5-0.9
			l-4.3-0.9l-4.2-0.9l-4-0.8l-3.8-0.8l-3.5-0.7l-1.7-0.3l-1.6-0.3l-1.5-0.3l-1.4-0.3l-1.3-0.3l-1.3-0.3l-1.1-0.2l-1.1-0.2l-0.9-0.2
			l-0.9-0.2l-0.7-0.1l-0.6-0.1l-0.5-0.1l-0.3-0.1L-668.5,524.8L-668.5,524.8L-668.5,524.8z"/>
		<path d="M-666.5,247.6v-0.3V247v-0.3l-0.1-0.3V246v-0.3l-0.1-0.6l-0.1-0.7l-0.1-0.6l-0.1-0.6l-0.1-0.6c-0.5-3.7,6.2-7.3,11.4-5.1
			c2.1,0.9,3.3-4.3,6.9-5.9c3.1-1.3-1.3-7.6,3.3-9.7c1.9-0.8,5.1,1,5.5-1.7c0.1-0.9-2.3-2-2.3-2.9c-0.1-5.1-2.6-8.9-2.7-13.5
			c-0.2-5,5.3-4.4,9.9-4.7c1.1,0,1.9-1.3,1.5-2.7c3.5-0.2,8.7-2.1,10.7,1.3c1.3-3.7,3.7-1.1,3-4.3c-1.1-5.1-0.7-2.4-1.3-3.3
			c-4.4-6,0.1-19.1,7-18.3c6.5,0.7,12.4,2.4,13.5,10c3.2-5.7,9.6-1.4,13.1,1.5c3.5,2.9,2.8,7,2.9,11.5c0,3.7,1.8-1.7,3.5-1.5
			c0.2-5.1-0.1-8.5,4.3-10.2c3.9-1.4,0.9-7.9,1.9-10.9c1.7-4.9,3.2-7.4,8.5-10.1c4-2.1,7.1,1.1,0.7-0.7c7.1,2.1,2.5-0.7,5.5-5.5
			c3.2-5.1,10.2-4.1,16.5-4.4c-0.4,1.5,0.9,0.8,2.1,1.2c0.9,0.3,2.5,7.4,3.5,7.4c-0.4,11.4-3.3,8.5,5,7.9c2.2-0.1,4.8-2,4.1-2.8
			c-3-3.2-3.2-6.8-2.5-10.7c0.7-3.6,3.6-4.2,7.1-5.1c4.2-1.1-2-5.7,0.4-8.1c3.6-3.7,5.3-8.5,9-11.8c1.7-1.5,4.7-3.1,7-1.5
			c5.7,4,6.9,11.3,11.4,15.3c5.5,4.9,8.1-5.8,14.3-7.9c2.9-1,5.6-2.1,7.4,0.6c5.5-6.1,13.2-4,20.7-2.7c7.5,1.3,1.3,9.6,2.5,15.2
			c0.9,4.2,5.7-2.3,8.3,3c3.9-2.4,5.1-6.6,8.9-8.5c2.6-1.3,5.7,2.5,7,1.9c5.5-2.3,6.7-11.7,12.5-13.3c9.3-2.4,14.5,8.5,16.1,17
			c0.7-1,2-2.3,2.7-1.3c4.3,6.3,7.3,4,13.7,4.7c1.6,0.1,3,2.5,4.5,4c4.1-8.3,16.3-5,19.8-0.4c5.4,7,3.1,16.3-2.9,16.9
			c1.9,2.1,1.1,3.5,2.6,5.9c0.7-1,1.5-1.8,3-1.5c4,0.7,5.4,4.9,8.9,6c1.1-8.5,12.8-11.9,16.5-6.5c2.6,4,6.2,13.1,0.3,18.7
			c-0.1,0.1,1.3,1.9,2.6,1.1c1-0.7,2.4-2,2.7-1.2c0.7,2.1,3.7-0.6,4.5,0.9c5.1-4.2,9.9-4.7,14.5-0.3c4.3,4.1,8.6,14.6,0.7,18.7
			c1,1,2.5,1.9,2.7,3c0.8,4.7-3,9.4,3.3,10.1c0.9,0.1,1.9-2.2,3-2.3c6.1-0.7,13.1,0.7,14.5,7.3c1,4.7-4.3,6.9-2.6,11.9
			c-3.1-0.3-5.3,1.3-7.5,3c0.1,0.1,0.3,0.2,0.4,0.4L-666.5,247.6L-666.5,247.6z M-291.2,247.6l0.3,0.2l0.3,0.3l0.3,0.2l0.3,0.3
			l0.3,0.3l0.3,0.3l0.3,0.3l0.3,0.3l0.2,0.3l0.3,0.3l0.2,0.3l0.3,0.3l0.2,0.3l0.2,0.3l0.1,0.3l0.1,0.3l0.1,0.3l0.1,0.3l0.1,0.3
			l0.1,0.3l0.1,0.3v0.3v0.3v0.2l-0.1,0.1v0.2l-0.1,0.2l-0.1,0.1l-0.1,0.2l-0.1,0.1l-0.1,0.2l-0.1,0.2l-0.1,0.1l-0.1,0.2l-0.1,0.2
			l-0.1,0.1l-0.1,0.2l-0.1,0.1l-0.1,0.2l-0.2,0.2l-0.1,0.1c6.4,2.8,17.5,1.7,14.6,11.3c-0.7,2,3.8,4.5,3.9,6.8
			c0.3,8.8,7,6.3,11.1,11.9c2.2,3,0.6,6.1-0.2,9.1c-1.9,6.7,5.7,16.1-1.1,22.1c5.9,3,0.6,12.2,4.5,12.2c4.1,0,10.4,2.3,12.7,4.9
			c2.9,3.3,0.3,10.9-1.9,13.3c-4.7,5.3-0.7,10.5-5.3,15.5c-1,1-2,1.8-3.1,2.4H-699c0.1-1.7,2.8-8.4,6.3-11.9
			c2.5-2.5-2.6-9.5,9.9-13.1c2.9-0.8,3.4-2.1,2.5-3.8c-1.9-3.4-8.3-3.3-8.3-9.6c0,2.4,0.7-0.2,1.3-0.7c0.7-0.7-4.7-1.7-7.3-3.3
			c-8.5-5.3-9.3-10.6-7-16.1c1.6-4,5.3-7,9.9-7.9c4.1-0.9,5.7,1.1,8.9,1.7c1.5,0.2,1.1-2,2-4.3c1.5-4,6.8,1.3,9.9-1.7
			c-3-3-6.7-5.5-8.6-9.1c-2.1-4-0.5-5.4,3-8.1c-4.2-2.7-7.1-9.3-4.3-13.9c2.2-3.7,3.3-8.2,6-9.9c2.9-1.7,7.3-1.1,8.1-5.5
			c0.2-0.8,0.2-1.7,0.2-2.5L-291.2,247.6L-291.2,247.6z M-253.4,367.1l-0.3,0.3l-0.4,0.2l-0.3,0.2l-0.4,0.2l-0.3,0.2l-0.3,0.1
			l-0.3,0.2l-0.3,0.1l-0.3,0.1l-0.3,0.1l-0.6,0.3l-0.5,0.3l-0.6,0.3l-0.3,0.2l-0.2,0.1l-0.3,0.2l-0.3,0.2l-0.3,0.2l-0.3,0.3
			l-0.3,0.2l-0.2,0.3l-0.3,0.3l-0.3,0.3l-0.3,0.3l-0.3,0.4l-0.3,0.3l-0.2,0.5l-0.3,0.4l-0.3,0.5c8.2,3.6,9.1,18.1,5.1,24.1
			c-3.3,4.9,0.7,0.8-0.3,9.7c-0.7,6.6-7.1,11.3-13.8,5.1c-2.3,6.7-3.7,16.1-11.4,18.4c-3.4,1.1-8.1,2.4-11.7-0.9
			c-1.9,2.7-7.3,4.1-6.6,5.5c3.3,6.2-0.3,10.2-4.2,13.5c-2.8,2.3-7.7-2.2-9.5-0.5c-4.9,4.8-10.3,4.7-8.5,12.5
			c0.8,3,2.1,7.1,0.1,10.6c-1.7,3-0.1,8.7-2.8,7.4c-3.6-1.5-9.4,2.1-11.7,0.2c-2.3-1.9-4.6-1.2-6.1-3.7c-3.3,1.3-1.9-0.7-1.5,0.7
			c-3,0-6.8-0.9-9.3-2c-3.3-1.4-4.5-2.9-4.3-6.9c0.1-1-1.3-2.1-2.7-1.4c-1.2,0.7-2.8,2-2.7,2.8c0.9,7.4-5.7,8.9-7.9,12.9
			c-3.1,5.4-8.5,10.9-14.9,10.7c-6.1-0.1-6.1-5.2-9.3-9.8c-0.5-0.8-3.6-4.5-3.7-4.9c-4.1-12.7-6.8-20.1,0.7-30.3
			c1.1,0.3,5.1-4.8,3.4-6.9c-4.2-5.5,2.9-11.5,7.1-16.7c1-1.2,1-4.4,0-5.3c-9.9-9.1-26.7-6.7-30.1,5.9c-3,11.1,5.5,24.7,1.7,35.4
			c-6.1,17.1-18.9,29.7-26.1,46.6c-2.6,6.2,1.5,12.7,7.3,15.9c4.5,2.5,11.1,1.5,14.1,5.3c8.8,10.9,22.3,11.5,31.4,21
			c2.2,2.4,3.5,6.8,6.7,7.9c15.6,5.5,30.3,15.9,47.6,13.9c-4.3,7.7-12.7,9.7-19.7,12.7c-16.5,7-32.1,14.7-50.3,19.1
			c-40.7,9.7-78.4,11.6-119.4,3.3c-30.1-6.1-56.6-17.5-82.2-32.1c0.5-0.5,1-1.3,1.5-1.3c5.5,0.3,11.4,0.3,16.2-1.1
			c14.9-4.5,29-12,42.8-17.5c10.9-4.3,15.5-19.8,20.7-32.3c1.7-4.1,5.3-7.2,9.1-10.2c15.4-12.5,25.4-29.8,34.1-47.3
			c3.7-7.3,5-17.5,0.8-26.1c-8.1-16.6-26-23.3-42.9-28.6c-1.4,8.3,3.9,15.5,3.6,23.9c-0.1,1.7,4.7,1.9,5.1,4.5
			c0.9,6.5,1.7,15-5.7,17.9c2.5,1.5,1.8,4.2,1.1,5.8c-4.9,11.7-15.3,20.2-27.5,23.2c-3.6,0.9-8,10.9-15.4,10.7
			c-3.6-0.1-8.9-4.8-9.8-8.2c-1.4-5.3,2.8-10-3.7-9.9c-4.7,0.1-11.1-1.3-14.7,3.9c-0.1,0.1,0.8,0.8,1.3,1.3
			c-4.3,1.9-5.7,8.2-10.5,8.5c-4.8,0.3-8.9-3.7-13-6.1c-1.9-1.1,1.5-6.5-2.1-7.9c-4.6-1.9-8.1-3.3-13.1-4.2
			c-3.1-0.5-8.1-3.2-8.4-6.7c-0.5-6.1-3.7-8.6-6.3-13.6c-1.1-1.9,0.5-5.6-0.8-6.9c-5-5-6.7-10.2-5.3-16.8c0.3-1.2,1.7-2,2.7-3
			c-2.9-2.7-3.1-5.9-6.3-8.1c-4.7,7.2-18.2,8.9-22.1,2.7c-3.7-5.7-6.3-15.9,4.5-18.5c-4.7-2.6-2.1-6.3-5.2-10.3
			c-8.4-10.5-0.3-13.2-4.3-19.3c-0.8-1.1-4.7,2-5.5,2.6c-2.7,2.2-9,1.5-10.2-0.2c-1.7-2.5-2.1-4.7-1.6-8.2L-253.4,367.1
			L-253.4,367.1z"/>
	</g>
	<path class="st3" d="M-475,702l18.1-0.5l17.9-1.4l17.5-2.2l17.3-3.1l17-3.9l16.7-4.7l16.3-5.5l15.9-6.3l15.5-7l15.1-7.7l14.7-8.5
		l14.3-9.1l13.7-9.8l13.3-10.5l12.8-11l12.2-11.7l11.6-12.2l11.1-12.7l10.4-13.3l9.8-13.8l9.1-14.2l8.5-14.7l7.7-15.1l7.1-15.6
		l6.3-15.9l5.5-16.3l4.7-16.7l3.9-17l3.1-17.3l2.3-17.6l1.3-17.8l0.5-18.1C-123.9,157-281.1-0.3-475-0.3S-826.2,157-826.2,350.8
		C-826.2,544.8-669,702-475,702L-475,702z"/>
	<path class="st2" d="M-475.4,506.8l-0.7,0.1l-0.6,0.1l-0.5,0.1l-0.5,0.1l-0.5,0.1l-0.5,0.1l-0.5,0.1l-0.5,0.1l-0.4,0.1l-0.4,0.2
		l-0.4,0.2l-0.4,0.2l-0.3,0.3l-0.3,0.3l-0.3,0.3l-0.3,0.3l-0.3,0.3l-0.3,0.3l-0.3,0.4l-0.3,0.4l-0.3,0.5l-0.2,0.5l-0.3,0.5l-0.2,0.5
		l-0.3,0.5l-0.2,0.6l-0.2,0.7l-0.2,0.7l-0.3,0.7l-0.2,0.7l-0.2,0.7c-1.3,4.7,22.1,5.1,21.8,1.7c0,0-0.8-12.7-10.3-12.3L-475.4,506.8
		L-475.4,506.8z M-487.2,521.1L-487.2,521.1l-0.1,0.1l-0.1,0.1l-0.1,0.1l-0.2,0.1l-0.1,0.1l-0.2,0.1l-0.3,0.1l-0.2,0.1l-0.2,0.2
		l-0.3,0.1l-0.3,0.3l-0.3,0.2l-0.3,0.2l-0.3,0.3l-0.3,0.3l-0.3,0.3l-0.2,0.3l-0.3,0.3l-0.3,0.3l-0.2,0.4l-0.3,0.3l-0.2,0.5l-0.2,0.4
		l-0.1,0.5l-0.2,0.5l-0.1,0.3l-0.1,0.3l-0.1,0.3l-0.1,0.3v0.3l-0.1,0.3l-0.1,0.3v0.3c-0.8,9.1,4.7,15.1,17.9,15.1
		c13.1,0,16.5-7.3,16.5-13.7c0-6.5-5.1-8.7-5.1-8.7s-3.9,1.4-11.2,1.4C-482,523.6-487.1,521.1-487.2,521.1L-487.2,521.1
		L-487.2,521.1z M-435.1,541.3c-1.5,0.1-3.3,1.5-5.2,4.9c0,0-15.7-10.6-18.5,3.9c0,0-12.6-3.3-11.4,12.9c0,0,20.7-23,50.6-10.4v-0.1
		v-0.1l-0.1-0.1v-0.1v-0.1v-0.1v-0.1V552l-0.1-0.1v-0.2v-0.1l-0.1-0.2v-0.2l-0.1-0.1l-0.1-0.4l-0.1-0.4l-0.1-0.5l-0.1-0.4l-0.1-0.4
		l-0.1-0.5l-0.2-0.4l-0.1-0.2l-0.1-0.2l-0.1-0.1l-0.1-0.2l-0.1-0.2l-0.1-0.1l-0.1-0.2l-0.1-0.1l-0.1-0.1l-0.2-0.1l-0.1-0.1l-0.2-0.1
		l-0.2-0.1l-0.2-0.1l-0.2-0.1h-0.2l-0.2-0.1h-0.2h-0.3h-0.3l-0.2,0.1l-0.3,0.1l-0.3,0.1l-0.3,0.1l-0.3,0.1l-0.3,0.1l-0.3,0.1
		l-0.3,0.2l-0.3,0.2l-0.3,0.3l-0.4,0.3l-0.1,0.1l-0.2,0.2l-0.2,0.1l-0.2,0.2l-0.2,0.1l-0.2,0.2C-428.6,548.5-431.2,541-435.1,541.3
		L-435.1,541.3z M-515.3,544.4c-3.9,0.2-6.2,5.3-6.2,5.3l-0.2-0.2l-0.3-0.1l-0.3-0.1l-0.3-0.1l-0.2-0.1l-0.3-0.1l-0.2-0.1l-0.3-0.1
		l-0.2-0.1h-0.2l-0.3-0.1h-0.2h-0.2l-0.3,0.1h-0.2l-0.2,0.1l-0.3,0.1l-0.2,0.1l-0.2,0.1l-0.3,0.1l-0.2,0.2l-0.3,0.1l-0.3,0.2
		l-0.2,0.2l-0.3,0.3l-0.3,0.3l-0.3,0.3l-0.1,0.1l-0.1,0.2l-0.2,0.1l-0.1,0.2l-0.1,0.1l-0.1,0.2l-0.1,0.2l-0.2,0.2l-0.1,0.2l-0.1,0.2
		l2.8,1.7c19.6-14,44.8,7.9,44.8,7.9c-4.5-19.6-14-11.3-14-11.3c-3.9-12.3-13.5-2.7-13.5-2.7C-511.5,545.2-513.5,544.3-515.3,544.4
		L-515.3,544.4z M-478.7,546.3c0,0-2.8,20.4,3.7,32.5h0l0.5,0.9l0.6,0.9l0.6,0.9l0.6,0.9l0.7,0.7l0.6,0.7l0.7,0.7l0.7,0.6l0.7,0.6
		l0.7,0.5l0.7,0.5l0.7,0.5l0.8,0.5l0.8,0.4l0.8,0.3l0.8,0.3l0.8,0.3l0.8,0.3l0.9,0.2l0.8,0.2l1.7,0.3l1.7,0.2l1.7,0.1h1.7l1.7-0.1
		l1.7-0.2l1.6-0.2l1.5-0.3l1.5-0.3l1.5-0.3l1.4-0.3l1.3-0.4l1.3-0.4l1.1-0.4l1-0.4l0.9-0.3l0.4-0.2l0.4-0.1l0.3-0.2l0.3-0.1l0.3-0.1
		l0.3-0.1l0.2-0.1l0.2-0.1l0.1-0.1l0.1-0.1h0.1v-0.1l-2.2-3.3c-47.6,20.5-37-35.9-37-35.9L-478.7,546.3L-478.7,546.3z M-436.4,552.2
		l-2,0.1l-2.1,0.1l-2.1,0.2l-2.2,0.4l-2.2,0.5l-2.3,0.5l-2.3,0.7l-2.3,0.9l-2.3,1.1l-1.2,0.5l-1.1,0.6l-1.1,0.7l-1.2,0.7l-1.1,0.7
		l-1.1,0.7l-1.2,0.9l-1.1,0.9l-1.1,0.9l-1.1,1l-1.1,1.1l-1.1,1.1c0,0,18.5,4.5,17.4-5.6c0,0,12.3,8.4,12.9-0.6c0,0,7.6,6.2,12.1-1.7
		c0,0,19.3,2.8,10.9-2.8h-0.1l-0.1-0.1l-0.1-0.1l-0.2-0.1l-0.2-0.1l-0.6-0.3l-0.7-0.2l-0.9-0.3l-1-0.3l-1.1-0.3l-1.2-0.3l-1.3-0.3
		l-1.5-0.3l-1.5-0.3l-1.7-0.3l-1.7-0.2l-1.9-0.1l-1.9-0.1H-436.4L-436.4,552.2z M-512.8,553.1l-1.2,0.1l-1.2,0.1l-1.1,0.2l-1,0.1
		l-0.9,0.3l-0.9,0.2l-0.7,0.3l-0.6,0.3l-0.6,0.3l-0.5,0.3l-0.5,0.2l-0.3,0.2l-0.2,0.2l-0.2,0.1l-0.1,0.1c6.7,10.1,9.9,2.4,9.9,2.4
		c3.3,9.3,14,4.5,14,4.5c1.9,9,12,2,12,2c2.3,5,7.1,0.7,7.1,0.7l-1.5-0.9l-1.4-0.9l-1.3-0.9l-1.4-0.8l-1.3-0.7l-1.3-0.7l-1.3-0.7
		l-1.2-0.6l-1.3-0.6l-1.1-0.6l-1.2-0.5l-1.1-0.5l-1.1-0.5l-1.1-0.4l-1.1-0.4l-1-0.4l-1.1-0.3l-1-0.3l-0.9-0.3l-0.9-0.3l-0.9-0.2
		l-0.9-0.2l-0.9-0.2l-0.9-0.1l-1.6-0.2l-1.5-0.1l-1.5-0.1L-512.8,553.1L-512.8,553.1z"/>
	<path class="st4" d="M-489.9,520.3c0,0-0.8,18.2,10.9,25.5 M-483.7,522.5c0,0,1.4,19.3,17.6,21.9 M-478.7,523.6
		c0,0,6.7,15.1,19.1,15.4 M-471.1,523.3c0,0,5.3,8.4,14,9.5 M-465.8,522.7c0,0,2.5,2.9,8.1,5.1 M-460.5,523.3c0,0,3.7,12.6-10.6,21
		 M-465.2,522.7c0,0-1.4,18.5-17.7,21.1 M-471.4,523.6c0,0-8.1,15.7-20.4,15.9 M-479,523.3c0,0-7.1,8.1-15.7,9.2 M-484.6,521.7
		c0,0-3.1,2.9-8.7,5"/>
	<path class="st5" d="M-504.4,357.8l0.1,0.1l0.1,0.1l0.1,0.1l0.1,0.2l0.1,0.2l0.1,0.2l0.1,0.2l0.1,0.3l0.1,0.3l0.1,0.3l0.1,0.3
		l0.1,0.3l0.1,0.3l0.1,0.3l0.3,0.6l0.3,0.6l0.3,0.7l0.3,0.6l0.1,0.3l0.1,0.3l0.1,0.3l0.1,0.3l0.1,0.3l0.1,0.3l0.1,0.2l0.1,0.3
		l0.1,0.2l0.1,0.2c4.8,7.5,5.3,9.2,5.7,11.5c0.1,0.3,1,0.8,1.3,1.3c4.7,8.1,10.1,14.5,14.4,18.1c0.5,0.4,2.7,4.9,2.9,5.4
		c1.8,4.5,0.7,5.7,2.2,10.5c1.1,3.5,4.9,5.3,7.3,8.1c3.7,4.8,6.6,9,8.1,14.9c2.1-1.3,1.6-4.5,3.9-5.6c-1.7-1.4-2.7-5.8-3.7-7.1
		c-4.4-6.5-10.2-7.5-11.8-14.9c-1.6-7.7-0.6-10-3.3-14.9c-2.3-4-8.4-7.1-11.3-10.9c-1.4-1.7-2.6-3.5-3.3-5.5
		c-1.9-5.3-4.5-10.1-7.6-14.8c-2.6-4-5.5-7.6-7.1-12.1 M-326.4,359.5h-0.4h-0.3h-0.3l-0.3,0.1l-0.3,0.1l-0.3,0.1l-0.3,0.1l-0.3,0.1
		l-0.3,0.1l-0.2,0.1l-0.3,0.2l-0.2,0.1l-0.3,0.2l-0.2,0.1l-0.2,0.2l-0.2,0.2l-0.5,0.4l-0.4,0.5l-0.4,0.5l-0.5,0.5l-0.2,0.2l-0.3,0.2
		l-0.3,0.3l-0.3,0.2l-0.3,0.3l-0.3,0.2l-0.3,0.2l-0.3,0.3c-7.6,4.9-19.5,20.1-27.1,25.3c-12.2,8.4-20.2,3.5-33.3,4.5
		c-9.5,0.7-13.5,2.3-25,11.6c-0.9,0.7-4.3,4.6-3.5,5.7c1.1,1.7,0.9,1.7,1.9,3c1.4-1.1,1.5-0.7,2.7-1.9c6.3-6.3,11.5-8.2,19.5-10.8
		c9.1-2.9,20.2,1.9,34.3-3c11-3.9,21.7-18.7,29.9-26.9c8.6-8.6,23.5-12.6,33-4.5 M-493.8,268.2L-493.8,268.2v0.2v0.1v0.1v0.1v0.1
		v0.1v0.1l-0.1,0.1v0.1v0.1v0.1l-0.1,0.1v0.1l-0.1,0.1v0.1v0.1l-0.1,0.1l-0.1,0.1v0.1l-0.1,0.1v0.1l-0.1,0.1l-0.1,0.1l-0.1,0.1v0.1
		l-0.1,0.1l-0.1,0.1l-0.1,0.1c-0.5,0.6,0.1,1.9-0.3,2.7c-0.8,1.5-1.5,3.1-1.9,4.6c-2.1,7-1.2,14.3,2.5,20.4
		c2.4,3.9,7.6,5.5,10.7,9.2 M-451.1,250l-0.3,0.1l-0.3,0.1l-0.4,0.1l-0.4,0.1l-0.5,0.1l-0.5,0.1l-0.5,0.1l-0.5,0.2l-0.5,0.2
		l-0.6,0.2l-0.6,0.1l-0.5,0.3l-1.3,0.4l-1.2,0.5l-1.3,0.5l-1.2,0.5l-0.5,0.2l-0.6,0.3l-0.5,0.2l-0.5,0.3l-0.5,0.2l-0.5,0.2l-0.5,0.3
		l-0.5,0.2l-0.4,0.2l-0.3,0.2l-0.3,0.2l-0.3,0.1c-1.3,0.9-2.9,1.9-4.7,2.2c-3.4,0.5-5.8,3.3-8.1,5.3c-6.6,5.9-11.8,14.1-11.8,23.1
		c0,4.9,1.2,10.1,3.9,14.4c2.1,3.3,3.7,6.9,6.4,9.7 M-473.6,190.4l-0.1,0.6l-0.1,0.7l-0.1,0.6l-0.1,0.6v0.7l-0.1,0.6v0.6l0.1,0.6
		v0.6l0.1,0.6l0.1,0.6l0.1,0.5l0.1,0.6l0.1,0.6l0.3,1.2l0.3,1.1l0.3,1.2l0.3,1.1l0.4,1.1l0.3,1.2l0.4,1.1l0.3,1.2l0.3,1.2
		c1.5,5.9,6,9.8,9.5,15c1.4,2.1,3.1,3.8,5.1,5.5c2.9,2.4,5.4,5.3,7.9,8.2c3.7,4.5,7.3,8.9,9.9,14.1c1.3,2.7,3.2,5.5,3.1,8.8
		 M-436.1,241.4l0.1,0.3l0.1,0.4l0.2,0.3l0.1,0.3l0.3,0.7l0.4,0.7l0.4,0.7l0.4,0.7l0.4,0.6l0.4,0.7l0.5,0.7l0.4,0.6l0.4,0.7l0.4,0.7
		l0.3,0.7l0.4,0.7l0.1,0.3l0.1,0.3l0.2,0.3l0.1,0.4c0.5,1.5,1.3,3.1,1.6,4.9c0.3,2,1.9,3.6,2.7,5.5c1.7,4.2,2.9,8.5,3,12.9
		c0.3,13.5,0,29.2-11.8,38.3c-9.3,7.2-17.7,14.3-23.8,23.9c1.1-2.7-0.1-5.7,0.7-8.3c0.7-1.9,1.1-3.9,2.3-5.5
		c3.4-4.9,7.6-8.2,12.3-11.6c4.8-3.3,10.2-6.7,11-12.6 M-586.8,282.2l1.4,0.6l1.4,0.5l1.3,0.5l1.3,0.5l1.3,0.4l1.3,0.4l1.3,0.3
		l1.3,0.3l1.3,0.3l1.3,0.2l1.3,0.2l1.3,0.1l1.4,0.1h0.7l0.7,0.1h0.7h0.7h0.7l0.8-0.1c8.1-0.3,15.1-2.1,21.8-1.5 M-600.2,269.9
		l0.3,0.1l0.3,0.1l0.3,0.1h0.3l0.5,0.1l0.3,0.1h0.3l0.3,0.1l0.3,0.1h0.1l0.1,0.1l0.2,0.1h0.1l0.1,0.1l0.1,0.1l0.1,0.1l0.1,0.1
		l0.1,0.1l0.1,0.1l0.1,0.1l0.1,0.1c15.1,9.7,31.7,9.9,48.7,7.5c3.9-0.5,7.6,0.1,11.2,1.5 M-537.2,260.1
		c11.1,7.9,17.7,11.3,21.3,22.4 M-576.4,233.3l1.3,0.3l1.3,0.4l1.3,0.4l1.1,0.5l1.1,0.6l1.1,0.6l1.1,0.7l1.1,0.7l1,0.7l1,0.9l1,0.8
		l0.9,0.9l0.9,0.9l0.9,0.9l1.8,2l1.7,2l1.7,2.1l1.7,2.1l1.7,2.1l1.7,2.1l1.7,2l1.7,2l0.9,0.9l0.9,0.9c6.2,6,14.5,9.4,20.3,15.5
		c1.6,1.7,0.5-0.8,1.7,1.7 M-590.9,341.9l3,1.3l3,1.1l3.1,1.1l3.1,1l6.1,1.9l3.1,0.9l3.1,1l3,1l3,1.1l3,1.2l3,1.3l2.9,1.4l1.5,0.7
		l1.5,0.8l1.4,0.9l1.4,0.9l1.4,0.9l1.4,1c9.2,6.8,17.2,13.7,24.5,22.3c3.1,3.7,4.2,7.3,8.3,14.1 M-590.9,348.6l1.1,0.3l1.1,0.3
		l1.2,0.3l1.2,0.3l2.5,0.7l2.6,0.8l2.7,0.9l2.7,0.9l2.7,0.9l2.7,1l2.7,1.1l2.7,1.1l2.6,1.1l2.5,1.1l2.5,1.1l1.1,0.6l1.2,0.5l1.1,0.6
		l1.1,0.5l1,0.6l1,0.5c16.6,9.4,26.6,23.5,31.7,30.7 M-427.6,471.4l-0.1,0.2l-0.2,0.1l-0.2,0.2l-0.1,0.2l-0.2,0.1l-0.2,0.2l-0.1,0.2
		l-0.2,0.2l-0.1,0.2l-0.2,0.2l-0.1,0.1l-0.1,0.1l-0.1,0.1l-0.1,0.1l-0.1,0.1l-0.1,0.1l-0.1,0.1v0.1l-0.1,0.1l-0.1,0.1v0.1l-0.1,0.1
		c-0.3,1.1-2.1,3.1-2.5,4.1c0.2-0.4,0.3-0.2,0.3-0.4c-2.1,4.5-1.7,1.8-4.2,6.8c-3.1,6.3-8.7,12.9-9.8,16.9c-1.6,5.8-4.1,14,0.3,18.8
		c4.8,5.2,11.5,6.8,17.9,9.9c1.7,0.8,3.1,2.3,4.5,3.5c4.3,3.6,10.3,6.1,19.3,12.5c5.6,3.9,10.7,7.3,15.1,12.3
		c1.5,1.6,2.8,3.4,4.7,4.5c1.9,1.1,3.9,2,6.1,2.4c0.3,0.1,0.1,0.3,0,0.3c2.8,0.4,5.5,1.3,8.1,2.3c1.5,0.5,3.1,0.2,4.7,0.2
		 M-431.2,456.6h0.1l0.1,0.1l0.1,0.1h0.1l0.1,0.1l0.1,0.1l0.1,0.1l0.1,0.1l0.1,0.1l0.1,0.1l0.1,0.1l0.1,0.1l0.1,0.1l0.1,0.1l0.1,0.1
		l0.1,0.1l0.1,0.1l0.1,0.1l0.1,0.1l0.1,0.1l0.1,0.2l0.1,0.2l0.1,0.2l0.1,0.2l0.1,0.3v0.1l0.1,0.1c0.7,2.3-0.5,4.4-2,6.1
		c-0.8,0.8-1.6,1.9-3,1.7c-0.9-0.1-1.5-0.7-2.2-1.1 M-430.6,408.1l-0.1,0.6l-0.1,0.7l-0.1,0.6l-0.1,0.6l-0.1,0.6v0.5v0.5v0.6v0.5
		l0.1,0.5l0.1,0.5l0.1,0.5l0.1,0.5l0.1,0.5l0.2,0.9l0.3,0.9l0.2,0.9l0.3,0.9l0.3,0.9l0.2,0.9l0.2,0.9l0.2,0.9l0.1,0.5l0.1,0.4
		c0.2,1.3,0.9,3.8,1.2,5c1.2,4.6,2.2,7.8,4.1,12.1c1.8,4.1,2.9,8.1,2.1,12.5c-0.7,4.1-1.6,8.2-3.3,12c-1.4,3.1-3.9,5.6-6.5,7.6
		c-2.9,2.2-7.2,0.5-9.8-1.9 M-435.6,474.6l-0.1,0.3l-0.2,0.4l-0.1,0.3l-0.1,0.3l-0.2,0.3l-0.1,0.3l-0.1,0.3l-0.1,0.3l-0.3,0.6
		l-0.3,0.5l-0.3,0.5l-0.2,0.5l-0.3,0.4l-0.3,0.4l-0.2,0.3l-0.3,0.4l-0.2,0.3l-0.2,0.3l-0.3,0.3l-0.2,0.3l-0.2,0.3l-0.2,0.2l-0.4,0.5
		l-0.4,0.5l-0.4,0.5l-0.2,0.2l-0.2,0.3l-0.2,0.3l-0.2,0.3l-0.2,0.3l-0.2,0.3l-0.2,0.3l-0.3,0.4c-9.9,17.5-18.1,33.8-3.8,41.1
		c12.9,6.6,23.7,10.7,40.1,23.2c8.7,4.6,11.7,14.1,20.9,18.3c2.1,0.9,11.1,1.9,13.1,1.9 M-435.8,411.3l0.2,1.2l0.1,1.1l0.3,2.2
		l0.3,2.1l0.3,2.1l0.3,1.9l0.3,2l0.4,1.9l0.4,1.9l0.4,1.9l0.5,1.9l0.5,1.9l0.5,1.9l0.6,2l0.7,2l0.4,1.1l0.3,1.1l0.4,1.1l0.4,1.1
		c1.9,4.9,2.2,9.6,1,14.6v-1.1 M-524.9,404.6l0.8-0.3l0.8-0.2l0.8-0.2l0.7-0.1l0.8-0.1l0.7-0.1h0.7l0.7-0.1h0.7l0.7,0.1h0.7l0.7,0.1
		l0.7,0.1l0.7,0.1l0.6,0.1l0.7,0.1l0.6,0.2l0.6,0.1l0.6,0.2l0.6,0.2l1.1,0.4l1.1,0.4l1,0.4l0.5,0.2l0.5,0.2l0.5,0.2l0.4,0.1l0.5,0.2
		l0.4,0.1c20.7,7.4,30.6,15.1,37.1,37.4c2.3,7.9-1.3,18.8-3.8,25.2c-2.7,6.9-8.2,15.4-13.4,21.8c-7.8,9.5-16.1,17.5-23.9,26.1
		c-7.4,8.3-11.9,18.1-13,20.3c-2.3,4.7-7.3,8.7-9.5,13.5 M-551.8,397.9l0.5-0.2l0.5-0.2l0.5-0.2l0.5-0.1l0.5-0.1l0.5-0.1l0.5-0.1
		l0.5-0.1l0.5-0.1h0.5h0.5h0.5h0.5l0.5,0.1l0.5,0.1l0.5,0.1c8.5,1.9,15.3,6.6,23.3,8.7c11.8,3,22.4,8.9,32.3,16.5
		c12.7,9.7,18.4,27.9,11.7,42.7c-7.3,15.9-15.1,28.4-28.1,40.5c-4.1,3.9-10.6,10.3-14.1,14.4c-4.3,4.9-6,11.6-9.4,17.9
		c-0.5,0.9-1.4,2.5-1.7,3.8c-2.5,11.8-12.9,18.3-22.9,21.2 M-352.1,287.8l-0.8,0.3l-0.7,0.3l-0.7,0.3l-0.7,0.3l-0.7,0.3l-0.7,0.3
		l-0.7,0.4l-0.3,0.1l-0.3,0.2l-0.3,0.2l-0.3,0.2l-0.3,0.3l-0.3,0.2l-0.3,0.3l-0.3,0.2l-0.3,0.3l-0.3,0.3l-0.2,0.3l-0.3,0.3l-0.2,0.3
		l-0.2,0.3l-0.2,0.3l-0.2,0.3l-0.1,0.3l-0.2,0.4c-1,2.7-2.2,5.1-3.7,7.6c-1.7,2.9-3.5,5.3-5.2,8.1c-1.3,2.3-2.5,4.8-4,6.8
		c-2.2,2.9-5.6,6-8.3,8.5c-0.1,0.1-3.5,7.7-3.5,7.5c-2.9,15.1-1.3,29.6-9.3,42.7c-0.7,1.1-3.7,1.8-6.5,1.6c1.5-1.4,1.4-1.5,1.5-1.8
		c0.7-1.3,0.5-2.5,1-3.7c5-9.3,6.3-18.7,5.9-28.7"/>
	<path class="st6" d="M-511,131.8c-3.3,0.2-5.4,8.4-5.4,8.4c-8.4-2.3-3.3,11.7-3.3,11.7h-0.5l-0.5-0.1h-0.4h-0.4h-0.3l-0.4,0.1
		l-0.3,0.1l-0.3,0.1l-0.3,0.1l-0.3,0.1l-0.2,0.1l-0.3,0.1l-0.2,0.1l-0.2,0.1l-0.2,0.1l-0.1,0.1l-0.2,0.2l-0.1,0.1l-0.1,0.2l-0.1,0.2
		l-0.1,0.2l-0.1,0.2l-0.1,0.2v0.2l-0.1,0.2l-0.1,0.3v0.2v0.2v0.3v0.2v0.3v0.2l0.1,0.5l0.1,0.5l0.1,0.5l0.1,0.4l0.2,0.5l0.1,0.5
		l0.1,0.4l0.2,0.3l0.1,0.2l0.1,0.2l0.1,0.1l0.1,0.1l0.1,0.2l0.1,0.1l0.1,0.1l0.1,0.1l0.1,0.1l0.1,0.1v0.1l0.1,0.1v0.1l0.1,0.1
		c3.3-5.1,9.5-2.8,9.5-2.8c-1.1-3.3,2.2-17.9,2.2-17.9h2.8c-2.2,1.1-0.5,16.9-0.5,16.9c2.3-2.9,7.3-0.6,7.3-0.6
		c0.6-7.9,7.9-8.4,7.9-8.4c-4.5-2.3-10.1-2.8-10.1-2.8l-1.1-7.9C-507.8,133.3-509.5,131.7-511,131.8L-511,131.8z M-463,135.9
		c-1.3,0-2.5,0.2-3.6,1.1c0,0-7.3,1.1-10.1,5c0,0-6.7-5-12.3,8.4c0,0-6.7,1.7-8.4,7.3h0.1h0.1h0.1l0.1,0.1l0.1,0.1l0.2,0.1l0.1,0.1
		l0.2,0.1l0.2,0.1l0.2,0.1l0.3,0.1l0.2,0.1l0.2,0.2l0.2,0.2l0.3,0.3l0.2,0.2l0.2,0.3l0.1,0.2l0.1,0.1l0.1,0.1l0.1,0.2l0.1,0.1
		l0.1,0.2l0.1,0.2l0.1,0.2l0.1,0.2l0.1,0.2l0.1,0.2v0.2l0.1,0.3v0.2l0.1,0.3v0.3v0.3v0.3v0.3v0.3l-0.1,0.3v0.3l-0.1,0.3l-0.1,0.3
		l-0.1,0.3l-0.1,0.3l-0.1,0.3l-0.1,0.4c0,0,11.2-21.3,27.5-23.5l2.8,1.7c0,0-37,15.7-24.1,53.2l3.3,7.9c0,0,7.3-10.7,3.3-13.5
		c-3.9-2.8,11.8-17.9,0-19c0,0,21.3-4.5,11.8-16.9c0,0,15.7-6.7,14-17.3C-455.4,139.2-459.2,136-463,135.9L-463,135.9z
		 M-412.2,136.7c-3,0.2-5.2,4.1-5.2,4.1c-3.9,0-3.9,6.2-3.9,6.2l0.2,0.2l0.2,0.3l0.1,0.3l0.2,0.2l0.1,0.3l0.1,0.3l0.1,0.3l0.1,0.3
		l0.1,0.3l0.1,0.3l0.1,0.5l0.2,0.6l0.1,0.5l0.1,0.6v0.5l0.1,0.5v0.6v0.5l-0.1,0.5l-0.1,0.5l-0.1,0.5l-0.1,0.5l-0.1,0.5l-0.1,0.5
		l-0.1,0.4l-0.1,0.5l-0.1,0.4l-0.1,0.3l-0.1,0.3l-0.1,0.3l-0.1,0.3l-0.1,0.3l-0.1,0.1l-0.1,0.1v0.1l-0.1,0.1v0.1v0.1h-0.1v0.1
		c5.6,4.5-5.6,13.5-5.6,13.5c5.6,3.9,0,10.1,0,10.1c5.6-6.1,10.1,1.1,10.1,1.1c7.3-20.7,3.4-42,3.4-42h2.2
		c6.7,14.6-1.7,44.3-1.7,44.3c2.3,1.7,8.4,7.8,8.4,7.8c6.1-7.8-1.7-10.6-1.7-10.6c8.4-10.7,3.9-23,3.9-23c5.6-3.9-1.7-11.2-1.7-11.2
		C-406.3,139.3-409.5,136.5-412.2,136.7L-412.2,136.7z M-432.4,146.1c-5.2,0.2-11.3,13.8-11.3,13.8c-2.7-10.1-16.2-1.7-16.2-1.7
		c6.1,8.4-9,16.8-9,16.8c4.5,2.8-1.7,11.7-1.7,11.7l0.3,1.4l0.3,1.3l0.3,1.3l0.4,1.3l0.3,1.2l0.4,1.1l0.4,1.1l0.4,1.1l0.4,1.1l0.4,1
		l0.4,1l0.4,0.9l0.3,0.9l0.4,0.8l0.4,0.8l0.4,0.8l0.3,0.7l0.3,0.7l0.3,0.7l0.3,0.5l0.3,0.6l0.3,0.5l0.3,0.5l0.3,0.4l0.2,0.3l0.2,0.3
		l0.2,0.3l0.1,0.2l0.1,0.2l0.1,0.1l0.1,0.1v0.1c1.1-39.8,25.8-54.9,25.8-54.9h2.8c-28.6,31.9-23,67.8-23,67.8
		c17.4-17.9,9.5-26.3,9.5-26.3c27.4-14.5,12.3-22.4,12.3-22.4c14.5-7.3,7.8-15.7,7.8-15.7c4.5-11.2-3.9-10.7-3.9-10.7
		C-430.5,146.5-431.5,146.1-432.4,146.1L-432.4,146.1z M-366.1,155.3c-2,0-4.2,0.4-6.4,0.1c-4.5-0.6-6.2,6.1-6.2,6.1
		c-10.1-12.9-17.3,2.8-17.3,2.8l-0.1,0.1l-0.1,0.1l-0.1,0.1l-0.1,0.1l-0.1,0.1l-0.1,0.1l-0.1,0.2l-0.1,0.2l-0.1,0.2l-0.1,0.3v0.3
		l-0.1,0.3v0.3v0.3v0.3v0.3v0.4v0.3l0.1,0.7l0.1,0.8l0.1,0.8l0.1,0.9l0.1,0.9l0.1,0.9l0.1,0.9l0.1,0.9l0.1,0.9l0.2,0.9l0.1,0.9
		l0.1,0.8l0.2,0.7l0.1,0.7l0.1,0.7l0.1,0.3l0.1,0.3l0.1,0.3l0.1,0.3l0.1,0.3l0.1,0.3l0.1,0.2v0.2l0.1,0.2l0.1,0.1v0.1v0.1l0.1,0.1
		v0.1v0.1c13.5-16.8,25.2-23.5,25.2-23.5l2.8,1.7c-8.9,3.9-31.9,38.7-31.9,38.7c1.7,5.6,5.1,9,5.1,9c33.6-15.1,16.8-25.3,16.8-25.3
		c19.3-5.1,10.7-12.3,10.7-12.3c6.7-1.7,6.7-10.1,4.5-13.9C-362.5,155.7-364.2,155.3-366.1,155.3L-366.1,155.3z M-550.6,155.4
		c-3.1-0.1-6.9,0.7-7.9,4.5c0,0-3.4,4.5-1.7,8.4c0,0-14.6-8.4-10.7,16.8c0,0-11.8,6.1,1.1,24.1v-0.1v-0.1v-0.1v-0.2l0.1-0.2v-0.3
		v-0.3l0.1-0.4l0.1-0.4v-0.5l0.1-0.5l0.1-0.6l0.1-1.1l0.2-1.3l0.2-1.5l0.3-1.5l0.3-1.7l0.3-1.8l0.4-1.9l0.4-1.9l0.4-2l0.5-2l0.5-2.1
		l0.6-2.1l0.6-2.1l0.7-2.1l0.7-2.1l0.8-2l0.8-2.1l0.9-1.9l0.9-1.9l1-1.8l1.1-1.8l1.2-1.7l1.2-1.5l1.3-1.5l1.4-1.3l0.7-0.6l0.7-0.6
		l3.9-1.1c0,0-30.8,47.6-5.6,78.4c0,0,2.8-11.2-1.1-19.1c0,0,8.4-6.7,3.3-20.7c0,0,12.3-6.5,3.9-19.1l-1.1-1.7
		c0,0,10.7-10.1,1.7-20.7C-546.1,155.9-548.2,155.4-550.6,155.4L-550.6,155.4z M-502,159.9c-2.1,0.1-5.3,0.9-10,2.8
		c0,0-8.4-5-14.5,9.5c0,0-14,0.5-11.8,16.8c0,0,22.4-20.7,31.9-24.1c9.5-3.4,3.4,1.7,3.4,1.7h-0.1l-0.1,0.1l-0.1,0.1l-0.2,0.1
		l-0.3,0.1l-0.3,0.2l-0.3,0.3l-0.4,0.2l-0.4,0.3l-0.5,0.3l-1.1,0.7l-1.2,0.9l-1.3,1l-1.5,1.1l-1.5,1.3l-1.7,1.3l-1.7,1.5l-1.8,1.5
		l-1.8,1.7l-1.9,1.7l-1.9,1.9l-1.8,1.9l-1.9,2l-1.9,2.1l-1.7,2.2l-1.8,2.3l-1.7,2.4l-1.5,2.5l-1.5,2.5l-1.3,2.6l-1.3,2.7l-1.1,2.7
		l-0.9,2.8l-0.8,2.9l-0.7,2.9l-0.2,1.5l-0.2,1.5l-0.1,1.5l-0.1,1.5c0,0,35.9-21.3,16.8-26.4c0,0,30.3-7.8,15.7-16.2
		C-510.9,180.6-490.5,159.4-502,159.9L-502,159.9z M-615.6,176.1c-5.1,3.4,2.8,19.1,2.8,19.1c-11.2,9,5,9.5,5,9.5
		c-7.8,5.6,0,5.6,2.3,5.6c1.7,0,8.9,6.9,12.3,10.1c-11.5-12-20.7-36.4-20.7-36.4s0.9-3.3,1.1-2.8l1.1,2.1l1.1,2l1.1,1.9l1.1,1.9
		l1.1,1.8l1.1,1.8l1,1.7l1,1.7l1,1.6l1,1.6l0.9,1.5l0.9,1.5l0.9,1.4l0.9,1.4l0.9,1.3l0.9,1.3l0.9,1.3l0.8,1.1l0.9,1.1l0.8,1.1
		l0.8,1.1l0.8,1l1.5,1.9l1.5,1.7l1.3,1.6l1.3,1.4l1.2,1.3l1.2,1.2l1.1,1l1,0.9l0.9,0.8l0.9,0.7l0.8,0.6l0.7,0.5l0.7,0.4l0.5,0.3
		l0.5,0.3l0.4,0.2l0.3,0.1l0.3,0.1l0.1,0.1l0.1,0.1h0.1c-11.1-30.3-14.3-26.7-15-25.1c2.8-7.9-4.6-7.4-4.6-7.4
		c7.8-3.9,3.3-11.7,3.3-11.7c-2.3-5.6-10.7,1.7-10.7,1.7C-603.3,176.7-615.6,176.1-615.6,176.1L-615.6,176.1z M-593.3,220.4
		c0.6,0.6,1.2,1.2,1.7,1.7C-591.5,222.1-592.3,221.3-593.3,220.4z M-336.9,179.5l-0.2,0.1l-0.2,0.1l-0.2,0.1l-0.2,0.1l-0.2,0.1
		l-0.2,0.1l-0.1,0.1l-0.2,0.1l-0.2,0.1l-0.1,0.1l-0.2,0.2l-0.1,0.1l-0.3,0.3l-0.3,0.4l-0.3,0.3l-0.3,0.5l-0.3,0.4l-0.3,0.5l-0.3,0.5
		l-0.3,0.4l-0.2,0.5l-0.3,0.5l-0.2,0.5l-0.1,0.5l-0.2,0.4l-0.1,0.4l-0.2,0.4l-0.1,0.3l-0.1,0.3l-0.1,0.2l-0.1,0.1l-0.1,0.1v0.1
		l-0.1,0.1v0.1l-0.1,0.1v0.1l-0.1,0.1v0.1v0.1v0.1v5.1l5-5.6l1.7,1.7l-3.9,6.7c3.3,1.1,1.7,10.7,1.7,10.7l8.4-7.8h-3.9l1.7-5.6
		c2.3-8.5,1.1-14.1-3.3-14.6h-0.2h-0.2h-0.2L-336.9,179.5L-336.9,179.5z M-355.6,185.1l-0.3,0.1h-0.3l-0.3,0.1l-0.3,0.1l-0.3,0.1
		l-0.3,0.1l-0.3,0.2l-0.3,0.3l-0.3,0.3l-0.3,0.3l-0.3,0.3l-0.3,0.4l-0.2,0.2l-0.2,0.2l-0.1,0.2l-0.2,0.3l-0.1,0.3l-0.2,0.3l-0.2,0.3
		l-0.1,0.3l-0.2,0.3l-0.2,0.3l-0.1,0.3l-0.2,0.3l-0.2,0.3l-0.2,0.3c0,0-2.7,2.9,0,9.5c0,0-16.2-6.7-12.3,13.5
		c0,0,11.2,8.4,12.9,10.1c0,0,4.5-20.2,3.9-27.5h2.2c0,0,2.3,25.8-6.1,47.7c0,0,21.3-19.6,10.6-27.5c0,0,15.1-16.8,1.7-16.8l0.5-6.1
		V194v-0.1l-0.1-0.1v-0.1l-0.1-0.1l-0.1-0.1l-0.1-0.2l-0.1-0.1l-0.1-0.2l-0.1-0.2l-0.1-0.3l-0.1-0.2l-0.1-0.3l-0.1-0.3l-0.1-0.3
		l-0.1-0.3l-0.1-0.3l-0.3-0.6l-0.3-0.6l-0.3-0.6l-0.3-0.5l-0.4-0.6l-0.2-0.3l-0.2-0.3l-0.2-0.3l-0.3-0.3l-0.2-0.2l-0.2-0.3l-0.3-0.2
		l-0.3-0.2l-0.2-0.1l-0.3-0.2l-0.3-0.1l-0.3-0.1l-0.3-0.1l-0.3-0.1l-0.3-0.1h-0.3L-355.6,185.1L-355.6,185.1z M-422.5,186.6
		c-1,0.1-1.9,0.8-2.7,2.4c0,0-3.4,3.3,0,11.2c0,0-5.6-1.1-2.8,8.4c0,0-16.3-2.3-4.5,15.7c0,0,2.2,3.9,5.6,7.3
		c0,0-14.6,5.6,11.7,26.3v-0.1v-0.1l0.1-0.2v-0.2V257v-0.3v-0.4v-0.4v-0.5l0.1-1v-1.2v-1.3v-1.5v-1.6V247v-1.8l-0.1-1.9l-0.1-2
		l-0.1-2.1l-0.1-2.1l-0.1-2.3l-0.1-2.3l-0.2-2.3l-0.2-2.4l-0.6-4.8l-0.3-2.4l-0.4-2.4l-0.4-2.4l-0.5-2.3l-0.5-2.4l-0.5-2.3l-0.6-2.3
		l-0.7-2.1l-0.7-2.1l-0.7-2.1h2.3c0,0,18.1,28.4,7.3,75c0,0,23-37.5,8.4-34.1c0,0,17.9-32.5-2.2-20.2c0,0,7.3-26.3-3.9-17.3
		C-410,203.6-417.3,186-422.5,186.6L-422.5,186.6z M-630,200c-1.1-0.1-2.1,0.4-2.9,1.8c0,0-12.3,0-4.5,10.7c0,0-3.9,7.9,9.5,3.9
		c0,0,1.1,0.5,1.1,0l-9.5-6.7l1.7-2.3l0.1,0.1l0.1,0.1l0.1,0.1l0.2,0.1l0.2,0.2l0.2,0.2l0.3,0.2l0.3,0.2l0.3,0.3l0.3,0.3l0.4,0.3
		l0.5,0.3l0.5,0.3l0.5,0.3l0.5,0.3l0.6,0.3l0.6,0.3l0.6,0.3l0.7,0.3l0.7,0.3l0.7,0.3l0.7,0.3l0.8,0.3l0.8,0.2l0.9,0.3l0.9,0.2
		l0.9,0.1l0.9,0.2l1,0.1l1,0.1l1,0.1c0,0-1.7-11.7-6.1-8.9C-623.4,205.3-626.9,200.2-630,200L-630,200z M-325.5,200.5
		c-7-0.2-9,15.3-9,15.3c-13.5-14-11.2,20.2-11.2,20.2l-0.2-0.1l-0.3-0.1l-0.4-0.2l-0.5-0.2l-0.4-0.1l-0.3-0.1l-0.3-0.1h-0.3
		l-0.3-0.1h-0.3l-0.3,0.1l-0.3,0.1l-0.2,0.1l-0.3,0.1l-0.2,0.1l-0.2,0.1l-0.1,0.2l-0.2,0.2l-0.1,0.2l-0.1,0.3l-0.1,0.2l-0.1,0.3
		l-0.1,0.3l-0.1,0.3l-0.1,0.3v0.3l-0.1,0.3l-0.1,0.3v0.3v0.3v0.4v0.7v0.8l0.1,0.7l0.1,0.8l0.1,0.8l0.1,0.7l0.1,0.7l0.1,0.7l0.1,0.3
		l0.1,0.3l0.1,0.3l0.1,0.3l0.1,0.3l0.1,0.3l0.1,0.3l0.1,0.2l0.1,0.3l0.1,0.2v0.1l0.1,0.2l0.1,0.1v0.1v0.1l0.1,0.1v0.1l3.9,4.5
		c9.5-32.5,31.3-49.8,31.3-49.8l2.3,2.2c-14.3,6.4-26.3,39.8-28,43.2c-1.7,3.3,2.8,14.5,2.8,14.5c16.2-7.3,8.9-16.8,8.9-16.8
		c21.3-5.1,10.1-17.9,10.1-17.9c19-1.1,8.9-16.8,8.9-16.8c6.2-18.5-11.2-10.1-11.2-10.1C-322.7,201.2-324.2,200.6-325.5,200.5
		L-325.5,200.5z M-494.5,202.1c-3,0-8.5,1.4-8.5,1.4c-19.6,2.7-29.7,43.7-29.7,43.7l-1.7,1.1l-0.2-1.3l-0.1-1.3l-0.1-1.3v-1.3v-1.3
		l0.1-1.3l0.1-1.3l0.2-1.2l0.2-1.3l0.2-1.2l0.3-1.1l0.3-1.1l0.3-1.1l0.3-1.1l0.3-1.1l0.4-1l0.3-1l0.4-0.9l0.4-0.9l0.3-0.9l0.3-0.7
		l0.4-0.7l0.3-0.7l0.3-0.6l0.3-0.5l0.3-0.5l0.2-0.4l0.2-0.3l0.2-0.3v-0.1l0.1-0.1l0.1-0.1v0c-19.5,12.2-8.9,16.7-8.9,16.7
		c-7.3,6.7,1.1,17.3,1.1,17.3c5.6,8.4,7.9-10.7,7.9-10.7c5.6,10.1,12.9-15.7,12.9-15.7c6.7,16.3,12.9-11.7,12.9-11.7
		c6.1,18.5,10.6-12.9,8.9-14C-493.3,202.2-493.8,202.2-494.5,202.1L-494.5,202.1z M-527.7,220.4
		C-527.7,220.4-527.7,220.4-527.7,220.4L-527.7,220.4L-527.7,220.4z M-388.5,212.1c-1.8,0-3.9,0.6-4.2,3.8c0,0-2.2,7.9,2.8,7.9
		c0,0-11.7,12.3,0,19c0,0-7.3,5.7,2.3,10.7c0,0,8.4-7.3,2.3-35.3l2.2,0.5l0.1,0.1v0.1l0.1,0.1v0.1l0.1,0.1l0.1,0.2l0.1,0.2l0.1,0.2
		l0.1,0.3l0.2,0.6l0.3,0.7l0.2,0.8l0.3,0.8l0.3,0.9l0.3,1l0.3,1.1l0.3,1.1l0.3,1.2l0.3,1.2l0.2,1.3l0.3,1.3l0.2,1.3l0.1,1.3l0.2,1.4
		l0.1,1.4l0.1,1.4v1.4v1.4l-0.1,1.4l-0.2,1.4l-0.2,1.4l-0.3,1.3l-0.3,1.3l-0.4,1.3l-0.5,1.3l-0.6,1.2c0,0,17.4-10.1,10.1-16.7
		c0,0,8.9-10.7-14.6-23C-386,212.5-387.2,212.1-388.5,212.1L-388.5,212.1z M-615.9,216.8c-1.8,0-4.7,1.1-4.7,8.1
		c0,0-12.9-10.1-14.5,5.1c0,0-11.8-3.9-10.1,7.3c0,0-15.7,6-2.8,14c0,0,7.9,1.7,11.8-3.4c0,0,8.4,10.1,19-6.1c0,0,10.7,7.9,18.5,1.1
		c0,0,3.3-3.3,8.9-7.2v-0.1h-0.1h-0.1h-0.1h-0.2h-0.3h-0.6h-0.8l-0.9,0.1h-1.1h-1.2l-1.4,0.1l-1.5,0.1l-1.5,0.1l-1.7,0.1l-1.8,0.1
		l-1.9,0.1l-2,0.1l-2.1,0.2l-2.1,0.2l-2.2,0.3l-2.3,0.3l-2.3,0.3l-2.3,0.3l-2.3,0.3l-2.4,0.5l-2.4,0.5l-2.5,0.5l-2.4,0.5l-2.4,0.6
		l-2.4,0.7l-2.4,0.7l-2.3,0.7l-2.3,0.8l-2.3,0.9v-3.9c0,0,26.9-9.5,39.7-8.4c0,0-0.5-14.6-7.9-15.1
		C-614.5,217-615.1,216.8-615.9,216.8L-615.9,216.8z M-478.3,217.5c-7.5,0.2-16.3,13.5-16.3,13.5c12.3-3.3,25.2,2.3,25.2,2.3
		l-2.2,1.8l-0.3-0.1l-1.9-0.5l-1.9-0.3l-1.7-0.3l-1.7-0.2l-1.7-0.1l-1.6-0.1l-1.5,0.1l-1.5,0.1l-1.4,0.2l-1.4,0.3l-1.3,0.3l-1.3,0.4
		l-1.3,0.5l-1.2,0.5l-1.1,0.6l-1.1,0.6l-1.1,0.7l-1,0.7l-1,0.7l-0.9,0.8l-0.9,0.8l-0.8,0.9l-0.8,0.9l-0.8,0.9l-0.7,0.9l-0.7,1
		l-0.7,1l-1.2,2.1l-1.1,2.1l-0.9,2.2l-0.8,2.2l-0.7,2.1l-0.6,2.2l-0.5,2.1l-0.5,2l-0.3,1.9l-0.3,1.9l-0.2,1.7l-0.1,0.8l-0.1,0.7
		l-0.1,0.7v0.6l-0.1,0.7l-0.1,0.5v0.5l-0.1,0.5v0.4v0.3v0.3v0.2v0.1v0.1h0c2.2-10.1,5.6-11.2,5.6-11.2
		c27.5-15.7,17.9-20.2,17.9-20.2c16.8,8.4,16.3-1.7,16.3-1.7c12.3,10.1,11.7,1.1,11.7,1.1c13.5-0.6,2.2-7.3,2.2-7.3
		c1.7-11.2-14.5-8.4-14.5-8.4c2.3-2.8,1.7-5.1,1.7-5.1C-473.5,218.8-475.8,217.4-478.3,217.5L-478.3,217.5z M-290.1,230.1
		c-2.3,0.1-5.2,1.5-5.2,1.5c-1.7,1.7-11.2-1.1-15.7,1.1l-0.2,0.1l-0.2,0.1l-0.1,0.1l-0.2,0.1l-0.1,0.1l-0.2,0.1l-0.1,0.2l-0.1,0.1
		l-0.1,0.1l-0.1,0.1l-0.1,0.2l-0.1,0.1l-0.1,0.2l-0.1,0.1l-0.1,0.2v0.1l-0.1,0.2l-0.1,0.2v0.2l-0.1,0.1v0.2v0.2v0.4v0.3l0.1,0.4
		l0.1,0.4l0.1,0.3l0.1,0.4l0.1,0.3l0.1,0.3l0.1,0.3l0.1,0.3l0.1,0.3l0.1,0.3l0.1,0.2l0.1,0.3l0.1,0.1l0.1,0.1v0.1l0.1,0.1l0.1,0.1
		v0.1l0.1,0.1v0.1l0.1,0.1v0.1l0.1,0.1c0.5-3.4,13.5-6.7,13.5-6.7l2.2,1.7c-7.8,0.6-20.7,19.1-20.7,19.1c12.3-2.8,20.7-3.9,20.7-3.9
		c0.5-6.7,4.5-9.5,4.5-9.5C-285.1,232.1-287.1,230-290.1,230.1L-290.1,230.1z M-583.6,237.6c-1.9,0.1-4.2,1.6-6.8,5.1
		c0,0-6.7,10.1-1.7,16.3c5,6.2,13.4,14,16.8,15.7c3.3,1.7,3.9-1.1,7.8-1.1h0h0.1h0.1h0.1h0.2h0.2h0.3l0.2,0.1h0.3h0.3h0.3h0.7
		l0.7,0.1h0.9l0.9,0.1h0.9l1,0.1h1h1l1.1,0.1h2.1h2.2h1.1h1.1h1h1l1-0.1l0.9-0.1h0.9l0.8-0.1l0.8-0.1l0.7-0.1l0.3-0.1l0.3-0.1h0.3
		l0.3-0.1l0.2-0.1l0.3-0.1l0.1-0.1l0.2-0.1c0,0-6.7-11.7-17.9-10.1c0,0,4.9-19.2-14-8.9C-573.6,254-576.7,237.2-583.6,237.6
		L-583.6,237.6z M-659.5,242.6c-0.8,0-1.6,0.2-2.6,0.8c-8.5,5,28.3,23.3,22.9,18.9c0.6-2.3-4.5-4.6-6.1-5.5
		c-9.5-5.5-11.3-11-14.9-13.1h0.1l0.1-0.1h0.1h0.1h0.1h0.1h0.1h0.1l0.1,0.1h0.1l0.1,0.1h0.1l0.1,0.1l0.1,0.1h0.1l0.1,0.1l0.1,0.1
		l0.1,0.1l0.1,0.1l0.1,0.1l0.2,0.1l0.1,0.1l0.2,0.1l0.1,0.2l0.1,0.1l0.1,0.1l0.1,0.1l0.1,0.1c1.3,0.8,2-0.3,1.4-0.7
		C-657,243.4-658.2,242.6-659.5,242.6L-659.5,242.6z M-616.6,246.3c-1.6-0.1-3.5,0.9-5.2,4.3c0,0-16.8,4.5-6.7,23.5
		c0,0-10.1,10.1,1.1,23.5c0,0,4.3,9.5,6.6,19.3l-0.1-0.3l-0.1-0.3l-0.1-0.5l-0.1-0.5l-0.1-0.5l-0.1-0.7l-0.1-0.6l-0.1-0.7l-0.3-1.6
		l-0.3-1.7l-0.3-1.9l-0.3-2.1l-0.3-2.2l-0.3-2.4l-0.3-2.5l-0.2-2.6l-0.2-2.7l-0.1-2.7l-0.1-2.7v-2.9l0.1-2.8l0.2-2.9l0.3-2.9
		l0.4-2.9l0.5-2.7l0.7-2.8l0.7-2.7l0.9-2.6l1-2.5l0.6-1.3l0.6-1.1l0.7-1.2l0.7-1.1l0.7-1.1l0.8-1l0.9-1.1l0.9-0.9l0.9-0.9l1-0.9
		C-611.6,249.5-613.8,246.4-616.6,246.3L-616.6,246.3z M-608.3,251.7l-0.8,0.8l-0.8,0.8l-0.7,0.8l-0.7,0.9l-0.7,0.9l-0.6,1l-0.7,1
		l-0.5,1l-1.1,2.1l-0.9,2.3l-0.8,2.4l-0.7,2.5l-0.5,2.5l-0.5,2.6l-0.4,2.6l-0.3,2.6l-0.2,2.7l-0.2,2.7l-0.1,2.6v2.6v2.5l0.1,2.5
		l0.1,2.5l0.1,2.3l0.2,2.2l0.1,2.1l0.2,2l0.3,1.8l0.2,1.7l0.2,1.5l0.1,0.7l0.1,0.6l0.1,0.6l0.1,0.5l0.1,0.5l0.1,0.4l0.1,0.3l0.1,0.3
		v0.3l0.1,0.1v0.1c19.1-23.5,7.9-25.7,7.9-25.7c14.6-7.9,2.3-19.1,2.3-19.1C-599.4,252.8-608.3,251.7-608.3,251.7L-608.3,251.7z
		 M-365.9,252.3c-2.8,0-6.4,2.4-11.1,9.5c-0.3,0.5-1.7,0.6-1.7,0.6s-9.5-14.6-19.1,9.5h0l0.1-0.1l0.2-0.1l0.3-0.2l0.4-0.3l0.5-0.3
		l0.6-0.3l0.7-0.5l0.8-0.5l0.9-0.5l1-0.5l1.1-0.5l1.2-0.5l1.3-0.5l1.5-0.5l1.5-0.5l1.6-0.5l1.7-0.5l1.9-0.5l1.9-0.4l2-0.4l2.1-0.3
		l2.2-0.3l2.3-0.2l2.3-0.1h2.5l2.6,0.1l2.7,0.1l2.7,0.3l2.9,0.4l2.9,0.5l1.5,0.3l1.5,0.3l1.5,0.3l1.6,0.4c0,0-3.9-10.6-13.5-5
		C-358.5,260.7-360.6,252.3-365.9,252.3L-365.9,252.3z M-661.3,255.4c-1.7-0.1-3.8,1.1-6.4,4.2l0.1,0.1l0.1,0.1l0.1,0.2l0.1,0.3
		l0.2,0.3l0.1,0.3l0.3,0.3l0.2,0.4l0.3,0.5l0.6,1l0.7,1.2l0.8,1.3l0.8,1.5l0.9,1.5l1.1,1.7l1.1,1.8l1.1,1.9l1.3,1.9l1.3,2l1.3,2
		l1.4,2.1l1.4,2.1l1.5,2.1l1.5,2.1l3.1,4.3l1.6,2.1l1.7,2.1l1.7,2.1l1.7,1.9l1.7,1.9l1.7,1.9l1.7,1.7l1.7,1.7l1.7,1.5l1.7,1.5
		c0,0-0.5-25.1-7.9-14.5c0,0,4.5-29.2-6.7-20.2c0,0,0.5-25.5-10.1-10.1C-654.2,266.3-656.1,255.6-661.3,255.4L-661.3,255.4z
		 M-296.6,256.8c-4.7-0.2-12.7,4.4-12.7,4.4c-5-10.7-14,9.5-14,9.5c27.5-6.7,40.3,1.7,40.3,1.7l-0.5,2.8l-0.9-0.5l-0.9-0.5l-0.9-0.5
		l-0.9-0.5l-1-0.4l-0.9-0.3l-2.1-0.6l-2.1-0.5l-2.1-0.3l-2.2-0.3l-2.3-0.1l-2.2-0.1l-2.3,0.1l-2.3,0.1l-2.3,0.3l-2.3,0.3l-2.2,0.4
		l-2.2,0.4l-2.1,0.5l-2.1,0.5l-2,0.5l-2,0.6l-1.9,0.5l-1.7,0.6l-1.7,0.5l-1.6,0.6l-1.4,0.5l-1.3,0.5l-1.1,0.5l-0.5,0.2l-0.5,0.2
		l-0.5,0.2l-0.4,0.2l-0.3,0.1l-0.3,0.1l-0.3,0.1l-0.2,0.1l-0.2,0.1h-0.1l-0.1,0.1l0,0c26.3,13.5,26.3,1.1,26.3,1.1
		c12.3,5.1,24.1,1.1,24.1,1.1c-3.3,9,14.6,3.9,14.6,3.9c5.6-0.6-8.5-16.3-8.5-16.3c6.7-8.4-12.3-7.3-12.3-7.3
		C-292.6,258.3-294.1,256.9-296.6,256.8L-296.6,256.8z M-441.7,257c-3.9,0.1-8.6,6.5-8.6,6.5c-6.2-14.5-20.7,6.2-20.7,6.2
		c-21.3,0-5.6,23.5-5.6,23.5l-0.8,0.1l-0.7,0.1l-0.7,0.1l-0.6,0.2l-0.5,0.2l-0.5,0.2l-0.5,0.3l-0.4,0.3l-0.3,0.3l-0.3,0.3l-0.3,0.3
		l-0.2,0.3l-0.2,0.4l-0.1,0.3l-0.1,0.4l-0.1,0.4v0.5v0.4l0.1,0.5v0.5l0.1,0.5l0.1,0.5l0.1,0.5l0.2,0.5l0.1,0.5l0.3,0.5l0.2,0.5
		l0.3,0.5l0.3,0.5l0.3,0.5l0.6,1.1l0.7,1l0.7,1.1l0.7,1l0.8,0.9l0.7,0.9l0.7,0.9l0.7,0.9l0.4,0.4l0.3,0.3l0.3,0.4l0.3,0.3l0.3,0.3
		l0.3,0.3l0.3,0.3l0.3,0.3l0.2,0.2l0.3,0.3l0.2,0.2l0.2,0.2l0.1,0.1l0.1,0.1l0.1,0.1l0.1,0.1l0.1,0.1l0.5-3.4
		c-8.4-9.5,0-20.7,0-20.7c2.3-21.3,33.1-30.3,33.1-30.3C-438.4,258.1-440,256.9-441.7,257L-441.7,257z M-673.3,259.6
		c-10.5,12.6,4.5,17.9,4.5,17.9c-12.3,2.2,6.7,23.5,6.7,23.5c9.4-6.6,18.6,2.5,21.5,5.6l-0.3-0.4l-1.3-1.5l-1.3-1.6l-1.3-1.7
		l-1.4-1.8l-1.4-1.8l-1.4-1.9l-1.5-1.9l-2.8-3.9l-2.8-4l-2.7-4l-1.3-2l-1.3-1.9l-1.3-1.9l-1.2-1.9l-1.1-1.7l-1.1-1.7l-1-1.7l-1-1.5
		l-0.9-1.4l-0.9-1.3l-0.7-1.2l-0.7-1.1l-0.5-0.9l-0.3-0.4l-0.3-0.4l-0.2-0.3l-0.1-0.3l-0.2-0.2l-0.1-0.2l-0.1-0.2L-673.3,259.6
		L-673.3,259.6L-673.3,259.6L-673.3,259.6z M-640.6,306.7l0.9,1.1C-639.7,307.8-640.1,307.3-640.6,306.7z M-436.4,264.6l-1.2,0.3
		l-1.2,0.3l-1.3,0.4l-1.1,0.5l-1.2,0.5l-1.2,0.5l-1.1,0.6l-1.1,0.6l-1.1,0.7l-1.1,0.7l-1.1,0.7l-1.1,0.7l-1,0.7l-1,0.7l-0.9,0.7
		l-0.9,0.7l-0.9,0.7l-0.9,0.7l-0.8,0.7l-0.8,0.7l-0.7,0.6l-0.7,0.7l-0.6,0.5l-0.6,0.5l-0.5,0.5l-0.5,0.5l-0.4,0.4l-0.3,0.3l-0.1,0.2
		l-0.1,0.1l-0.1,0.1l-0.1,0.1l-0.1,0.1v0.1h-0.1v0.1l0,0l-3.9,8.9c6.7,0.6,10.7-6.7,10.7-6.7c0-11.2,10.1-7.3,10.1-7.3
		c3.4,4.5,11.2-0.5,11.2-0.5L-436.4,264.6L-436.4,264.6z M-365.5,267.3l-1.9,0.1l-1.8,0.1l-1.8,0.1l-1.8,0.1l-3.4,0.5l-3.2,0.5
		l-3.1,0.7l-2.9,0.8l-2.7,0.9l-2.5,1l-2.5,1l-2.3,1.1l-2.1,1.1l-1.9,1.1l-1.8,1.2l-1.7,1.1l-1.5,1.1l-1.4,1.1l-1.3,1.1l-1.1,1
		l-1,0.9l-0.8,0.9l-0.7,0.8l-0.5,0.7l-0.5,0.5l-0.3,0.4l-0.2,0.3l-0.1,0.1c31.4-1.7,21.3-6.7,21.3-6.7c25.7,10.1,24.1-0.5,24.1-0.5
		c20.1,5.6,16.8-2.8,16.8-2.8c17.9,1.1,10.7-6.7,10.7-6.7l-2.5-0.6l-2.3-0.5l-2.3-0.5l-2.3-0.5l-2.3-0.3l-2.2-0.3l-2.1-0.2l-2.1-0.2
		l-2.1-0.1l-2-0.1l-2-0.1L-365.5,267.3L-365.5,267.3z M-435,280.1c-2-0.1-4.2,2.4-4.2,2.4c-12.9-7.8-16.3,7.9-16.3,7.9
		c-10.1,0.6-9.5,11.8-9.5,11.8c6.1-10.7,27.5-14.1,27.5-14.1v3.4l-1,0.1l-0.9,0.1l-1,0.1l-0.9,0.1l-0.9,0.1l-0.9,0.2l-0.9,0.2
		l-0.9,0.3l-1.7,0.5l-1.6,0.6l-1.5,0.7l-1.4,0.7l-1.4,0.7l-1.3,0.8l-1.3,0.9l-1.1,0.9l-1.1,0.9l-1.1,0.9l-1,0.9l-0.9,0.9l-0.8,0.9
		l-0.8,0.9l-0.8,0.9l-0.7,0.9l-0.6,0.9l-0.5,0.8l-0.5,0.7l-0.5,0.7l-0.4,0.6l-0.3,0.6l-0.3,0.5l-0.2,0.4l-0.2,0.3l-0.1,0.2l-0.1,0.1
		l-0.1,0.1v0.1v0c26.3,5.6,30.3-12.3,30.3-12.3c4.5-7.8,2.7-19,2.7-19C-434.4,280.2-434.7,280.1-435,280.1L-435,280.1z
		 M-527.2,281.4c-7-0.3-12.8,9.6-12.8,9.6c-12.3-13.5-14.5,14.5-14.5,14.5c-11.2,2.3,2.2,22.4,2.2,22.4
		c2.3-50.4,39.3-33.6,39.3-33.6l-1.6-0.3l-1.5-0.2l-1.5-0.2l-1.4-0.1h-1.3l-1.3,0.1l-1.3,0.1l-1.2,0.2l-1.2,0.2l-1.1,0.3l-1.1,0.3
		l-1.1,0.4l-1,0.4l-0.9,0.5l-0.9,0.5l-0.9,0.5l-0.9,0.6l-0.8,0.6l-0.8,0.7l-0.7,0.7l-0.7,0.7l-0.7,0.7l-0.6,0.8l-0.6,0.8l-0.6,0.8
		l-0.5,0.9l-1,1.7l-0.9,1.7l-0.8,1.9l-0.7,1.8l-0.6,1.9l-0.5,1.9l-0.5,1.8l-0.3,1.7l-0.3,1.7l-0.3,1.7l-0.2,1.5l-0.1,1.4v0.7
		l-0.1,0.6l-0.1,0.6v0.5v0.5l-0.1,0.5v0.4v0.4v0.3v0.3v0.2v0.2v0.1c17.9-6.7,10.1-13.4,10.1-13.4c25.8-2.3,12.3-12.3,12.3-12.3
		c20.2,2.3,22.4-5.6,22.4-5.6c2.3-12.3-17.9-11.2-17.9-11.2C-521.5,283.2-524.4,281.5-527.2,281.4L-527.2,281.4z M-353.3,284.3
		c-3.1-0.4,0.9,11.2,0.9,11.2c-19.6,6.1,7.9,21.8,7.9,21.8c-15.1,0.6,6.1,16.3,6.1,16.3l0.2-0.5l0.1-0.5l0.1-0.6l0.1-0.6l0.1-0.6
		V330v-0.7v-0.7l-0.1-1.5l-0.2-1.7l-0.3-1.7l-0.3-1.8l-0.4-1.9l-0.5-1.9l-0.5-1.9l-0.5-2l-0.6-2.1l-0.7-2l-1.3-4.1l-0.7-1.9l-0.7-2
		l-0.7-1.9l-0.7-1.8l-0.6-1.7l-0.7-1.7l-0.6-1.5l-0.6-1.5l-0.5-1.3l-0.3-0.6l-0.3-0.5l-0.2-0.5l-0.2-0.5l-0.2-0.5l-0.1-0.4l-0.2-0.3
		l-0.1-0.3l-0.1-0.3l-0.1-0.3l-0.1-0.2l-0.1-0.1l-0.1-0.1v0C-351.9,284.8-352.7,284.4-353.3,284.3L-353.3,284.3z M-348.5,284.8
		L-348.5,284.8c0,0.2,0.2,0.5,0.5,0.8l-0.1-0.2l-0.1-0.2l-0.1-0.2L-348.5,284.8L-348.5,284.8L-348.5,284.8L-348.5,284.8z
		 M-347.9,285.5L-347.9,285.5l0.4,0.7l0.5,0.8l0.5,0.9l0.6,1.1l0.7,1.3l0.7,1.4l0.7,1.5l0.8,1.7l0.9,1.8l0.9,1.9l0.9,2l0.9,2.1
		l0.8,2.3l0.9,2.3l0.8,2.4l0.7,2.5l0.7,2.6l0.7,2.7l0.6,2.7l0.5,2.7l0.5,2.9l0.3,2.9l0.3,2.9l0.1,2.9v3l-0.1,3l-0.2,3l-0.4,3.1
		l-0.5,3.1c0,0,15.7-19.1,8.9-24.1c-0.6-0.5-1-0.7-1.5-1c0.7-3.8,2.8-17.4-6.4-17.4c0,0,4.5-22.4-4.5-16.2
		C-337.3,291-345.7,287.5-347.9,285.5L-347.9,285.5z M-298.9,285.9c-7.5,0.2-15.4,7.8-15.4,7.8c-2.3-4.5-6.2-3.3-6.2-3.3
		c-16.3,6.2-0.5,21.3-0.5,21.3c-6.7,9.5,4.5,14,4.5,14c3.9-6.1,13.5-32.5,13.5-32.5h3.3c0.6,13.5-21.9,53.2-21.9,53.2l1.7,6.7
		c0-2.3,3.9-11.7,3.9-11.7c14.6-11.8,10.1-14.6,10.1-14.6c11.2-9.5,2.3-12.3,2.3-12.3l8.9-7.3c10.1-8.4,2.2-11.2,2.2-11.2l0.1-0.5
		V295v-0.5v-0.5v-0.4v-0.4V293v-0.4v-0.3v-0.3v-0.3v-0.3V291l0.1-0.2v-0.3v-0.2v-0.3v-0.2v-0.2v-0.1l0.1-0.2v-0.1v-0.1V289v-0.1
		v-0.1l0.1-0.1v-0.1v-0.1v-0.1v0C-294.2,286.5-296.6,285.9-298.9,285.9L-298.9,285.9z M-292.2,288.4c0.1,0.1,0.2,0.2,0.3,0.3v-0.1
		h-0.1v-0.1v-0.1v-0.1v-0.1h-0.1v-0.1v-0.1h-0.1v-0.1l-0.1,0.1L-292.2,288.4L-292.2,288.4L-292.2,288.4L-292.2,288.4L-292.2,288.4z
		 M-390.4,289.8l-12.3,5.6l-0.1,0.1l-0.1,0.2l-0.1,0.3l-0.2,0.5l-0.3,0.6l-0.3,0.7l-0.3,0.9l-0.4,0.9l-0.3,1.1l-0.3,1.1l-0.4,1.3
		l-0.4,1.4l-0.3,1.5l-0.3,1.5l-0.3,1.7l-0.3,1.7l-0.2,1.8l-0.2,1.9l-0.1,1.9l-0.1,2v2.1l0.1,2.1l0.1,2.2l0.3,2.3l0.3,2.3l0.5,2.3
		l0.5,2.3l0.7,2.4l0.7,2.5l0.9,2.5l1,2.5l1.2,2.5c0.5,1.1,1.7,1.1,1.7,1.1s19.1-37.5,5.1-34.2C-394.9,313.3-369.7,293.2-390.4,289.8
		L-390.4,289.8z M-270.6,290.2c-8.1-0.6-18.4,18.6-18.4,18.6c-8.4-2.8-7.3,15.1-7.3,15.1c-5.6,1.7-4.5,17.9,2.8,11.8
		c7.3-6.2,20.1-25.8,20.1-25.8l2.3,1.1c-10.1,33.1-43.7,44.8-42,44.8h0.1h0.1h0.1h0.1h0.1h0.2h0.1h0.2h0.2h0.2h0.3l0.2-0.1h0.5h0.5
		h0.6l0.5-0.1h0.6h0.7l0.6-0.1h0.7l1.3-0.1h0.7l0.6-0.1h0.6h0.6l0.6-0.1h0.5h0.5l0.5-0.1h0.3h0.2h0.2h0.2h0.2h0.1l0.1-0.1h0.2h0.1
		h0.1h0.1h0.1h0.1h0.1c7.3-17.9,20.2-12.9,20.2-12.9c0-2.9,5-7.9,5-7.9c6.7-7.3,0.6-9,0.6-9s8.3-7.3,10.1-12.9
		c1.7-5.6-2.8-18.5-2.8-18.5C-267,291.6-268.8,290.4-270.6,290.2L-270.6,290.2z M-558,291.4c-16.9-0.2-10.6,13.5-10.6,13.5
		c-1.7-0.5-5.1,4.5-5.1,4.5c-9.5,18.5,20.7,27.5,20.7,27.5c-20.2-21.9-6.7-34.7-6.7-34.7l-0.2-0.4l-0.2-0.4l-0.1-0.4l-0.2-0.3
		l-0.1-0.3l-0.1-0.4l-0.1-0.3l-0.1-0.3l-0.1-0.3l-0.1-0.3l-0.1-0.3V298l-0.1-0.3v-0.3v-0.3v-0.3l0.1-0.3v-0.2l0.1-0.3l0.1-0.2
		l0.1-0.3l0.1-0.2l0.1-0.2l0.1-0.2l0.1-0.2l0.1-0.2l0.1-0.2l0.1-0.2l0.3-0.3l0.3-0.3l0.3-0.3l0.3-0.3l0.3-0.3l0.3-0.2l0.3-0.2
		l0.3-0.2l0.3-0.1l0.3-0.1l0.3-0.1l0.2-0.1l0.2-0.1h0.1l0.1-0.1h0.1h0.1l0.1-0.1h0.1h0.1C-556.8,291.5-557.4,291.4-558,291.4
		L-558,291.4z M-576.7,291.8c-5.6-0.1-21.9,2.2-38.3,30.4v0.1v0.1l0.1,0.1v0.1l0.1,0.1l0.1,0.1l0.1,0.2l0.1,0.1l0.1,0.2l0.1,0.3
		l0.1,0.2l0.1,0.3l0.1,0.2l0.1,0.3l0.1,0.3l0.3,0.6l0.3,0.5l0.3,0.5l0.4,0.6l0.3,0.5l0.2,0.2l0.2,0.3l0.3,0.3l0.2,0.2l0.2,0.2
		l0.3,0.2l0.2,0.1l0.3,0.2l0.3,0.1l0.3,0.1l0.3,0.1l0.3,0.1l0.3,0.1h0.3h0.3h0.3l0.3-0.1l0.3-0.1l0.3-0.1l0.3-0.1l0.3-0.2l0.3-0.3
		l0.3-0.3l0.3-0.3l0.3-0.3l0.4-0.4l0.1-0.2l0.2-0.3l0.2-0.2l0.1-0.3l0.2-0.3l0.2-0.3l0.2-0.3l0.2-0.3l0.1-0.3l0.2-0.3l0.2-0.3
		l0.2-0.4l0.2-0.3l0.2-0.4l0.2-0.3l0.2-0.5l0.2-0.4l0.2-0.4l0.2-0.5l0.2-0.5l0.2-0.5l0.2-0.5l0.2-0.5l0.3-0.5
		c0,0,16.8,4.5,11.2-17.9c0,0,7.8-9,14.5-9C-574.7,292-575.4,291.9-576.7,291.8L-576.7,291.8z M-416.6,294.8
		c-5.9,0.1-4.1,21.9-4.1,21.9c-13.5,6.1,10.7,17.9,10.7,17.9l-0.6-1.3l-0.5-1.3l-0.5-1.3l-0.4-1.4l-0.3-1.4l-0.3-1.4l-0.3-1.5
		l-0.1-1.5l-0.1-1.5l-0.1-1.5l-0.1-1.5v-1.5v-1.5l0.1-1.5l0.1-1.4l0.1-1.4l0.1-1.4l0.1-1.3l0.1-1.3l0.2-1.2l0.1-1.1l0.1-1.1l0.2-1
		l0.1-0.9l0.2-0.9l0.1-0.7l0.1-0.7l0.1-0.3v-0.3l0.1-0.2l0.1-0.2v-0.2l0.1-0.1v-0.1l0.1-0.1v-0.1
		C-413.5,295.9-415.3,294.8-416.6,294.8L-416.6,294.8z M-574.2,296L-574.2,296C-574.2,296-574.1,296-574.2,296L-574.2,296z
		 M-574.2,296c-5,0.1-8.9,6.7-8.9,6.7c4.5,5.6-3.3,18.5-3.3,18.5l-3.9,1.7c3.3,5.9,18.5,10.1,18.5,10.1
		c-19.6-19.7-1.1-29.1-1.1-29.1l-0.2-0.1l-0.2-0.2l-0.1-0.1l-0.2-0.1l-0.1-0.1l-0.2-0.1l-0.1-0.1l-0.1-0.2l-0.1-0.1l-0.1-0.1
		l-0.1-0.2l-0.1-0.1l-0.1-0.1l-0.1-0.2l-0.1-0.1l-0.1-0.2v-0.1l-0.1-0.1l-0.1-0.2v-0.1l-0.1-0.2v-0.1l-0.1-0.3v-0.3l0.1-0.3v-0.3
		l0.1-0.3l0.1-0.3l0.1-0.3l0.1-0.3l0.1-0.3l0.1-0.3l0.1-0.2l0.1-0.3l0.1-0.2l0.1-0.1l0.1-0.2l0.1-0.1v-0.1l0.1-0.1v-0.1l0.1-0.1
		L-574.2,296L-574.2,296L-574.2,296z M-673.7,300c-2.4-0.1-4.7,1.2-6.3,5.5c0,0-17.3-5.3-17.1,4.5l0.1,0.1l0.1,0.1l0.2,0.1l0.3,0.1
		l0.3,0.1l0.3,0.2l0.5,0.1l0.5,0.2l0.5,0.3l0.6,0.3l0.7,0.3l1.4,0.5l1.5,0.7l1.7,0.7l1.9,0.7l2,0.8l2.1,0.8l2.2,0.9l2.3,0.9l2.4,0.9
		l2.4,0.9l2.5,0.9l2.5,0.9l5.2,1.8l5.1,1.7l2.5,0.8l2.5,0.7l2.5,0.7l2.4,0.6l2.3,0.6l2.2,0.5l2.1,0.4l2.1,0.3l1.9,0.3l1.8,0.1
		c0,0,1.1-13.4-7.9-13.4c0,0-7.9-16.8-21.3-11.2C-664.3,305.5-669.2,300.2-673.7,300L-673.7,300z M-498.1,306.3
		c-0.7,0-1.6,0.1-2.7,0.4c0,0-3.3,7.8-14.5,6.7v0.1h0.1h0.1h0.1h0.1h0.1h0.3l0.4,0.1h0.5l0.5,0.1l0.7,0.1l0.7,0.1l0.8,0.2l0.8,0.1
		l0.9,0.3l0.9,0.3l0.9,0.3l1,0.3l1,0.4l1.1,0.5l1,0.5l1.1,0.6l1.1,0.6l1.1,0.7l1.1,0.7l1.1,0.8l1,0.9l1.1,1l1,1.1l0.5,0.5l0.5,0.6
		l0.5,0.6l0.5,0.7l0.5,0.7l0.5,0.7l0.4,0.7l0.5,0.7l0.4,0.8l0.4,0.7l0.4,0.8l0.3,0.9c7.9,17.9-11.2-21.3-38.1-9
		c0,0,6.7,3.3-6.7,11.2c0,0,25.2,6.3,22.7-1.4c1.6,3.8,9.7,21.2,18.7,9.2c0,0,24.7,6.7,15.7-10.1c0,0,13.5-14.6-20.1-18
		C-497.4,313.3-493.1,306.5-498.1,306.3L-498.1,306.3z M-363.6,307.8l-1.7,3.9v0.1l-0.1,0.1v0.1v0.1l-0.1,0.1l-0.1,0.1v0.1l-0.1,0.1
		l-0.1,0.1l-0.1,0.1l-0.1,0.2l-0.1,0.2l-0.1,0.2l-0.1,0.4l-0.1,0.5l-0.1,0.5l-0.2,0.5l-0.1,0.6l-0.1,0.6l-0.1,0.7l-0.1,0.6l-0.1,0.7
		l-0.1,0.7v0.7v0.7l0.1,0.7l0.1,0.7l0.1,0.3l0.1,0.3l0.1,0.3l0.1,0.3l0.1,0.3l0.1,0.3l0.1,0.3l0.1,0.3l0.2,0.3l0.2,0.3l0.2,0.3
		l0.2,0.3l0.3,0.3l0.3,0.3l0.3,0.2l0.3,0.3l0.3,0.3l0.3,0.2l0.3,0.3l0.3,0.2l0.4,0.2l0.4,0.2l4.5,1.1c0,0-8.4,9.3,8.4,17.3
		c0,0-8.4,6.7,4.5,12.3C-344.5,358.7-341.7,336.3-363.6,307.8L-363.6,307.8z M-697.3,312.2c-5.6,8.9,14,13.4,14,13.4
		c-7.9,10.1,15.7,9,15.7,9c-3.3,14.5,25.8-1.1,25.8-1.1l-2.1-0.5l-2-0.5l-1.9-0.5l-1.9-0.5l-1.9-0.5l-1.8-0.5l-1.8-0.5l-1.7-0.5
		l-3.3-1l-3.1-0.9l-3-0.9l-2.8-0.9l-2.6-0.9l-2.5-0.9l-2.3-0.9l-2.1-0.9l-2.1-0.9l-1.9-0.8l-1.7-0.8l-1.7-0.8l-1.5-0.7l-1.4-0.7
		l-1.3-0.7l-1.1-0.6l-1-0.6l-0.9-0.5l-0.8-0.5l-0.7-0.5l-0.6-0.5l-0.5-0.3l-0.4-0.3l-0.4-0.3l-0.2-0.2l-0.2-0.1L-697.3,312.2
		L-697.3,312.2z M-620.7,317.2v0.1l0.1,0.1C-620.6,317.4-620.7,317.3-620.7,317.2z M-372.5,325.1l-6.2,2.3
		c-7.8,6.1,5.6,12.9,5.6,12.9c-10.1,6.1,9.5,14.5,9.5,14.5c-6.7,2.3,5.6,12.9,5.6,12.9l0.1-1.4l0.1-1.3l0.1-1.3l0.1-1.3V361v-1.3
		l-0.1-1.2l-0.1-1.3l-0.2-2.3l-0.3-2.3l-0.4-2.1l-0.4-2.1l-0.5-2l-0.5-1.9l-0.6-1.8l-0.7-1.7l-0.7-1.6l-0.7-1.5l-0.7-1.4l-0.7-1.4
		l-0.8-1.2l-0.7-1.2l-0.7-1.1l-0.7-1l-0.7-0.9l-0.7-0.9l-0.7-0.7l-0.6-0.7l-0.6-0.6l-0.5-0.5l-0.5-0.5l-0.3-0.3l-0.3-0.3l-0.3-0.2
		L-372.5,325.1L-372.5,325.1L-372.5,325.1L-372.5,325.1z M-442.1,330.4c-3.7,0-6.5,1.9-6.1,7.5c0,0-21.9-1.7-16.3,12.9
		c0,0-17.9,8.5-6.1,18c0,0-3.3,11.1,9,5c0,0,14,6.1,16.8-8.9c0,0,12.9,3.9,16.2-7.9c0,0,0.6,7.9,23-5.1h-0.1l-0.1-0.1l-0.1-0.1
		l-0.1-0.1l-0.2-0.1l-0.3-0.1l-0.3-0.1l-0.3-0.2l-0.8-0.3l-1-0.5l-1.1-0.5l-1.3-0.5l-1.5-0.5l-1.5-0.5l-1.7-0.5l-1.8-0.4l-1.9-0.3
		l-2-0.3l-2.1-0.2l-2.2-0.1h-2.3l-2.3,0.1l-2.3,0.3l-2.5,0.4l-2.5,0.6l-1.3,0.3l-1.3,0.4l-1.3,0.5l-1.3,0.5l-1.3,0.5l-1.3,0.7
		l-1.3,0.6l-1.3,0.7l-1.3,0.8l-1.3,0.9l-1.3,0.9l-1.3,1l-1.3,1l-1.3,1.1l-1.3,1.2l-1.3,1.2l-1.3,1.3l-1.3,1.4l-1.3,1.5l-1.3,1.5
		l-1.3,1.7l-1.3,1.7l-0.5-2.8c0,0,17.3-35.3,52-23c0,0-8.2-19.4-12.9-8.4C-427.4,335.1-436,330.3-442.1,330.4L-442.1,330.4z
		 M-263,334.5c-6.6,0.2-13.8,13.6-13.8,13.6c-12.3-6.2-16.3,7.8-16.3,7.8c21.9,1.1,31.4-7.3,31.4-7.3l10.1-2.3
		c-21.9,20.2-51,14.6-51,14.6s29.1,19.6,28.6,7.3c0,0,24.6-1.1,19-9.5h0.1v-0.1h0.1l0.1-0.1l0.1-0.1l0.1-0.1l0.1-0.1l0.1-0.1
		l0.2-0.2l0.2-0.2l0.3-0.3l0.2-0.3l0.3-0.3l0.3-0.3l0.3-0.3l0.3-0.3l0.3-0.4l0.3-0.3l0.3-0.4l0.3-0.4l0.3-0.4l0.3-0.5l0.3-0.4
		l0.3-0.5l0.3-0.5l0.3-0.5l0.3-0.5l0.2-0.5l0.3-0.5l0.2-0.5l0.2-0.5l0.2-0.5l0.1-0.5l0.1-0.5l2.2-2.9l0.6-4.5
		c-1.1-7.3-12.9-2.8-12.9-2.8C-259.3,335.4-261.1,334.4-263,334.5L-263,334.5z M-670.7,341.5c-1.7,0.1-3.4,1-3.4,1
		c-16.3,1.4-16.3,15.1-16.3,15.1c-10.4,10.3-4.5,15.1-4.5,15.1c3.9,3.1,9.5-4.7,9.5-4.7c9.5,5.3,15.9-2.3,15.9-2.3c7,0,7-5.9,7-5.9
		c0.5-7.3,18.2-14,16.5-14c-1.7,0-2.5,1.1-2.5,1.1c-13.1,4.7-2.5-2.5-2.5-2.5l-7.3,0.8c-14.5,2-34.7,25-34.7,25l0.5-1.1l0.5-1.1
		l0.5-1l0.5-1l1-1.9l1.1-1.7l1.1-1.7l1.1-1.5l1.1-1.5l1.1-1.4l1.1-1.3l1.1-1.2l1.1-1.1l1.1-1.1l1.1-1l1-0.9l1-0.8l0.9-0.7l0.9-0.7
		l0.9-0.7l0.9-0.5l0.8-0.5l0.8-0.5l0.7-0.3l0.7-0.3l0.6-0.3l0.6-0.2l0.5-0.2l0.5-0.2l0.3-0.1l0.3-0.1l0.2-0.1h0.1v-0.1v0
		C-668,341.8-669.4,341.4-670.7,341.5L-670.7,341.5z M-536.7,344.2c-0.5,0-2.7,4.4-2.7,4.4l2-0.7
		C-536.6,345.3-536.4,344.2-536.7,344.2L-536.7,344.2z M-537.4,347.9c-0.3,0.8-0.5,1.7-0.9,2.9c-4.5,13.5,19.1,16.3,19.1,16.3
		c-6.1,7.3,14,22.4,14,22.4c-9.5-10.6-7.8-21.8-7.8-21.8l2.7-0.6c0.6,14,18.5,30.9,18.5,30.9c-2.3-19.7-14.6-30.9-14.6-30.9l0.1-0.7
		l0.1-0.7l0.1-0.7v-0.7v-0.7l-0.1-0.6v-0.6l-0.1-0.5l-0.1-0.5l-0.1-0.5l-0.1-0.5l-0.1-0.5l-0.1-0.5l-0.1-0.5l-0.1-0.4l-0.2-0.5
		l-0.1-0.3l-0.2-0.4l-0.2-0.4l-0.2-0.3l-0.2-0.3l-0.2-0.3l-0.2-0.3l-0.3-0.3l-0.2-0.3l-0.3-0.3l-0.2-0.2l-0.3-0.3l-0.5-0.4l-0.5-0.4
		l-0.5-0.3l-0.5-0.3l-0.5-0.3l-0.5-0.2l-0.5-0.1l-0.5-0.2l-0.4-0.1l-0.5-0.1l-0.3-0.1l-0.4-0.1h-0.3l-0.3-0.1h-0.1h-0.1h-0.1h-0.1
		h-0.1h-0.1c-6.1,0.6-11.7-7.3-11.7-7.3L-537.4,347.9L-537.4,347.9z M-624,345c-1.6,0-3.9,1.6-3.9,1.6
		c-17.9,4.2-44.3,39.8-44.3,39.8c-2.8,0.9-0.9-2.5-0.9-2.5h0.1v-0.1h0.1v-0.1l0.1-0.1l0.1-0.1l0.1-0.1l0.1-0.1l0.1-0.1l0.1-0.1
		l0.1-0.1l0.1-0.2l0.1-0.1l0.1-0.2l0.1-0.2l0.3-0.4l0.3-0.5l0.3-0.5l0.3-0.5l0.3-0.5l0.4-0.5l0.7-1.1l0.8-1l0.3-0.5l0.4-0.5l0.3-0.5
		l0.3-0.5l0.3-0.4l0.3-0.5l0.1-0.1l0.1-0.2l0.1-0.2l0.1-0.1l0.1-0.2l0.1-0.1l0.1-0.1l0.1-0.1l0.1-0.1l0.1-0.1l0.1-0.1l0.1-0.1v-0.1
		h0.1v-0.1c0,0,1.1-1.1,0.3-2.5c-1.1-1.8-6.5,2.2-6.5,2.2c-7.9,2.3-5.9,14-5.9,14c2.5,9.5,11.5-0.3,11.5-0.3
		c5.6,5.3,10.3-3.7,10.3-3.7c19.9,0.9,14-14.3,14-14.3c17.9-1.1,13.2-15.4,13.2-15.4c6.7,1.9,5.3-5.6,5.3-5.6
		C-622.4,345.5-623.1,345-624,345L-624,345z M-378,353.3c-3.8,3.1-10.6,19.1-6.8,18c5.6-1.7,5.6-5.2,8.2-5.7l0.2-0.1h0.2l0.1-0.1
		l0.2-0.1l0.2-0.1l0.2-0.1l0.3-0.1l0.2-0.1l0.2-0.1l0.2-0.1l0.3-0.1l0.2-0.1l0.4-0.2l0.5-0.2l0.2-0.1l0.2-0.1l0.2-0.1l0.2-0.1
		l0.2-0.1l0.2-0.1l0.2-0.1l0.2-0.2l0.1-0.1l0.1-0.1l0.2-0.1l0.1-0.2l0.1-0.1l0.1-0.1l0.1-0.2l0.1-0.1
		C-370.2,361-373.1,356.9-378,353.3L-378,353.3z M-402.8,355.3c0,0-13,11.7-33.1,15.1h-0.1l-0.1,0.1l-0.1,0.1l-0.1,0.1l-0.1,0.1
		l-0.2,0.1l-0.3,0.1l-0.3,0.1l-0.3,0.1l-0.3,0.2l-0.3,0.1l-0.3,0.2l-0.3,0.2l-0.4,0.2l-0.4,0.3l-0.8,0.5l-0.9,0.5l-0.9,0.5l-0.9,0.6
		l-1,0.6l-1,0.7l-1.1,0.7l-1,0.7l-1,0.7l-1,0.7l-0.9,0.7l-0.9,0.8l-0.9,0.7l-0.8,0.8l-0.7,0.7l-0.3,0.4l-0.3,0.4l-0.3,0.4l-0.3,0.4
		l-0.3,0.3l-0.3,0.4l-0.2,0.3l-0.1,0.4l-0.1,0.4l-0.1,0.3l-0.1,0.3l-0.1,0.4v0.3v0.3l0.1,0.3l0.1,0.3l0.1,0.3l0.1,0.3
		c0,0,10.7-3.4,11.7,10.1c0,0,6.2-8.4,6.2-15.1c0,0,7.3,7.3,11.7-5.6c0,0,21.3,1.1,14.6-10.6C-411.2,367.7-402.8,362.1-402.8,355.3
		L-402.8,355.3z M-610.6,359.5c0,0-34.4,31.6-36.9,38.4h-2c0,0,3.1-7.6,8.4-10.9c0,0-7,1.1-7.8,1.1v0h-0.1h-0.1h-0.1h-0.1h-0.1h-0.1
		h-0.1h-0.1h-0.1l-0.2,0.1h-0.1h-0.1h-0.2h-0.1h-0.4l-0.4,0.1h-0.4l-0.4,0.1l-0.5,0.1l-0.5,0.1l-0.5,0.1l-0.4,0.1l-0.5,0.1l-0.5,0.1
		l-0.4,0.1l-0.4,0.2l-0.2,0.1l-0.2,0.1l-0.2,0.1l-0.2,0.1l-0.1,0.1l-0.2,0.1l-0.1,0.1l-0.2,0.1l-0.1,0.1l-0.1,0.1l-0.1,0.1l-0.1,0.1
		l-0.1,0.2l-0.1,0.1l-0.1,0.2l-0.1,0.2l-0.1,0.2v0.2l-0.1,0.2v0.2v0.2l0.1,0.3v0.2l0.1,0.3l2.5,0.5c0,0-4.5,3.7-0.9,7.3
		c0,0,9.9,5.3,17.9-1.1c0,0,3-4.4,0.6-6.1c2.9,1.3,12.7,5.5,13.5,0.5c0,0,0.8-3.1-1.5-7c0,0,9.8-5.1,9-14.3
		C-616.7,372.9-608.6,360.3-610.6,359.5L-610.6,359.5z M-585,365.7l-0.5,0.1l-0.5,0.1l-0.5,0.1l-0.3,0.2l-0.2,0.2l-0.2,0.3l-0.1,0.3
		v0.4l0.1,0.4l0.1,0.5l0.3,0.6l0.4,0.6l0.5,0.7l0.3,0.4l0.3,0.4l0.3,0.4l0.4,0.4l0.4,0.5l0.5,0.5c0,0-2.3,7.9,10.1,5.6
		c0,0-11.2,11.2,32.5,4.5v-0.1l-0.1-0.1l-0.3-0.1l-0.3-0.1l-0.4-0.2l-0.4-0.2l-0.5-0.3l-0.6-0.3l-0.7-0.3l-0.7-0.3l-0.8-0.3
		l-0.8-0.4l-0.9-0.4l-0.9-0.5l-1-0.5l-1-0.4l-1-0.5l-1.1-0.5l-1.1-0.5l-1.1-0.5l-2.4-1.1l-2.4-1.1l-2.5-1.1l-2.5-1.1l-2.5-1
		l-2.5-0.9l-2.4-0.9l-1.2-0.5l-1.1-0.4l-1.1-0.4l-1.1-0.3l-1-0.3l-1.1-0.3l-1-0.3l-0.9-0.3l-0.9-0.2l-0.9-0.2l-0.8-0.1l-0.7-0.1
		l-0.7-0.1L-585,365.7L-585,365.7z M-596,365.9L-596,365.9L-596,365.9l-0.1,0.1l-0.1,0.1l-0.1,0.1l-0.1,0.1l-0.3,0.5l-0.3,0.5
		l-0.3,0.6l-0.4,0.7l-0.4,0.8l-0.4,0.9l-0.5,1.1l-0.5,1.1l-0.5,1.2l-0.5,1.3l-0.5,1.3l-0.5,1.5l-0.5,1.5l-0.5,1.5l-0.4,1.7l-0.3,1.7
		l-0.3,1.7l-0.3,1.8l-0.3,1.8l-0.1,1.9l-0.1,1.9v1.9l0.1,2l0.1,2l0.3,2l0.3,2.1l0.4,2.1l0.6,2.1l0.7,2.1c0,0,7.8-2.3,4.5-9
		c0,0,16.8,0,2.3-14.5c0,0,6.7-4.5,1.1-12.3L-596,365.9L-596,365.9z M-366.5,369.3L-366.5,369.3l-0.1,0.1l-0.1,0.1l-0.1,0.1
		l-0.1,0.1l-0.1,0.1l-0.2,0.1l-0.1,0.1l-0.2,0.2l-0.2,0.1l-0.5,0.4l-0.5,0.4l-0.6,0.5l-0.7,0.5l-0.7,0.5l-0.8,0.5l-0.8,0.5l-0.8,0.5
		l-0.9,0.5l-0.9,0.5l-0.9,0.5l-1,0.5l-1,0.5l-1.1,0.5l-1,0.4l-1.1,0.5l-1.1,0.3l-1.1,0.3l-1.1,0.3l-1.1,0.3l-1.1,0.1l-1.1,0.1h-1.1
		l-1.1-0.1h-0.5l-0.6-0.1l-0.5-0.1l-0.5-0.1c-11.8-2.8,28,20.7,24.6-1.7C-367.5,377.7-355.2,377.2-366.5,369.3L-366.5,369.3
		L-366.5,369.3z M-290.8,371c8.9,14,10.1,9.5,10.1,9.5c1.7,11.7,9.5,11.2,9.5,11.2c-3.4,21.3,5.6,19.1,5.6,19.1
		c5.6,1.1,2.8-8.4,2.8-8.4l-0.7-2.2l-0.8-2.1l-0.8-1.9l-0.9-1.9l-0.9-1.8l-1-1.7l-1.1-1.6l-1.1-1.6l-1.1-1.5l-1.1-1.4l-1.2-1.3
		l-1.1-1.2l-1.2-1.2l-1.2-1.1l-1.2-1.1l-1.1-0.9l-1.1-0.9l-1.1-0.8l-1.1-0.8l-1.1-0.7l-1-0.6l-0.9-0.6l-0.9-0.5l-0.8-0.5l-0.7-0.4
		l-0.7-0.3l-0.6-0.3l-0.5-0.2l-0.4-0.2l-0.3-0.1l-0.1-0.1L-290.8,371L-290.8,371z M-320.3,372.2c-0.2,0-0.3,0.1-0.2,0.4
		c1.1,3.9,3.4,13.5,3.4,13.5c0,16.3,5,51.5,5,51.5s2.5,6.8-2.2-0.5l-0.3-0.6l-0.3-0.5l-0.7-1.3l-0.6-1.4l-0.5-1.5l-0.6-1.6l-0.5-1.7
		l-0.5-1.7l-0.4-1.9l-0.5-1.9l-0.4-2l-0.4-1.9l-0.3-2l-0.6-4.1l-0.3-2l-0.2-2l-0.3-1.9l-0.2-1.9l-0.2-1.9l-0.2-1.8l-0.1-1.7
		l-0.1-1.7l-0.1-1.5l-0.1-1.5l-0.1-1.3l-0.1-0.6l-0.1-0.5v-0.5l-0.1-0.5v-0.5v-0.4l-0.1-0.3v-0.3v-0.3v-0.2v-0.2l-0.1-0.1v-0.1v-0.1
		c0,0-2.8-19.6-5-15.1c-2.3,4.5-6.2,6.7-6.2,6.7c-7.3,12.3,3.3,15.7,3.3,15.7c-13.2,29.1,3.4,24.7,3.4,24.7
		c-5.6,13.5,4.5,25.2,4.5,25.2c6.2,3.4,5.6-8.4,5.6-8.4s1.7,3.9,5.1,7.3c7.8,7.7,7.3-14,7.3-14c10.7-4.5-1.1-20.7-1.1-20.7
		c11.8-1.1-5-21.9-5-21.9s2.2,0,1.7-4.5C-310.3,380.5-318.7,372.4-320.3,372.2L-320.3,372.2z M-294.9,373.9c-3.7-0.2-5.4,5-5.4,5
		c22.4,21.8,19,42.5,19,42.5l-1.7,2.3l-0.2-2.5l-0.4-2.4l-0.4-2.3l-0.5-2.3l-0.6-2.2l-0.7-2.2l-0.7-2.1l-0.8-2l-0.9-2l-0.9-1.9
		l-0.9-1.9l-0.9-1.8l-0.9-1.7l-1-1.7l-1-1.6l-0.9-1.5l-1-1.4l-0.9-1.3l-0.9-1.3l-0.9-1.2l-0.9-1.1l-0.8-1l-0.8-0.9l-0.7-0.9
		l-0.7-0.7l-0.6-0.6l-0.5-0.6l-0.5-0.4l-0.3-0.4l-0.3-0.3l-0.1-0.1l-0.1-0.1l-0.1-0.1l0,0c7.8,40.9,9.5,29.7,9.5,29.7
		c-3.3,16.2,5.6,9.5,5.6,9.5c-1.1,8.4,6.2,8.4,6.2,8.4c7.8-1.1,5.6-26.9,5.6-26.9c3.3-12.3-9.5-14-9.5-14c1.1-5.6-2.3-8.9-2.3-8.9
		C-291.7,374.8-293.5,373.9-294.9,373.9L-294.9,373.9z M-274.6,374.9l14,19.6l1.1-1.7c1.1-6.7-3.3-4.5-3.3-4.5l1.7-4.5l-0.1-0.4
		l-0.1-0.5l-0.1-0.5l-0.1-0.4l-0.1-0.4l-0.2-0.4l-0.1-0.3l-0.2-0.4l-0.2-0.3l-0.2-0.3l-0.2-0.3l-0.2-0.3l-0.2-0.3l-0.3-0.3l-0.2-0.3
		l-0.3-0.2l-0.3-0.3l-0.3-0.2l-0.3-0.3l-0.3-0.2l-0.5-0.4l-0.6-0.3l-0.6-0.3l-0.6-0.3l-0.5-0.3l-0.6-0.2l-0.6-0.1l-0.6-0.1l-0.5-0.1
		l-0.6-0.1l-0.5-0.1l-0.5-0.1l-0.5-0.1h-0.5h-0.4h-0.3h-0.2h-0.1h-0.1h-0.1h-0.1h-0.1h-0.1h-0.1L-274.6,374.9L-274.6,374.9
		L-274.6,374.9z M-607.2,381.7L-607.2,381.7L-607.2,381.7L-607.2,381.7z M-607.2,381.7L-615,394c-11.2,14.5,1.1,13.4,1.1,13.4
		c-2.3,11.2,7.9,4.5,7.9,4.5l-0.4-1.1l-0.4-1.1l-0.3-1.2l-0.3-1.1l-0.3-1.2l-0.2-1.3l-0.1-1.2l-0.1-1.3l-0.1-1.3l-0.1-1.3l-0.1-1.3
		v-1.3v-1.3v-1.2v-1.2l0.1-1.1l0.1-1.1l0.1-1.1l0.1-1.1l0.1-1l0.1-0.9l0.1-0.9l0.1-0.8l0.1-0.8l0.1-0.7l0.1-0.7l0.1-0.5v-0.2
		l0.1-0.3v-0.1l0.1-0.2V382v-0.1v-0.1L-607.2,381.7L-607.2,381.7L-607.2,381.7z M-671,394.8l-2.5,2.3c0,0-0.5,2.8,2.5,3.3
		c3.1,0.6-1.1,5.3-1.1,5.3c-8.7,5.1-0.9,15.1-0.9,15.1c11.8,1.9,15.7-7.3,15.7-7.3c0.8-2.3,3.6,0.5,3.6,0.5c2.5-2.3,2.5-8.1,2.5-8.1
		c-10.1-0.5-8.4-4.5-8.4-4.5c-4.5,2-10.9,13.5-10.9,13.5l-1.7-1.1c-0.9-2.8,4.5-9.3,4.5-9.3c5.9-6.7,1.1-5.6,1.1-5.6l-0.2-0.1
		l-0.2-0.1l-0.5-0.4l-0.4-0.3l-0.4-0.3l-0.4-0.4l-0.1-0.1l-0.2-0.2l-0.2-0.1l-0.1-0.2l-0.2-0.1l-0.1-0.2l-0.2-0.1l-0.1-0.1l-0.1-0.2
		l-0.1-0.1l-0.1-0.1l-0.1-0.1l-0.1-0.1l-0.1-0.1l-0.1-0.1l-0.1-0.1l-0.1-0.1l-0.1-0.1L-671,394.8L-671,394.8L-671,394.8L-671,394.8z
		 M-561.9,399.1l-0.3,0.1h-0.2l-0.2,0.1l-0.2,0.1h-0.3l-0.2,0.1l-0.2,0.1l-0.4,0.1l-0.5,0.2l-0.3,0.2l-0.4,0.3l-0.4,0.2l-0.3,0.2
		l-0.1,0.1l-0.1,0.1l-0.2,0.1l-0.1,0.1l-0.1,0.1l-0.1,0.1l-0.1,0.1l-0.1,0.1l-0.1,0.1l-0.1,0.1l-0.1,0.1l-0.1,0.1h-0.1v0.1
		c0,0,0-0.5-1.7,3.4c-1.7,3.9-0.3,7.8-0.3,7.8c-5.3-2.2-9.5,1.7-9.5,1.7c-6.5,5.6,5.6,13.7,5.6,13.7c4.2-12.9,15.1-22.4,15.1-22.4
		v-0.3v-0.3v-0.3v-0.3v-0.3l-0.1-0.2v-0.3v-0.3l-0.1-0.2v-0.3l-0.1-0.4l-0.1-0.4l-0.1-0.4l-0.1-0.3l-0.1-0.3l-0.1-0.3l-0.1-0.3
		l-0.2-0.3l-0.1-0.2l-0.1-0.3l-0.1-0.2l-0.2-0.1l-0.1-0.1l-0.2-0.2l-0.2-0.1l-0.2-0.1l-0.2-0.1l-0.2-0.1l-0.2-0.1h-0.2l-0.2-0.1
		h-0.2h-0.2L-561.9,399.1L-561.9,399.1z M-625.1,400.7L-625.1,400.7L-625.1,400.7l-0.1,0.1l-0.1,0.1l-0.1,0.1l-0.1,0.1l-0.1,0.1
		l-0.1,0.1l-0.3,0.3l-0.3,0.3l-0.3,0.4l-0.4,0.4l-0.5,0.5l-0.4,0.5l-0.5,0.6l-0.5,0.7l-0.5,0.7l-0.5,0.7l-0.4,0.8l-0.4,0.9l-0.4,0.9
		l-0.3,0.9l-0.3,1l-0.3,1l-0.2,1.1l-0.1,0.5l-0.1,0.6l-0.1,0.5v0.6v0.6v0.6l0.1,0.7l0.1,0.6l0.1,0.7l0.1,0.7l0.1,0.7l0.1,0.7
		l0.2,0.7l0.2,0.7l0.3,0.7l0.3,0.7l0.3,0.7l0.3,0.7l0.3,0.7l0.4,0.8l0.4,0.7l0.5,0.8c0,0,12.3-5.6,6.7-12.3
		C-621.8,415.3-617.3,413-625.1,400.7L-625.1,400.7z M-550,402.5c-0.9,0-2,1-2,1c-33.3,43.1-33.7,71.1-33.7,71.1
		c5.1,0.8,6.2-7.9,6.2-7.9c8.4,0.3,11.7-13.1,11.7-13.1c11.5,5.6,11.8-13.2,11.8-13.2l-0.5-0.3l-0.3-0.3l-0.3-0.4l-0.3-0.4l-0.3-0.4
		l-0.3-0.4l-0.2-0.5l-0.2-0.5l-0.1-0.5l-0.1-0.5l-0.1-0.6l-0.1-0.6v-0.6l-0.1-0.6l0.1-0.7v-0.7l0.1-1.3l0.3-1.5l0.3-1.5l0.3-1.5
		l0.5-1.5l0.4-1.5l0.5-1.5l0.5-1.5l0.6-1.5l0.6-1.5l0.6-1.4l0.6-1.4l0.6-1.3l0.6-1.3l0.5-1.2l0.5-1.1l0.3-0.5l0.3-0.5l0.3-0.5
		l0.2-0.5l0.2-0.4l0.2-0.4l0.2-0.3l0.2-0.3l0.1-0.3l0.1-0.2l0.1-0.3l0.1-0.1l0.1-0.2l0.1-0.1l0.1-0.1h0
		C-548.7,403.1-549.3,402.5-550,402.5L-550,402.5z M-544.5,405.7c-8.4,8.4-9,25.8-9,25.8c6.7,27.4-8.9,28.5-8.9,28.5
		c-7.9,6.7,1.1,28.6,1.1,28.6c9.5,0,8.9-12.3,8.9-12.3c7.3-2.8,3.9-21.9,3.9-21.9c16.3-6.7,4.5-28,4.5-28l0.5-0.1l0.3-0.2l0.4-0.2
		l0.3-0.2l0.3-0.2l0.3-0.2l0.3-0.2l0.3-0.2l0.3-0.3l0.3-0.2l0.2-0.3l0.2-0.3l0.2-0.3l0.1-0.3l0.2-0.3l0.1-0.3l0.1-0.3l0.1-0.3
		l0.1-0.3l0.1-0.3l0.1-0.3l0.1-0.3l0.1-0.3v-0.3l0.1-0.6l0.1-0.6v-0.6l-0.1-0.6l-0.1-0.5l-0.1-0.6l-0.1-0.5l-0.1-0.5l-0.1-0.5
		l-0.1-0.5l-0.1-0.5l-0.1-0.4l-0.1-0.4l-0.1-0.1l-0.1-0.2l-0.1-0.1l-0.1-0.1l-0.1-0.1l-0.1-0.1l-0.1-0.1v-0.1l-0.1-0.1v-0.1
		l-0.1-0.1v-0.1L-544.5,405.7L-544.5,405.7z M-643.6,407.4c-6.7,0.3-6.1,10.7-6.1,10.7c-0.9,1.9,6.5,7.3,6.5,7.3
		c-1.7,0.3-3.7,5.6-3.7,5.6c0,3.4,0.3,7,4.5,8.1c0,0-3.6,7,3.7,9.5c0,0,5.9-0.3,7.3-7c0,0-2.5-3.7-4.5-1.7v-0.1l0.1-0.1v-0.1
		l0.1-0.1v-0.1l0.1-0.1l0.1-0.2l0.1-0.2l0.1-0.2l0.1-0.2l0.1-0.3l0.1-0.3l0.1-0.3l0.1-0.3l0.1-0.3l0.1-0.3l0.1-0.3l0.2-0.7l0.2-0.7
		l0.2-0.7l0.2-0.8l0.1-0.8l0.2-0.8l0.1-0.9l0.1-0.8l0.1-0.8l0.1-0.7v-0.8v-0.3v-0.4v-0.3v-0.3v-0.3l-0.1-0.3l-0.1-0.3l-0.1-0.3
		l-0.1-0.3l-0.1-0.3l-0.1-0.3l-0.1-0.2l-0.1-0.2l-0.1-0.2l-0.1-0.2l-0.2-0.1l-0.2-0.1l-0.2-0.1l-0.3-0.1l-0.2-0.1l-0.3-0.1h-0.3
		h-0.3l-0.3,0.1v0l-0.8,0.3C-633.2,409.9-643.6,407.4-643.6,407.4L-643.6,407.4z M-376,410.2c-0.9,0-1.8,0-2.7,0v0l0.1,0.1h0.1
		l0.3,0.2l0.5,0.4l0.7,0.5l0.7,0.6l1,0.7l1.1,0.8l1.2,1l1.3,1.1l1.5,1.2l1.5,1.3l1.7,1.5l1.7,1.6l1.9,1.7l1.9,1.8l1.9,1.9l2,2l2,2.1
		l2.1,2.3l2.1,2.3l2.1,2.4l2.1,2.6l2.1,2.6l2.1,2.7l2.1,2.8l2,2.9l2,3l1.9,3.1l1.9,3.1l1.8,3.3l1.7,3.3l1.7,3.5
		c0,0,3.5-1.8-1.7-10.7c0,0,9-11.2-5-16.2c0,0,3.9-21.3-19.1-20.7C-354.1,423.1-349.3,410.5-376,410.2L-376,410.2z M-601.6,412.7
		l-0.1,0.1l-0.1,0.3l-0.1,0.4l-0.1,0.7l-0.2,0.7l-0.2,0.9l-0.2,1.1l-0.3,1.2l-0.2,1.4l-0.3,1.5l-0.3,1.6l-0.3,1.8l-0.3,1.9l-0.3,2
		l-0.3,2.1l-0.3,2.3l-0.3,2.3l-0.3,2.5l-0.2,2.6l-0.2,2.6l-0.2,2.7l-0.1,2.8l-0.1,2.9l-0.1,2.9v3v3.1l0.1,3.1l0.1,3.2l0.2,3.2
		l0.2,3.3l0.3,3.3l0.3,3.3l-1.4-0.8c0,0-3.7-7.6-3.3-13.2c0,0,2.2-27.7-9.3-18.2c0,0,5.9,0.9,4.5,7c0,0-1.1,8.1-4.5,11.5
		c0,0-4.5,6.7,5.6,6.7c0,0,2.3,14.3,9.5,14.6c0,0,5.1-2.5,5.1-8.1c0,0,13.4-4.7,5-23c0,0,12.6,0,7.3-6.7c0,0-12-18.2-10.1-26.3
		C-596.8,423.1-593.4,420-601.6,412.7L-601.6,412.7z M-531.1,414.1c0.6,11.8-5,14-5,14c5,18.5-6.7,28.6-6.7,28.6
		c3.9,12.3-6.1,23.5-6.1,23.5c11.7,0,8.9-11.8,8.9-11.8c13.5,9,12.3-16.8,12.3-16.8c16.8,0.5-2.3-21.3-2.3-21.3h0.3h0.3l0.3-0.1
		l0.3-0.1l0.3-0.1l0.2-0.1l0.2-0.1l0.2-0.1l0.1-0.2l0.2-0.1l0.1-0.2l0.1-0.3l0.1-0.2l0.1-0.3l0.1-0.3l0.1-0.3v-0.3l0.1-0.3v-0.3
		v-0.3v-0.3l-0.1-0.3v-0.3l-0.1-0.4l-0.1-0.7l-0.1-0.7l-0.2-0.7l-0.2-0.8l-0.3-0.8l-0.2-0.7l-0.3-0.7l-0.3-0.8l-0.3-0.7l-0.3-0.7
		l-0.3-0.7l-0.1-0.3l-0.1-0.3l-0.1-0.3l-0.1-0.3l-0.1-0.3l-0.1-0.3l-0.1-0.2l-0.1-0.2l-0.1-0.2l-0.1-0.2l-0.1-0.2l-0.1-0.1v-0.1
		l-0.1-0.1l-0.1-0.1L-531.1,414.1L-531.1,414.1L-531.1,414.1z M-382.1,420.3L-382.1,420.3v0.3l-0.1,0.2v0.3v0.3l-0.1,0.4v0.4
		l-0.1,0.5v0.6l-0.1,1.2l-0.1,1.4l-0.1,1.6l-0.1,1.7l-0.1,1.9l-0.1,2.1l-0.1,2.2l-0.1,2.3l-0.1,2.4l-0.1,2.5l-0.1,2.5l-0.1,2.7
		l-0.1,2.7l-0.1,2.8l-0.1,2.8l-0.2,5.7l-0.1,5.8v5.7v2.8l0.1,2.8v2.7l0.1,2.7l0.1,2.5l0.2,2.5c0,0,9.5-8.4,6.1-12.9
		c0,0,14.6-2.3,2.8-19.1c0,0,14-6.1-3.3-19.6C-378.1,437.6-368.1,434.3-382.1,420.3L-382.1,420.3z M-373.1,421.4
		c8.5,13.5,3.4,17.4,3.4,17.4c11.2,13.4,2.8,20.7,2.8,20.7c1.7,9.5,14.5,2.2,14.5,2.2c-5,14.6,12.9,10.7,12.9,10.7
		c6.1,8.4,9.5,2.3,9.5,2.3l-0.3-0.7l-0.4-0.7l-0.4-0.7l-0.5-0.7l-1-1.6l-1.2-1.7l-1.3-1.8l-1.4-1.9l-1.5-2l-1.6-2.1l-1.7-2.1
		l-1.8-2.2l-1.7-2.2l-1.9-2.3l-3.7-4.5l-3.7-4.5l-1.9-2.2l-1.8-2.1l-1.8-2.1l-1.7-2l-1.6-1.9l-1.6-1.8l-1.5-1.7l-1.4-1.5l-1.3-1.4
		l-0.5-0.7l-0.6-0.6l-0.5-0.6l-0.5-0.5l-0.5-0.5l-0.4-0.4l-0.3-0.4l-0.3-0.3l-0.3-0.3l-0.3-0.3l-0.1-0.2l-0.1-0.1L-373.1,421.4
		L-373.1,421.4L-373.1,421.4z M-386.6,427.6L-386.6,427.6l-0.1,0.1h-0.1v0.1l-0.1,0.1l-0.1,0.1l-0.1,0.1l-0.1,0.1l-0.1,0.1l-0.1,0.1
		l-0.1,0.2l-0.1,0.1l-0.1,0.1l-0.1,0.2l-0.3,0.3l-0.3,0.4l-0.3,0.5l-0.3,0.4l-0.3,0.5l-0.3,0.5l-0.3,0.5l-0.3,0.5l-0.3,0.5l-0.3,0.5
		l-0.3,0.5l-0.3,0.5l-0.2,0.5l-0.3,0.5l-0.1,0.3l-0.1,0.3l-0.1,0.2l-0.1,0.3l-0.1,0.3v0.2l-0.1,0.3v0.2v0.2v0.2l0.1,0.3v0.2l0.1,0.2
		l0.1,0.1l0.1,0.2l0.1,0.2l0.1,0.1l0.1,0.1l0.1,0.2l0.2,0.1l2.3,2.8c0,0-17.4,15.7-8.5,19c0,0-5,16.8,3.9,14.1
		c0,0-2.8,12.3,5.6,11.2C-388.3,487-391.6,450-386.6,427.6L-386.6,427.6L-386.6,427.6z M-625.1,434.3c0,0-5.6,16.8-1.1,24.6
		l-4.5-6.7v0.1h-0.1h-0.1h-0.1l-0.1,0.1h-0.1l-0.1,0.1h-0.1l-0.1,0.1l-0.1,0.1l-0.1,0.1l-0.1,0.1l-0.1,0.1l-0.3,0.1l-0.3,0.1
		l-0.3,0.2l-0.3,0.2l-0.3,0.3l-0.3,0.2l-0.3,0.3l-0.3,0.3l-0.1,0.1l-0.1,0.1l-0.1,0.2l-0.1,0.1l-0.1,0.2l-0.1,0.1l-0.1,0.2l-0.1,0.2
		l-0.1,0.2l-0.1,0.2l-0.1,0.2v0.2l-0.1,0.2v0.2v0.2l0.1,0.3v0.2l0.1,0.3l0.1,0.2l0.1,0.3l0.1,0.2l0.1,0.3l0.1,0.3l0.1,0.3l0.2,0.3
		l0.2,0.3l0.2,0.3l0.3,0.3l0.3,0.3l0.3,0.3l0.3,0.3l0.3,0.3l0.4,0.3l0.4,0.3c0,0,1.1,11.2,8.9,5.6c0,0-6.7-20.2,3.4-33.6
		L-625.1,434.3L-625.1,434.3z M-568.5,467L-568.5,467L-568.5,467l-0.1,0.1h-0.1l-0.1,0.1l-0.1,0.1l-0.1,0.1h-0.1l-0.1,0.1l-0.1,0.1
		l-0.1,0.1l-0.2,0.1l-0.1,0.1l-0.1,0.1l-0.2,0.1l-0.3,0.2l-0.3,0.3l-0.3,0.3l-0.4,0.3l-0.3,0.3l-0.3,0.3l-0.3,0.3l-0.3,0.3l-0.1,0.2
		l-0.2,0.1l-0.1,0.2l-0.1,0.2l-0.1,0.2l-0.1,0.2l-0.1,0.2l-0.1,0.2l-0.1,0.3l-0.1,0.2l-0.1,0.2l-0.1,0.2v0.3v0.2v0.2v0.3l0.1,0.2
		v0.3l0.1,0.2l0.1,0.3l0.1,0.2l0.1,0.3l0.2,0.2l0.1,0.3l0.2,0.3l0.2,0.2l0.3,0.3l0.3,0.3l0.3,0.2l0.3,0.3l0.3,0.3l0.4,0.3
		c0,0-4.2,13.1,3.3,11.7c0,0,0.9,5.1,3.9,4.2c0,0,0.9-3.1-3.1-4.7c0,0,1.9-5.1-2.8-10.9C-569.7,477.7-564.9,470.2-568.5,467
		L-568.5,467z"/>
	<path class="st7" d="M-456.6,19.5l-1.2,0.1l-1.1,0.1l-1.2,0.3l-1.1,0.3l-1.1,0.4l-1.1,0.5l-1.1,0.5l-1,0.6l-1,0.6l-1,0.7l-0.9,0.7
		l-0.9,0.8l-0.9,0.9l-0.8,0.9l-0.9,0.9l-0.8,0.9l-0.7,1.1l-0.7,1l-0.7,1.1l-0.7,1.1l-0.6,1.1l-0.5,1.2l-0.5,1.1l-0.5,1.2l-0.4,1.2
		l-0.3,1.2l-0.3,1.2l-0.3,1.2l-0.2,1.2l-0.1,1.2l-0.1,1.2c-0.8,14.8,6.7,28.3,20.9,29c13,0.7,23.3-13.8,24-26.5
		c0.8-14.9-6.7-28.3-20.9-29.1L-456.6,19.5L-456.6,19.5z M-510.1,20.3l-0.1,0.1l-0.1,0.1l-0.1,0.1l-0.1,0.1l-0.1,0.1l-0.1,0.1
		l-0.2,0.1l-0.1,0.1l-0.2,0.1l-0.2,0.1l-0.2,0.1l-0.2,0.1l-0.2,0.1l-0.2,0.1l-0.2,0.1l-0.2,0.1l-0.5,0.1l-0.5,0.1l-0.5,0.1l-0.5,0.1
		l-0.5,0.1l-0.5,0.1l-0.5,0.1l-0.5,0.1l-23.5,3.9c-3,0.5-5.7,0.6-7.2,0.1l-0.7,16.5l2.5,0.2c1.8-7.5,4.5-14.1,12.9-15.5l7.8,47.2
		l-4.1,1.3l0.4,2.4l17.5-2.9l-0.4-2.4l-4.3,0.1l-7.7-47.2c8.5-1.4,13.1,4,17.1,10.5l2.3-1L-510.1,20.3L-510.1,20.3z M-455.6,22.5
		l0.7,0.1l0.7,0.1l0.7,0.1l0.6,0.2l0.7,0.2l0.6,0.3l0.6,0.3l0.5,0.3l0.5,0.4l0.5,0.4l0.5,0.5l0.5,0.5l0.5,0.5l0.4,0.6l0.4,0.7
		l0.4,0.7l0.3,0.7l0.3,0.9l0.3,0.9l0.3,0.9l0.2,1l0.3,1.1l0.1,1.1l0.2,1.1l0.1,1.3l0.1,1.3l0.1,1.3v1.5V43v1.6l-0.1,1.7l-0.1,1.7
		c-0.9,17.5-7.3,24.4-13.8,24.1c-7.6-0.5-12-6.7-11-25.5C-468.4,29.1-462.1,22.2-455.6,22.5L-455.6,22.5z M-423.2,23.5l-0.5,2.4
		l4,1.5l-9.7,46.2l-4.2-0.3h-0.1v0.1v0.1v0.1v0.1l-0.1,0.1v0.1v0.1v0.1l-0.1,0.1V74v0.1l-0.1,0.1v0.2l-0.1,0.2v0.1L-434,75V75v0.1
		l-0.1,0.1v0.1v0.1v0.1l-0.1,0.1v0.1v0.1v0.1l17.3,3.7l0.5-2.4l-4-1.5l4.9-23.1l4.4,0.9c4.9,1.1,5.7,4.9,5.3,10.1l2.4,0.5l3.9-18.9
		l-2.3-0.5c-1.6,4.2-3.9,7.4-8.8,6.3l-4.4-0.9l4.3-20.7c1.3-0.1,2.7,0,3.9,0.2c10.2,2.2,12.7,7.8,15.5,17l2.9-0.1l-0.7-16.9
		c-1.5,0.5-4.2,0.3-7.2-0.3L-423.2,23.5L-423.2,23.5z M-557.7,29.8l-14.3,4.8l0.7,2.3c3.8-0.7,6-0.6,7.4,3.5l9.5,28.4h-0.1h-0.1
		L-590,40.7l-13.3,4.5l0.8,2.3c3.5-0.7,7,0.7,8.5,5l10.8,31.9c1.4,4.2-0.5,7.5-3.8,9l0.7,2.3l15.5-5.2l-0.8-2.3
		c-3.5,0.8-6.9-0.1-8.2-4.1l-10.7-31.8h0.1l41.1,32.1l3.4-1.1l-14.5-43.1c-1.2-3.5,0-6.4,3.5-8.1L-557.7,29.8L-557.7,29.8z
		 M-358.7,40.1l-1,2.3l3.6,2.3l-19.1,43.2l-4.1-1.1l-1,2.3l26.9,11.8l0.5,0.3l0.5,0.2l0.5,0.3l0.5,0.2l0.5,0.3l0.5,0.3l0.4,0.3
		l0.2,0.1l0.2,0.1l0.2,0.1l0.2,0.1l0.2,0.1l0.1,0.1l0.2,0.1l0.1,0.1l0.1,0.1l0.2,0.1l0.1,0.1l0.1,0.1l0.1,0.1l0.1,0.1l0.1,0.1
		l0.1,0.1l0.1,0.1l0.1,0.1l10.5-14.2l-2.4-1.7c-7.5,6.8-13.9,9.4-24.1,4.9c-1.2-0.5-2.3-1.2-3.3-2.1l9.9-22.3l2.8,1.2
		c4.8,2.1,5.5,5.1,4.2,11.2l2.3,1l7.9-17.9l-2.2-1c-3.6,5.1-6.3,6.5-11.1,4.5l-2.8-1.3l8.2-18.7c1.4,0.1,2.7,0.5,3.8,1
		c10.3,4.5,12.4,9.5,12.5,19.2l2.9,0.6l3-15.6c-1.5,0.1-4.1-0.6-6.9-1.8L-358.7,40.1L-358.7,40.1z M-617.7,50.9
		c-0.9,1.3-3,2.9-5.7,4.4l-25.3,13.6l1.1,2.1l4-1.4l22.3,41.6l-3.4,2.5l1.1,2.1l25.9-13.9l0.5-0.3l0.5-0.3l0.5-0.2l0.5-0.2l0.5-0.3
		l0.5-0.1l0.5-0.2l0.2-0.1l0.3-0.1l0.2-0.1l0.2-0.1l0.2-0.1l0.2-0.1l0.2-0.1h0.2l0.2-0.1l0.2-0.1h0.2l0.2-0.1h0.1h0.2l0.1-0.1h0.2
		h0.1h0.1l-4.7-17l-2.8,0.8c0.7,10.2-1.2,16.8-10.9,22.1c-1.1,0.6-2.3,1.1-3.7,1.3l-11.5-21.5l2.7-1.5c4.7-2.5,7.5-1.2,11.4,3.6
		l2.1-1.2l-9.2-17.2l-2.1,1.2c1.8,5.9,1.3,9-3.4,11.5l-2.7,1.5l-9.6-18c0.9-1,1.9-1.8,3.1-2.4c9.9-5.3,15.1-3.9,22.9,1.9l2.2-1.9
		L-617.7,50.9L-617.7,50.9z M-312.2,61.4l-1.3,2.1l0.1,0.1l0.1,0.1l0.1,0.1h0.1v0.1h0.1l0.1,0.1l0.1,0.1l0.1,0.1l0.1,0.1l0.1,0.1
		l0.1,0.1l0.1,0.1l0.1,0.1l0.3,0.3l0.3,0.3l0.1,0.1l0.1,0.1l0.1,0.1l0.1,0.1l0.1,0.1l0.1,0.1h0.1l0.1,0.1V66h0.1l0.1,0.1l0.1,0.1
		l0.1,0.1h0.1v0.1h0.1l-25.8,39.6l-3.9-1.8l-1.3,2.1l17.2,11.2c14.7,9.5,28.1,0.9,34.7-9.3c6.6-10.2,9.1-25.9-5.5-35.5L-312.2,61.4
		L-312.2,61.4z M-302.6,71.3c1.1,0.3,2.9,1.1,5.1,2.6c7.3,4.7,10.2,12.3-0.4,28.6c-10.7,16.4-18.7,16.7-26.1,12l-0.4-0.3l-0.4-0.3
		l-0.3-0.3l-0.2-0.1l-0.2-0.1l-0.1-0.1l-0.2-0.1l-0.1-0.1l-0.2-0.1l-0.1-0.1l-0.1-0.1l-0.1-0.1l-0.1-0.1l-0.1-0.1l-0.1-0.1l-0.1-0.1
		l-0.1-0.1l-0.1-0.1l-0.1-0.1l-0.1-0.1l-0.1-0.1l-0.1-0.1l-0.1-0.1l-0.1-0.1l-0.1-0.1l-0.1-0.1l-0.1-0.1l-0.1-0.1l-0.1-0.1
		L-302.6,71.3L-302.6,71.3z M-661.4,76.7l-10.7,8.6l9.4,30l-27.1-16l-10.8,8.7l1.5,1.9l3.7-2.1l24.1,32.4c3.3,4.4,2.1,6.4,0,9.5
		l0.1,0.1l0.1,0.1v0.1h0.1v0.1h0.1v0.1l0.1,0.1l0.1,0.1l0.1,0.1l0.1,0.1l0.1,0.1l0.1,0.1l0.1,0.2l0.1,0.1l0.1,0.1l0.1,0.1l0.1,0.1
		l0.1,0.1l0.1,0.1l0.1,0.1l0.1,0.1l0.1,0.1v0.1h0.1v0.1l12.3-9.8l-1.5-1.9c-3.4,2.3-6.4,2.1-9.1-1.6l-21.7-28.6l0.1-0.1l32.3,19.1
		l1.5-1.3L-667,91.2l0.1-0.1l27.3,32.4l-2.9,3.1l1.5,1.9l13.9-11.1l-1.5-1.9l-3.6,2.1l-30.7-36l2.9-3.1L-661.4,76.7L-661.4,76.7z
		 M-266.8,91.9l-1.6,1.8l2.7,3.3l-24.2,26.4c-7.9,8.7-4.7,16.9,3.7,24.6c10.5,9.7,19.2,5.9,25.5-1l18.7-20.3
		c2.8-3.1,6.3-2.5,9.1-0.4l1.7-1.8l-12-11.1l-1.7,1.8c2.4,2.7,3.2,6.1,0.4,9.2l-20,21.8c-5.5,6-12.7,5.5-17.9,0.7
		c-4.4-4.1-5.4-12-0.6-17.2l24.2-26.4l3.5,2.4v-0.1h0.1v-0.1h0.1v-0.1h0.1v-0.1h0.1v-0.1l0.1-0.1l0.1-0.1l0.1-0.1l0.1-0.1l0.1-0.1
		l0.1-0.1l0.2-0.2l0.1-0.1l0.1-0.1l0.1-0.1l0.1-0.1l0.1-0.1l0.1-0.1l0.1-0.1l0.1-0.1l0.1-0.1v-0.1h0.1v-0.1h0.1L-266.8,91.9
		L-266.8,91.9z M-711.5,117.4l-0.1,0.1l-0.1,0.1v0.2l-0.1,0.1l-0.1,0.2l-0.1,0.1l-0.1,0.2l-0.1,0.1l-0.1,0.2l-0.1,0.2l-0.1,0.1
		l-0.1,0.2l-0.1,0.2l-0.1,0.2l-0.1,0.2l-0.1,0.1l-0.3,0.4l-0.3,0.4l-0.3,0.5l-0.3,0.4l-0.3,0.4l-0.3,0.4l-0.3,0.5l-0.4,0.4
		l-15.7,17.8c-2,2.3-4.1,4.1-5.5,4.6l9.9,13.2l2.1-1.4c-3.3-6.9-5.5-13.7,0.2-20.2l35.9,31.7l-2.3,3.5l1.9,1.6l11.7-13.3l-1.8-1.6
		l-3.2,2.7l-35.9-31.7c5.7-6.5,12.7-5.1,19.9-2.7l1.1-2.2L-711.5,117.4L-711.5,117.4z M-228,138.6c-7.4,0.1-15.4,3.4-21.2,8
		c-11.3,9.1-15.7,22.7-7.2,33.3l0.5,0.7l0.6,0.7l0.6,0.6l0.6,0.5l0.7,0.5l0.6,0.5l0.7,0.4l0.7,0.5l0.7,0.4l0.7,0.3l0.7,0.3l0.8,0.3
		l0.7,0.3l0.8,0.2l0.7,0.3l0.8,0.1l0.8,0.1l0.9,0.1l0.8,0.1l0.8,0.1l0.9,0.1h0.8l0.9-0.1l0.9-0.1l0.8-0.1l0.9-0.1l0.9-0.1l0.9-0.2
		l0.8-0.2l0.9-0.3l0.9-0.3l0.8-0.3l-0.9-2.5c-5.6,1.9-12.5,1-16.3-3.8c-7.3-9.1,1.3-21.7,10.6-29.1c7.1-5.6,17.9-9.3,23.8-2.1
		c4.5,5.7,1.6,14.2-1.4,21l2.3,1.8l10.6-13.2c-2-1.1-3.9-2.4-4.7-3.3c-0.7-0.9-1.3-2.3-2.1-3.9c-0.7-1.6-1.6-3.2-2.9-4.9
		C-216.8,140.5-222.2,138.6-228,138.6L-228,138.6z M-738.8,162.2c-6.7,0-12.1,6.3-16.2,12.6l-10.5,16.3l2.1,1.3h0.1v-0.1l0.1-0.1
		l0.1-0.1l0.1-0.1v-0.1h0.1l0.1-0.1v-0.1l0.1-0.1l0.1-0.1l0.1-0.1l0.1-0.1l0.1-0.1l0.1-0.1l0.3-0.3l0.3-0.3l0.1-0.1l0.1-0.1l0.1-0.1
		l0.1-0.1l0.1-0.1l0.1-0.1l0.1-0.1l0.1-0.1l0.1-0.1v-0.1h0.1v-0.1l0.1-0.1h0.1v-0.1h0.1v-0.1l39.7,25.5l-1.7,3.9l2,1.3l9.5-14.9
		l-2-1.3l-2.8,3.2l-19.6-12.6l2.9-4.4l29.5,2.7l7-10.9l-2.1-1.3l-2.8,3.2l-26.9-2.3c2.4-5.5,1.9-13.2-3.7-16.8
		C-734.2,162.9-736.6,162.2-738.8,162.2L-738.8,162.2z M-743.6,170.6c1.9,0,3.9,0.7,6,2c6.1,3.9,7.3,9.1,1.9,17.5l-0.1,0.1v0.1h-0.1
		v0.1l-0.1,0.1v0.1l-0.1,0.1v0.1l-0.1,0.1l-0.1,0.1l-0.1,0.1l-0.1,0.1l-0.1,0.1l-0.1,0.1l-0.2,0.3l-0.2,0.3l-0.1,0.1l-0.1,0.1
		l-0.1,0.1l-0.1,0.1l-0.1,0.1l-0.1,0.1h-0.1v0.1l-0.1,0.1l-0.1,0.1v0.1l-0.1,0.1v0.1h-0.1l-18.3-11.7c0.8-1.5,1.6-3.2,2.4-4.4
		C-751.1,173.2-747.7,170.5-743.6,170.6L-743.6,170.6z M-189.3,181.1l-2.9,3.9l-40.5,8.5c-4.3,0.9-6.5,0.3-9.8-2.7v0.1h-0.1h-0.1
		v0.1h-0.1h-0.1v0.1h-0.1l-0.1,0.1h-0.1l-0.1,0.1l-0.1,0.1l-0.1,0.1l-0.1,0.1l-0.2,0.1l-0.2,0.1l-0.1,0.1l-0.1,0.1l-0.1,0.1h-0.1
		l-0.1,0.1l-0.1,0.1h-0.1v0.1h-0.1h-0.1v0.1h-0.1h-0.1v0.1l7.5,13.1l2.1-1.2c-0.6-2.6-1.6-5.2,0.7-6.5c1.1-0.6,1.9-0.9,3.2-1.2
		l7.4-1.6l9,15.7l-9.6,10.5l-2.9-3.1l-2.1,1.2l9.1,15.8l2.1-1.2l-1.3-4.1l35.5-39.6L-189.3,181.1L-189.3,181.1z M-194.9,188.5
		l0.1,0.1l-0.1,0.1l-0.1,0.1l-0.1,0.1l-0.1,0.1l-0.1,0.1l-0.2,0.1l-0.1,0.2l-0.2,0.2l-0.2,0.3l-0.3,0.3l-0.2,0.3l-0.3,0.3l-0.3,0.3
		l-0.3,0.3l-0.3,0.3l-0.7,0.7l-0.7,0.7l-0.7,0.8l-0.7,0.8l-0.8,0.9l-0.8,0.9l-1.7,1.8l-1.6,1.7l-0.8,0.9l-0.8,0.9l-0.7,0.8l-0.7,0.8
		l-0.7,0.7l-0.7,0.7l-0.3,0.3l-0.3,0.3l-0.3,0.3l-0.3,0.3l-0.3,0.3l-0.2,0.3l-0.2,0.3l-0.2,0.2l-0.1,0.2l-0.2,0.1l-0.1,0.1l-0.1,0.1
		l-0.1,0.1v0.1l-0.1,0.1l-8-13.9L-194.9,188.5L-194.9,188.5z M-169.7,215.3l-16.3,2.6l0.3,2.5c7.7,0.2,14.7,1.5,17.8,9.5l-44.7,17.1
		l-2.1-3.7l-2.3,0.9l6.3,16.5l2.3-0.9l-0.9-4.1l44.6-17.1c3.1,8.1-1.3,13.6-6.8,18.9l1.4,2.1l13.9-8.9l-0.1-0.1l-0.1-0.1l-0.1-0.1
		l-0.1-0.1l-0.1-0.1l-0.1-0.1l-0.1-0.1l-0.1-0.2l-0.1-0.1l-0.1-0.1l-0.1-0.2l-0.1-0.1l-0.1-0.2l-0.1-0.2l-0.1-0.2l-0.1-0.2l-0.1-0.2
		l-0.1-0.2l-0.2-0.4l-0.2-0.5l-0.3-0.5l-0.2-0.5l-0.2-0.5l-0.2-0.5l-0.2-0.5h0l-8.5-22.2C-169.3,219.4-169.9,216.8-169.7,215.3
		L-169.7,215.3z M-778.6,217.7l-3.5,9.7l4.9,0.1l31.1,27.2c3.3,2.9,4.2,5.1,3.7,9.5v0.1h0.1h0.1v0.1h0.1h0.1l0.1,0.1h0.1l0.1,0.1
		h0.1l0.1,0.1l0.1,0.1h0.1l0.2,0.1l0.3,0.1l0.1,0.1h0.1l0.1,0.1l0.1,0.1h0.1l0.1,0.1h0.1h0.1v0.1h0.1h0.1v0.1h0.1l6-13.9l-2.3-0.9
		c-1.7,2-3.2,4.3-5.7,3.3c-1.1-0.5-1.8-0.9-2.9-1.8l-5.7-5l7.2-16.6l14.2,1.3l-0.8,4.2l2.2,1l7.2-16.7l-2.2-0.9l-2.5,3.5
		L-778.6,217.7L-778.6,217.7z M-772.9,227.2L-772.9,227.2h0.1h0.1l0.1,0.1h0.2h0.3h0.2l0.3,0.1h0.3l0.3,0.1h0.4l0.3,0.1h0.4l0.5,0.1
		l0.5,0.1l0.9,0.1l1,0.1l1.1,0.1l1.1,0.1l1.1,0.1l1.2,0.1l2.4,0.2l2.5,0.3l1.2,0.1l1.1,0.1l1.1,0.1l1.1,0.1l1,0.1l0.9,0.1l0.5,0.1
		h0.4l0.5,0.1l0.3,0.1h0.4l0.3,0.1h0.3h0.3l0.3,0.1h0.3h0.1l0.2,0.1h0.1h0.1h0.1l-6.3,14.8l-19.7-17.1L-772.9,227.2L-772.9,227.2z
		 M-779,246c-7.7,0.1-12.7,8.2-15.2,17.1l-5.3,19.1l2.3,0.7v-0.1h0.1v-0.1v-0.1l0.1-0.1v-0.1l0.1-0.1v-0.1l0.1-0.1v-0.1l0.1-0.1
		l0.1-0.1l0.1-0.2l0.1-0.1l0.1-0.2l0.1-0.2l0.2-0.3l0.1-0.3l0.1-0.2l0.1-0.2l0.1-0.1l0.1-0.2l0.1-0.1l0.1-0.1v-0.1v-0.1l0.1-0.1
		v-0.1l0.1-0.1v-0.1v-0.1h0.1V279V279h0l45.5,12.6l-0.5,4.2l2.4,0.7l4.7-17.1l-2.3-0.7l-1.7,3.9l-20.7-5.7l0.9-3.5
		c3.1-11.2,3.7-23.6-8.3-26.9C-776.8,246.2-777.9,246-779,246L-779,246z M-781.5,255.8c1.2,0,2.4,0.2,3.7,0.6
		c8.3,2.3,10.3,8.9,8.3,16.2l-0.1,0.2l-0.1,0.3l-0.1,0.3l-0.1,0.2l-0.1,0.3l-0.1,0.3l-0.1,0.2l-0.1,0.3l-0.1,0.2l-0.1,0.2l-0.1,0.3
		l-0.1,0.2v0.1l-0.1,0.1l-0.1,0.1l-0.1,0.1l-0.1,0.1v0.1l-0.1,0.1l-0.1,0.1l-21.7-6c0-1.6,0.2-3.5,0.7-5.2
		C-790.4,258.4-786.6,255.6-781.5,255.8L-781.5,255.8z M-154.4,262l-2.3,0.6l0.4,4.2l-45.8,11.5l-1.6-3.9h-0.1h-0.1h-0.1v0.1h-0.1
		h-0.1h-0.1l-0.1,0.1h-0.1l-0.1,0.1h-0.1h-0.1l-0.3,0.1l-0.2,0.1h-0.1l-0.1,0.1h-0.1l-0.1,0.1h-0.1h-0.1l-0.1,0.1h-0.1h-0.1h-0.1
		h-0.1v0.1l4.3,17.1l2.3-0.6l-0.4-4.3l45.7-11.5l1.7,3.9l2.3-0.6L-154.4,262L-154.4,262z M-171.4,292.2l-1.2,0.1l-1.2,0.1
		c-14.7,1.8-26.6,11.5-24.9,25.7c1.6,12.9,17.7,20.5,30.3,18.9c14.8-1.8,26.7-11.5,24.9-25.7l-0.1-1.2l-0.3-1.2l-0.3-1.1l-0.4-1.1
		l-0.5-1.1l-0.5-1.1l-0.7-1l-0.7-0.9l-0.7-0.9l-0.9-0.9l-0.8-0.9l-0.9-0.8l-0.9-0.7l-1-0.7l-1.1-0.7l-1.1-0.7l-1.1-0.6l-1.1-0.5
		l-1.1-0.5l-1.2-0.5l-1.2-0.4l-1.2-0.4l-1.2-0.3l-1.3-0.3l-1.3-0.3l-1.2-0.1l-1.3-0.1l-1.3-0.1h-1.2L-171.4,292.2L-171.4,292.2z
		 M-787.6,296.1l-15.8,1.7c0.6,1.4,0.7,4.1,0.3,7.1l-3.3,28.6l2.4,0.3l1.1-4.1l46.9,5.5l0.1,4.2l2.5,0.3l3.3-29.2l0.1-0.5l0.1-0.5
		l0.1-0.5l0.1-0.5l0.1-0.5l0.1-0.5l0.1-0.5l0.1-0.5l0.1-0.2l0.1-0.3l0.1-0.2l0.1-0.2l0.1-0.2l0.1-0.2l0.1-0.1l0.1-0.2l0.1-0.2
		l0.1-0.1l0.1-0.2l0.1-0.1l0.1-0.1l0.1-0.1l0.1-0.1l0.1-0.1l-16.7-5.8l-0.9,2.7c8.7,5.3,13.1,10.6,11.8,21.6c-0.1,1.3-0.4,2.5-1,3.7
		l-24.3-2.8l0.3-3c0.6-5.3,3.3-6.9,9.5-7.3l0.3-2.5l-19.4-2.2l-0.3,2.4c5.9,1.9,8.1,4.1,7.5,9.3l-0.3,3l-20.3-2.3
		c-0.3-1.4-0.3-2.7-0.2-3.9c1.3-11.1,5.5-14.7,14.7-17.7L-787.6,296.1L-787.6,296.1z M-163.8,301.9c11.3,0.3,16.7,4.5,17.3,9.8
		l0.1,0.7l0.1,0.7l-0.1,0.7v0.7l-0.1,0.7l-0.1,0.7l-0.1,0.6l-0.3,0.6l-0.3,0.6l-0.3,0.6l-0.3,0.6l-0.5,0.5l-0.5,0.5l-0.5,0.5
		l-0.5,0.5l-0.7,0.5l-0.7,0.5l-0.8,0.5l-0.8,0.5l-0.9,0.5l-0.9,0.4l-1,0.4l-1.1,0.4l-1.1,0.3l-1.2,0.3l-1.3,0.3l-1.3,0.3l-1.4,0.3
		l-1.5,0.3l-1.5,0.3l-1.6,0.2l-1.7,0.3c-17.3,2.1-25.3-2.9-26.1-9.3c-0.9-7.6,4.5-13.1,23.1-15.3
		C-169.3,302-166.4,301.8-163.8,301.9L-163.8,301.9z M-603.5,324.3L-603.5,324.3l-0.1,0.1l-0.1,0.1l-0.1,0.1l-0.1,0.1l-0.1,0.1
		l-0.1,0.1l-0.1,0.1l-0.1,0.1h-0.1v0.1l-0.1,0.1l-0.1,0.1l-0.1,0.1v0.1h-0.1v0.1l-0.1,0.1v0.1v0.1v0.1c0,0.5,0.8,1,1.3,1.5
		L-603.5,324.3L-603.5,324.3L-603.5,324.3z M-194.7,340.8l-0.7,16.3l2.4,0.1c0.5-3.5,2.7-6.4,6.8-6.2l33.5,1.5v0.2l-44.8,26.7
		l-0.2,3.6l45.4,2c3.7,0.2,5.9,2.3,6.3,6.1l2.5,0.1l0.7-15.1l-2.5-0.1c-0.7,3.8-1.6,5.8-5.9,5.7l-29.9-1.4v-0.1v-0.1l39.1-23.1
		l0.6-13.9l-2.5-0.1c-0.5,3.5-3.1,6.3-7.7,6.1l-33.6-1.5c-4.5-0.3-6.8-3.3-7.1-6.8L-194.7,340.8L-194.7,340.8z M-778.1,343.8
		c-0.8,0-1.5,0-2.3,0c-12.1,0.5-26.3,7.7-25.6,25.1l0.9,20.5l2.4-0.1v-0.1h0.1v-0.1v-0.1v-0.1V389v-0.1v-0.1v-0.1v-0.1v-0.1l0.1-0.2
		v-0.1v-0.2V388l0.1-0.2v-0.2l0.1-0.4v-0.4v-0.2l0.1-0.2v-0.1v-0.2v-0.1l0.1-0.2v-0.1v-0.1v-0.1v-0.1v-0.1v-0.1v-0.1l0.1-0.1v-0.1
		v-0.1v0l47.1-2l0.9,4.1l2.4-0.1l-0.9-20.5C-753.4,350.3-766.5,344-778.1,343.8L-778.1,343.8z M-528.7,346.6L-528.7,346.6l0.2,0.2
		l0.1,0.1l0.1,0.1l0.1,0.1l0.1,0.1l0.1,0.1v0.1l0.1,0.1h0.1v0.1l0.1,0.1h0.1v0.1l0.1,0.1h0.1v0.1h0.1h0.1l0.1,0.1h0.1h0.1v0.1h0.1
		c0.5,0,1-0.8,1.5-1.3L-528.7,346.6L-528.7,346.6z M-776.4,353.8c16.6,0,21,6.1,21.4,14.3v0.5l0.1,0.4v0.5v0.5v0.4l-0.1,0.2v0.2v0.2
		v0.2v0.2v0.1v0.2l-0.1,0.1v0.2v0.1v0.2l-0.1,0.1v0.1v0.2l-0.1,0.1v0.1v0.1l-0.1,0.1v0.1v0.1l-0.1,0.1v0.1l-47.3,2.1
		c-0.4-1-0.7-3-0.8-5.6c-0.4-8.7,4-15.5,23.5-16.3C-778.7,353.8-777.5,353.8-776.4,353.8L-776.4,353.8z M-766.3,421.2l-3.9,12.3
		h-13.1v0.1l10.7,7.9l-4.1,12.5l0.1,0.1l10.5-7.7l10.5,7.7l0.1-0.1l-4.1-12.5l10.6-7.9v-0.1h-0.1h-0.1h-0.1h-0.1h-0.1h-0.1h-0.1
		h-0.1h-0.1h-0.2h-0.2h-0.2h-0.2h-0.2h-0.2h-0.5h-0.5h-0.5h-0.6h-0.6h-0.6h-1.2h-1.2h-0.6h-0.6h-0.6h-0.5h-0.5h-0.5h-0.2h-0.3h-0.2
		h-0.1h-0.2h-0.2h-0.1h-0.1h-0.1h-0.1h-0.1h-0.1h-0.1h-0.1h-0.1l-3.8-12.3H-766.3L-766.3,421.2z M-182.9,421.2l-3.9,12.3h-13.1v0.1
		l10.7,7.9l-4.1,12.5l0.1,0.1l10.5-7.7l10.5,7.7l0.1-0.1l-4.1-12.5l10.6-7.9v-0.1h-0.1h-0.1h-0.1h-0.1h-0.1h-0.1h-0.1h-0.2h-0.1
		h-0.2h-0.2h-0.2h-0.2h-0.3h-0.5h-0.5h-0.5h-0.5h-0.6h-0.6h-1.3h-1.2h-0.6h-0.6h-0.5h-0.6h-0.5h-0.5h-0.2h-0.2h-0.2h-0.2h-0.2h-0.1
		h-0.2h-0.1h-0.1h-0.1h-0.1h-0.1h-0.1h-0.1L-182.9,421.2L-182.9,421.2L-182.9,421.2z M-727.4,488.6l-1.5,0.9l1.1,2.7l-20.6,12.6
		c-6.8,4.1-6.2,10.1-2.2,16.7c5.1,8.3,11.3,7.4,16.7,4.1l15.9-9.7c2.4-1.4,4.5-0.5,6,1.4c1,2,0.8,4.4-1.5,6.1l-17.9,14.1
		c-2.3,1.8-4.9,1.3-6.5-0.5l-1.3,1.1l6.8,8.7l1.3-1c-1.3-2.1-1.4-4.5,0.7-6.1l17.9-13.9l0.1,0.1l-11.3,33.4l1.5,1.9l24.3-18.9
		c1.9-1.5,4.1-1.4,5.9,0.4l1.3-1l-6.3-8.1l-1.3,1c1.3,2.3,1.7,3.7-0.6,5.5l-15.9,12.5l-0.1-0.1l10-29l-5.7-7.3l-5.5-9l-1.4,0.9
		c1.1,2.1,0.9,4.5-1.5,6l-17.1,10.5c-4.7,2.8-9.3,1.1-11.7-3c-2.1-3.4-1.3-8.7,2.8-11.2l20.6-12.7l1.9,2.2h0.1v-0.1h0.1l0.1-0.1h0.1
		l0.1-0.1l0.1-0.1h0.1l0.1-0.1h0.1l0.1-0.1l0.1-0.1h0.1l0.1-0.1h0.1V499h0.1l0.1-0.1h0.1v-0.1h0.1h0.1v-0.1l0,0L-727.4,488.6
		L-727.4,488.6z M-222.1,488.8l-3.1,6.3l3.3,0.3l19.1,20.4c2,2.2,2.5,3.7,1.9,6.6l0.1,0.1h0.1l0.1,0.1h0.1l0.1,0.1h0.1l0.1,0.1h0.1
		l0.1,0.1l0.1,0.1l0.1,0.1l0.1,0.1h0.1l0.1,0.1h0.1v0.1h0.1h0.1v0.1h0.1l0.1,0.1h0.1v0l4.9-8.9l-1.4-0.8c-1.3,1.3-2.5,2.7-4,1.9
		c-0.7-0.4-1.2-0.8-1.9-1.4l-3.5-3.7l5.9-10.7l9.5,1.8l-0.9,2.8l1.5,0.8l5.9-10.8l-1.5-0.7l-1.9,2.1L-222.1,488.8L-222.1,488.8z
		 M-218.9,495.6L-218.9,495.6h0.2h0.1l0.1,0.1h0.1l0.2,0.1h0.2l0.2,0.1l0.2,0.1h0.3l0.3,0.1l0.3,0.1l0.3,0.1l0.3,0.1l0.7,0.1
		l0.7,0.1l0.7,0.1l0.7,0.2l0.8,0.1l0.7,0.1l1.7,0.3l1.6,0.3l0.8,0.1l0.7,0.1l0.8,0.2l0.7,0.1l0.7,0.1l0.6,0.1l0.3,0.1l0.3,0.1
		l0.3,0.1l0.3,0.1h0.2l0.3,0.1l0.2,0.1h0.1l0.2,0.1h0.1l0.1,0.1h0.1h0.1h0.1h0.1l-5.3,9.5L-218.9,495.6L-218.9,495.6L-218.9,495.6z
		 M-232.3,506c-0.3,1.5-0.7,3-1.3,3.7c-0.4,0.5-1.1,1.3-2.1,2.1c-0.9,0.7-1.7,1.6-2.5,2.8c-5.5,7.9,0.5,18.2,7.9,23.3
		c8,5.6,17.7,5.8,22.9-1.8l0.3-0.5l0.3-0.5l0.3-0.5l0.2-0.5l0.2-0.5l0.2-0.5l0.2-0.5l0.1-0.5l0.1-0.5l0.1-0.5l0.1-0.5l0.1-0.5
		l0.1-0.6v-0.5l-0.1-0.5v-0.5l-0.1-0.6l-0.1-0.5l-0.1-0.5l-0.1-0.5l-0.1-0.5l-0.1-0.5l-0.2-0.6l-0.2-0.5l-0.3-0.5l-0.2-0.5l-0.3-0.5
		l-0.3-0.5l-0.3-0.5l-0.3-0.5l-0.3-0.5l-0.4-0.5l-1.5,1.1c2.3,3.3,3.1,7.9,0.7,11.3c-4.5,6.5-14.3,3.3-20.9-1.2
		c-5-3.5-9.5-9.9-5.9-15c2.8-4,8.9-3.8,13.9-3.2l0.7-1.9L-232.3,506L-232.3,506z M-247.8,528.9l-7.5,9.3l1.3,1.1l2.1-1.9l24.7,20.1
		l-1.4,2.5v0.1h0.1v0.1h0.1v0.1h0.1v0.1h0.1l0.1,0.1h0.1v0.1l0.1,0.1l0.1,0.1l0.1,0.1h0.1l0.1,0.1v0.1h0.1l0.1,0.1l0.1,0.1h0.1v0.1
		h0.1v0.1h0.1h0l7.5-9.3l-1.3-1.1l-2.1,1.9l-24.7-20.1l1.5-2.5L-247.8,528.9L-247.8,528.9z M-689.2,542.7l-1.2,1.1l1.6,2.3
		l-23.4,21.7l-2.3-1.8v0.1h-0.1v0.1h-0.1v0.1l-0.1,0.1h-0.1l-0.1,0.1v0.1h-0.1l-0.1,0.1l-0.1,0.1l-0.1,0.1l-0.1,0.1l-0.1,0.1
		l-0.1,0.1h-0.1v0.1h-0.1v0.1h-0.1v0.1h-0.1v0.1h-0.1l8.1,8.8l1.2-1.1l-1.6-2.4l23.4-21.7l2.3,1.8l1.2-1.1L-689.2,542.7
		L-689.2,542.7z M-256.3,545.2c-4.1-0.2-8.1,3-11.3,6.4l-9.1,9.5l1.2,1.1l0.1-0.1l0.1-0.1h0.1V562h0.1l0.1-0.1l0.1-0.1l0.1-0.1
		l0.1-0.1l0.1-0.1l0.1-0.1l0.1-0.1l0.3-0.1l0.2-0.2l0.1-0.1l0.1-0.1l0.1-0.1l0.1-0.1l0.1-0.1l0.1-0.1l0.1-0.1h0.1v-0.1h0.1v-0.1h0.1
		l0.1-0.1h0.1l23.1,22.1l-1.7,2.3l1.2,1.1l8.2-8.7l-1.1-1.1l-2.3,1.8l-11.4-10.9l2.5-2.5l19.3,5.6l6-6.3l-1.2-1.1l-2.2,1.8l-17.5-5
		c2.3-3.4,2.9-8.5-0.3-11.7C-252.6,546-254.5,545.3-256.3,545.2L-256.3,545.2z M-261,550.1c1.7,0,3.4,0.6,5.1,2.3
		c3.6,3.4,3.7,7-0.9,11.9v0.1h-0.1l-0.1,0.1l-0.1,0.1v0.1h-0.1l-0.1,0.1l-0.1,0.1l-0.1,0.1l-0.1,0.1l-0.1,0.1l-0.1,0.1l-0.1,0.2
		l-0.1,0.1l-0.1,0.1l-0.1,0.1l-0.1,0.1l-0.1,0.1l-0.1,0.1l-0.1,0.1v0.1h-0.1l-0.1,0.1l-0.1,0.1v0.1h-0.1l-10.6-10.1
		c0.7-0.9,1.5-1.9,2.1-2.6C-265.2,551.4-263.1,550.2-261,550.1L-261,550.1z M-678.3,553.6l-9.1,6.4l0.9,1.5
		c4.7-2.1,9.3-3.5,13.6,0.5l-22,23.7l-2.3-1.7l-1.1,1.3l8.8,8.1l1.1-1.2l-1.7-2.2l21.9-23.7c4.3,3.9,3.3,8.7,1.5,13.5l1.5,0.8
		l5.7-9.5h-0.1l-0.1-0.1h-0.1l-0.1-0.1h-0.1l-0.1-0.1l-0.1-0.1l-0.1-0.1l-0.1-0.1l-0.1-0.1l-0.1-0.1l-0.1-0.1l-0.1-0.1l-0.1-0.1
		l-0.1-0.1l-0.1-0.1l-0.3-0.1l-0.3-0.2l-0.3-0.2l-0.3-0.3l-0.3-0.2l-0.3-0.3l-0.3-0.2l-0.3-0.3h0l-11.8-10.9
		C-676.8,556-677.9,554.6-678.3,553.6L-678.3,553.6z M-281.2,564c-0.4,1-1.6,2.3-3.1,3.7l-14.9,12.5l1.1,1.3l2.4-1.5l20.6,24.4
		l-1.9,2.1l1.1,1.3l15.1-12.8l0.3-0.3l0.3-0.3l0.3-0.2l0.3-0.2l0.3-0.2l0.3-0.2l0.3-0.2l0.1-0.1l0.1-0.1l0.1-0.1l0.1-0.1l0.1-0.1
		l0.1-0.1l0.1-0.1l0.1-0.1l0.1-0.1l0.1-0.1h0.1l0.1-0.1l0.1-0.1h0.1l0.1-0.1h0.1l0.1-0.1h0.1h0l-5.5-10.5l-1.7,0.9
		c1.9,6.6,1.6,11.3-4.1,16.1c-0.7,0.6-1.4,1.1-2.3,1.4l-10.6-12.6l1.5-1.3c2.7-2.3,4.8-1.9,8.1,0.7l1.3-1.1l-8.5-10l-1.3,1
		c2.1,3.7,2.1,5.8-0.6,8.1l-1.5,1.3l-8.9-10.5c0.5-0.8,1.1-1.4,1.7-2c5.8-4.9,9.5-4.7,15.4-1.9l1.1-1.5L-281.2,564L-281.2,564z
		 M-657.9,573.4l-1,1.3l2,2l-19.2,25.5l-2.5-1.3l-0.9,1.3l15.8,11.9l0.3,0.3l0.3,0.2l0.3,0.3l0.3,0.2l0.3,0.3l0.3,0.2l0.2,0.3
		l0.1,0.1l0.1,0.1l0.1,0.1l0.1,0.1l0.1,0.1l0.1,0.1l0.1,0.1l0.1,0.1l0.1,0.1l0.1,0.1l0.1,0.1l0.1,0.1l0.1,0.1l0.1,0.1l0.1,0.1
		l0.1,0.1v0.1l0.1,0.1l9.1-7.7l-1.3-1.5c-6.1,3.3-10.7,4-16.6-0.5c-0.7-0.5-1.3-1.1-1.9-1.9l9.9-13.1l1.7,1.2c2.8,2.1,2.9,4.3,1,8.1
		l1.3,1l7.9-10.5l-1.3-1c-3.1,2.8-5.1,3.3-7.9,1.1l-1.7-1.2l8.3-11c0.9,0.3,1.6,0.7,2.3,1.3c6,4.5,6.7,8.1,5.3,14.5l1.7,0.8l4.4-9.7
		c-1-0.1-2.6-1.1-4.3-2.3L-657.9,573.4L-657.9,573.4z M-301.7,582.4l-7.7,5.1l4.6,20.7l-17.3-12.3l-7.9,5.2l0.9,1.4l2.6-1.3
		l14.3,23.3c2,3.1,1,4.4-0.5,6.4v0.1h0.1v0.1v0.1h0.1v0.1l0.1,0.1l0.1,0.1v0.1h0.1v0.1l0.1,0.1l0.1,0.1v0.1l0.1,0.1l0.1,0.1v0.1h0.1
		v0.1l0.1,0.1v0.1h0.1v0.1h0l8.9-5.8l-0.9-1.4c-2.5,1.4-4.5,1.1-6.1-1.6l-12.9-20.5l0.1-0.1l20.6,14.7l1.1-0.7l-5.3-25l0.1-0.1
		l16.5,23.4l-2.1,1.9l0.9,1.3l10-6.7l-0.9-1.3l-2.6,1.2l-18.6-26l2.2-1.9L-301.7,582.4L-301.7,582.4z M-634.8,590.9l-0.8,1.4
		l0.1,0.1l0.1,0.1h0.1v0.1h0.1v0.1h0.1l0.1,0.1l0.1,0.1l0.1,0.1l0.1,0.1l0.1,0.1l0.1,0.1l0.2,0.2l0.2,0.1l0.1,0.1l0.1,0.1l0.1,0.1
		l0.1,0.1l0.1,0.1l0.1,0.1l0.1,0.1l0.1,0.1h0.1v0.1h0.1v0.1h0.1l-16.5,27.4l-2.6-1.1l-0.9,1.4l11.9,7.1c10.1,6.1,19-0.1,23.2-7.1
		c4.2-7.1,5.5-17.7-4.7-23.8L-634.8,590.9L-634.8,590.9z M-628,597.3c0.7,0.2,1.9,0.7,3.5,1.7c5.1,3,7.2,8.1,0.4,19.3
		c-6.7,11.3-12.2,11.7-17.3,8.7l-0.3-0.2l-0.3-0.1l-0.3-0.2l-0.3-0.1l-0.2-0.1l-0.1-0.1l-0.1-0.1l-0.1-0.1l-0.1-0.1l-0.1-0.1
		l-0.1-0.1l-0.1-0.1l-0.1-0.1l-0.1-0.1l-0.1-0.1l-0.1-0.1l-0.1-0.1l-0.1-0.1l-0.1-0.1l-0.1-0.1l-0.1-0.1l-0.1-0.1h-0.1l-0.1-0.1
		v-0.1l-0.1-0.1l-0.1-0.1L-628,597.3L-628,597.3z M-342.9,607.2l-6.1,3.5l2.5,2.1l4.3,27.6c0.5,2.9,0,4.5-2.2,6.5v0.1h0.1v0.1
		l0.1,0.1v0.1l0.1,0.1v0.1l0.1,0.1v0.1l0.1,0.1l0.1,0.1l0.1,0.1v0.1l0.1,0.1v0.1l0.1,0.1v0.1h0.1v0.1v0.1h0.1v0.1v0.1l9.1-4.6
		l-0.7-1.5c-1.8,0.3-3.5,0.9-4.4-0.7c-0.3-0.7-0.5-1.3-0.7-2.2l-0.9-5.1l10.9-5.5l6.9,6.8l-2.3,1.9l0.7,1.5l10.9-5.6l-0.7-1.4
		l-2.8,0.7L-342.9,607.2L-342.9,607.2z M-344.1,614.6L-344.1,614.6l0.1,0.1l0.1,0.1l0.1,0.1l0.1,0.1l0.1,0.1l0.1,0.1l0.1,0.2
		l0.2,0.1l0.1,0.2l0.2,0.1l0.2,0.2l0.2,0.2l0.2,0.3l0.5,0.4l0.5,0.5l0.5,0.5l0.5,0.5l0.5,0.5l0.6,0.6l1.1,1.1l1.2,1.2l0.5,0.5
		l0.5,0.6l0.5,0.5l0.5,0.5l0.5,0.5l0.5,0.5l0.2,0.2l0.2,0.2l0.2,0.2l0.2,0.2l0.2,0.1l0.1,0.2l0.1,0.1l0.1,0.1l0.1,0.1l0.1,0.1
		l0.1,0.1l0.1,0.1l0.1,0.1l0.1,0.1l-9.7,4.9L-344.1,614.6L-344.1,614.6L-344.1,614.6z M-590.5,614.9c-3.9,0-7.3,2.4-8.7,5.7
		c-5.6,13.2,13.5,16.7,9.7,25.6c-1.4,3.2-5.3,4.6-8.4,3.3c-5.3-2.3-7.1-8.3-7.3-13.9l-1.9-0.5l-2.4,10.9c1.1,0.1,2.3,0.1,3.3,0.5
		c1.6,0.7,3.6,3.3,7.1,4.8c5.7,2.5,12.1,0.3,14.5-5.5c5.5-13.1-14.1-16.1-10.1-25.5c1.2-2.9,4.2-4,7.6-2.5c4.7,1.9,5.3,7.9,5.5,12.2
		h0.1h0.1h0.1v0.1h0.1h0.1h0.1h0.1h0.1l0.1,0.1h0.1h0.2l0.1,0.1h0.1h0.1h0.1h0.1h0.1l0.1,0.1h0.1h0.1h0.1h0.1h0.1l2.4-10.6
		c-1.3,0.2-2.7,0.1-3.7-0.4c-0.9-0.3-1.6-0.9-2.4-1.6c-0.7-0.7-1.7-1.3-3.1-1.9C-587.9,615.2-589.2,614.9-590.5,614.9L-590.5,614.9z
		 M-370.2,619.4c-0.7,0.8-2.3,1.6-4.3,2.3l-17.7,6.1l0.5,1.6l2.8-0.5l10.4,30.1l-2.5,1.3v0.1v0.1h0.1v0.1v0.1v0.1l0.1,0.1v0.1v0.1
		l0.1,0.1v0.1l0.1,0.1l0.1,0.1v0.1v0.1l0.1,0.1v0.1v0.1l0.1,0.1v0.1v0.1l0.1,0.1v0.1h0l11.3-3.9l-0.5-1.5l-2.8,0.5l-5.2-15.1
		l2.9-0.9c3.2-1.1,5.1,0.8,6.7,4l1.5-0.5l-4.3-12.3l-1.5,0.5c0.5,3,0.3,5.7-2.9,6.7l-2.9,1l-4.7-13.5c0.7-0.5,1.5-0.9,2.3-1.3
		c6.7-2.3,10.1,0.1,14.9,4.5l1.7-1.1L-370.2,619.4L-370.2,619.4z M-571.6,622l-5.4,9.7l1.5,0.9c3.3-3.9,6.9-7.1,12.5-5.5l-9.6,30.9
		l-2.8-0.5l-0.5,1.6l11.4,3.5l0.5-1.6l-2.6-1.3l9.6-30.8c5.5,1.7,6.7,6.3,7.2,11.5l1.7,0.1l1.1-11.1h-0.1h-0.1l-0.1,0.1h-0.1h-0.1
		h-0.1h-0.1h-0.1h-0.1h-0.1h-0.1l-0.2-0.1h-0.1h-0.1h-0.1l-0.1-0.1h-0.2h-0.1l-0.3-0.1l-0.3-0.1l-0.3-0.1l-0.3-0.1l-0.4-0.1
		l-0.3-0.1l-0.4-0.1h0l-15.3-4.8C-569.2,623.5-570.8,622.7-571.6,622L-571.6,622z M-405.5,630.7c-1.1,0-2.2,0.1-3.4,0.4l-0.8,0.2
		l-0.8,0.3l-0.7,0.3l-0.7,0.4l-0.7,0.4l-0.6,0.5l-0.7,0.5l-0.6,0.5l-0.5,0.6l-0.5,0.6l-0.5,0.7l-0.5,0.7l-0.5,0.7l-0.4,0.7l-0.4,0.7
		l-0.3,0.8l-0.3,0.7l-0.3,0.8l-0.3,0.9l-0.2,0.8l-0.2,0.9l-0.2,0.8l-0.1,0.9l-0.1,0.9l-0.1,0.9l-0.1,0.8v0.9v0.9l0.1,0.8l0.1,0.8
		l0.1,0.9l0.1,0.7l0,0c2.3,9.8,9.7,17.1,19.1,14.9c8.6-2,12.5-13.3,10.5-21.7C-391.9,637.4-397.8,630.8-405.5,630.7L-405.5,630.7z
		 M-537.8,632.3l0.6,3.3l-13.8,24.2c-1.5,2.6-2.8,3.5-5.8,3.7v0.1v0.1v0.1h-0.1v0.1v0.1v0.1v0.1l-0.1,0.1v0.1v0.1v0.1l-0.1,0.2v0.1
		v0.1l-0.1,0.1v0.1v0.1v0.1v0.1h-0.1v0.1v0.1l10,2.1l0.3-1.7c-1.6-0.8-3.3-1.5-2.9-3.3c0.1-0.8,0.3-1.3,0.8-2.1l2.5-4.5l11.9,2.5
		l1.1,9.6l-2.9,0.1l-0.3,1.6l12,2.5l0.3-1.6l-2.6-1.1l-4.1-35.8L-537.8,632.3L-537.8,632.3z M-407.1,632.9h0.5h0.5l0.4,0.1l0.5,0.1
		l0.4,0.1l0.4,0.1l0.5,0.1l0.4,0.2l0.4,0.3l0.4,0.3l0.4,0.3l0.4,0.3l0.3,0.4l0.4,0.5l0.3,0.5l0.4,0.5l0.3,0.5l0.3,0.6l0.3,0.7
		l0.3,0.7l0.3,0.7l0.3,0.8l0.3,0.8l0.3,0.9l0.3,0.9l0.3,1l0.3,1l0.3,1.1l0.3,1.1c2.7,11.5-0.1,17.2-4.4,18.2c-5,1.2-9.1-2-11.9-14.4
		c-2.7-11.5,0.1-17.1,4.3-18.2l0.5-0.1l0.5-0.1L-407.1,632.9L-407.1,632.9z M-519,635.4l-3.5,10.6l1.6,0.6c2.5-4.5,5.5-8.4,11.3-7.7
		l-3.6,32.1l-2.9,0.1l-0.2,1.7l11.9,1.3l0.2-1.7l-2.8-0.7l3.6-32.1c5.8,0.7,7.8,5.1,9.3,10l1.7-0.2l-1.1-11.1l-0.1,0.1h-0.1
		l-0.1,0.1h-0.1l-0.1,0.1h-0.1l-0.1,0.1h-0.1h-0.1l-0.1,0.1h-0.1h-0.1h-0.1h-0.1l-0.2,0.1h-0.1h-0.1h-0.2h-0.3h-0.3h-0.3l-0.3-0.1
		h-0.4l-0.4-0.1h-0.3l-16-1.8C-516.4,636.5-518.2,636-519,635.4L-519,635.4z M-440.1,636.7c-1.1,0.8-2.3,1.3-3.4,1.4
		c-1,0.1-1.9-0.1-2.9-0.3c-1-0.2-2.1-0.3-3.7-0.2c-5.9,0.5-9.4,5.5-9,10.3c1.3,14.3,19.7,8.5,20.5,18.1c0.3,3.5-2.5,6.5-5.9,6.8
		c-5.7,0.5-10.1-4.1-12.9-8.9l-1.9,0.5l2.9,10.7c1.1-0.5,2.1-1.1,3.2-1.2c1.8-0.1,4.7,1.3,8.5,0.9c6.2-0.5,10.9-5.4,10.3-11.7
		c-1.3-14.1-20-7.6-20.9-17.7c-0.2-3.2,1.9-5.5,5.6-5.8c5-0.5,8.4,4.5,10.6,8.2h0.1v-0.1h0.1h0.1h0.1l0.1-0.1h0.1l0.1-0.1h0.1h0.1
		l0.1-0.1l0.2-0.1l0.1-0.1h0.1h0.1l0.1-0.1h0.1l0.1-0.1h0.1h0.1v-0.1h0.1h0.1h0.1h0L-440.1,636.7L-440.1,636.7z M-536.6,638.4
		L-536.6,638.4L-536.6,638.4l0.1,0.2v0.1v0.1v0.1v0.2l0.1,0.2v0.2v0.2l0.1,0.3v0.3l0.1,0.3v0.3l0.1,0.3l0.1,0.6l0.1,0.7l0.1,0.7
		l0.1,0.7l0.1,0.8l0.1,0.8l0.2,1.6l0.2,1.7l0.1,0.8l0.1,0.8l0.1,0.7l0.1,0.7l0.1,0.7l0.1,0.7v0.3l0.1,0.3v0.3v0.3l0.1,0.2v0.3v0.2
		l0.1,0.2v0.1v0.1v0.1l0.1,0.1v0.1v0.1v0.1l-10.6-2.3L-536.6,638.4L-536.6,638.4z M-465.9,638.7c-0.9,0.5-2.7,0.7-4.8,0.7l-19.5-0.1
		v1.7l2.8,0.5l-0.2,31.9l-2.9,0.4v1.7l19.9,0.1h0.3h0.4l0.3,0.1h0.4l0.3,0.1h0.3l0.3,0.1h0.1h0.2l0.1,0.1h0.1l0.1,0.1h0.2l0.1,0.1
		h0.1l0.1,0.1h0.1l0.1,0.1h0.1l0.1,0.1h0.1l0.1,0.1l0.1,0.1h0.1l0.1,0.1l2.7-11.6l-1.9-0.4c-2.9,6.2-6.1,9.5-13.5,9.5
		c-0.9-0.1-1.8-0.1-2.7-0.5l0.1-16.5h2.1c3.5,0.1,4.8,1.7,5.6,5.8l1.7,0.1l0.1-13.2h-1.7c-0.8,4.1-2.1,5.7-5.7,5.7l-2.1-0.1
		l0.1-13.7c0.9-0.3,1.7-0.5,2.6-0.5c7.6,0.1,10.3,2.6,12.9,8.5l1.9-0.3L-465.9,638.7L-465.9,638.7z"/>
	<path class="st8" d="M-474.3,612.1l13.5-0.3l13.3-1l13.1-1.7l12.9-2.3l12.7-2.9l12.4-3.5l12.2-4.1l11.9-4.7l11.6-5.2l11.3-5.8
		l10.9-6.3l10.6-6.8l10.3-7.3l9.9-7.8l9.5-8.2l9.1-8.7l8.7-9.1l8.2-9.5l7.8-9.9l7.3-10.3l6.8-10.6l6.3-11l5.8-11.3l5.3-11.6
		l4.7-11.9l4.1-12.2l3.5-12.4l2.9-12.7l2.3-12.9l1.7-13.1l1-13.3l0.3-13.5c0-144.6-117.2-261.8-261.8-261.8
		c-144.5,0-261.8,117.2-261.8,261.8C-736.1,494.9-618.8,612.1-474.3,612.1L-474.3,612.1z"/>
</g>
</svg>
