<svg xmlns="http://www.w3.org/2000/svg" xmlns:xlink="http://www.w3.org/1999/xlink" width="1000" height="1000" viewBox="0 0 1000 1000">
  <defs>
    <clipPath id="clip-SousChef_Background">
      <rect width="1000" height="1000"/>
    </clipPath>
  </defs>
  <g id="SousChef_Background" data-name="SousChef Background" clip-path="url(#clip-SousChef_Background)">
    <rect width="1000" height="1000" fill="#009622"/>
    <g id="undraw_cooking_lyxy-2" transform="translate(460.798 551.62)">
      <rect id="Rectangle_264" data-name="Rectangle 264" width="3.554" height="56.433" transform="matrix(0.836, -0.548, 0.548, 0.836, 14.828, 30.374)" fill="#e6e6e6"/>
      <path id="Path_28" data-name="Path 28" d="M257.067,166.742l6.876,10.483a.915.915,0,0,1-1.531,1l-7.9-12.052a6.529,6.529,0,0,0-3.139.516l8.612,13.131a.915.915,0,1,1-1.531,1L249.837,167.7a6.53,6.53,0,0,0-1.724,2.674l7.9,12.052a.915.915,0,1,1-1.531,1l-6.876-10.483a16.207,16.207,0,0,0,2.865,9.572c3.882,5.919,10.214,8.627,14.143,6.05s3.968-9.464.086-15.383A16.208,16.208,0,0,0,257.067,166.742Z" transform="translate(-246.342 -156.075)" fill="#e6e6e6"/>
      <rect id="Rectangle_265" data-name="Rectangle 265" width="3.375" height="56.462" transform="translate(27.618 22.094)" fill="#e6e6e6"/>
      <ellipse id="Ellipse_12" data-name="Ellipse 12" cx="8.439" cy="12.888" rx="8.439" ry="12.888" transform="translate(20.867)" fill="#e6e6e6"/>
      <ellipse id="Ellipse_13" data-name="Ellipse 13" cx="7" cy="10.545" rx="7" ry="10.545" transform="translate(22.293 2.271)" fill="#ccc"/>
      <ellipse id="Ellipse_14" data-name="Ellipse 14" cx="39.202" cy="2.249" rx="39.202" ry="2.249" transform="translate(0 76.8)" fill="#e6e6e6"/>
      <path id="Path_29" data-name="Path 29" d="M431.338,626.279a125.228,125.228,0,0,0-44.429,0,1.621,1.621,0,0,1-1.91-1.593V604.557h48.248v20.129a1.621,1.621,0,0,1-1.91,1.593Z" transform="translate(-368.953 -547.263)" fill="#fbfbfc"/>
      <path id="Path_30" data-name="Path 30" d="M369.971,378.219a10,10,0,0,0-3.273.548,19.284,19.284,0,0,0-34.941-.177,10.016,10.016,0,1,0,1.311,18.82,19.281,19.281,0,0,0,32.39-.233,10.017,10.017,0,1,0,4.515-18.958Z" transform="translate(-310.092 -335.787)" fill="#fbfbfc"/>
      <path id="Path_31" data-name="Path 31" d="M419.215,477.863H419a19.212,19.212,0,0,1,1.857-8.291l.195.092A19,19,0,0,0,419.215,477.863Z" transform="translate(-399.291 -426.815)" fill="#3f3d56"/>
      <path id="Path_32" data-name="Path 32" d="M762.676,479.332h-.215a19.01,19.01,0,0,0-1.755-8.023l.2-.09a19.223,19.223,0,0,1,1.775,8.114Z" transform="translate(-704.197 -428.284)" fill="#3f3d56"/>
      <path id="Path_33" data-name="Path 33" d="M384.811,667.616l-.052-.209a106.77,106.77,0,0,1,15.153-2.264c8.28-.689,20.752-.855,33.147,2.265l-.053.209c-12.365-3.111-24.81-2.946-33.072-2.259A106.568,106.568,0,0,0,384.811,667.616Z" transform="translate(-368.738 -600.955)" fill="#3f3d56"/>
      <path id="Path_34" data-name="Path 34" d="M384.811,694.616l-.052-.209a106.775,106.775,0,0,1,15.153-2.265c8.28-.688,20.752-.854,33.147,2.265l-.053.209c-12.365-3.111-24.81-2.946-33.072-2.259A106.568,106.568,0,0,0,384.811,694.616Z" transform="translate(-368.738 -625.047)" fill="#3f3d56"/>
      <path id="Path_35" data-name="Path 35" d="M384.811,721.616l-.052-.209a106.76,106.76,0,0,1,15.153-2.264c8.28-.689,20.752-.855,33.147,2.265l-.053.209c-12.365-3.111-24.81-2.946-33.072-2.259A106.53,106.53,0,0,0,384.811,721.616Z" transform="translate(-368.738 -649.139)" fill="#3f3d56"/>
      <path id="Path_36" data-name="Path 36" d="M634.352,443.908l-2.609-.887,2.505-12.787-1.722-.157a8.8,8.8,0,0,1-6.785,1.409l4.593,6.941-2.342,1.653-7.471-8.961a2.247,2.247,0,0,1-.521-1.439h0a2.247,2.247,0,0,1,1.625-2.159l7.978-2.3,9.342,1.044c1.412,2.153,1.468,3.651-.682,4.083Z" transform="translate(-578.644 -387.243)" fill="#2f2e41"/>
      <path id="Path_37" data-name="Path 37" d="M715.126,590.609h0a1.719,1.719,0,0,1-1.493-2.338l1.3-3.336c.659-1.248,1.563-1.092,2.631,0l.522,1.531a.988.988,0,0,1-.058.773l-1.265,2.445A1.719,1.719,0,0,1,715.126,590.609Z" transform="translate(-662.089 -528.97)" fill="#2f2e41"/>
      <path id="Path_38" data-name="Path 38" d="M683.812,550.046h0a1.719,1.719,0,0,1-1.493-2.338l1.3-3.336c.659-1.248,1.563-1.092,2.631,0l.522,1.531a.988.988,0,0,1-.058.773l-1.265,2.445A1.719,1.719,0,0,1,683.812,550.046Z" transform="translate(-634.147 -492.775)" fill="#2f2e41"/>
      <circle id="Ellipse_15" data-name="Ellipse 15" cx="2.923" cy="2.923" r="2.923" transform="translate(48.401 19.923)" fill="#ffb9b9"/>
      <path id="Path_39" data-name="Path 39" d="M478.506,222.307l-4.019,2.088-.835-3.758,2.766-1.722Z" transform="translate(-422.641 -195.339)" fill="#ffb9b9"/>
      <path id="Path_40" data-name="Path 40" d="M692.982,321.234c-4.01-1.211-7.648-1.839-10.282-.887.908-2.553-.768-6.452-2.609-10.438a4.9,4.9,0,0,1,3.5-1.618c1.57,1.14,2.664.408,3.5-1.357a9.061,9.061,0,0,1,5.271,1.67A18.008,18.008,0,0,0,692.982,321.234Z" transform="translate(-632.264 -281.687)" fill="#3f3d56"/>
      <path id="Path_41" data-name="Path 41" d="M660.9,342.208a6.275,6.275,0,0,0-1.774,1.775,9.737,9.737,0,0,1-2.422-2.012,4.309,4.309,0,0,1-.789-4.031l1.784-5.8a2.542,2.542,0,0,1,.827-1.226l.235-.191,2.349,4.436-2.349,4.384A9,9,0,0,0,660.9,342.208Z" transform="translate(-610.514 -302.922)" fill="#3f3d56"/>
      <path id="Path_42" data-name="Path 42" d="M690.578,440.739h0a1.508,1.508,0,0,1-2.118-1.154l-.388-2.657,1.357-.731,1.722,2.254a1.508,1.508,0,0,1-.573,2.288Z" transform="translate(-639.385 -397.034)" fill="#ffb9b9"/>
      <path id="Path_43" data-name="Path 43" d="M686.085,248.353l-.5.015-1.384-1.961a7.39,7.39,0,0,0-4.457,2.134l-.125-.831a3.134,3.134,0,0,1,2.467-3.534h0a3.134,3.134,0,0,1,3.723,2.548Z" transform="translate(-631.812 -225.635)" fill="#2f2e41"/>
      <path id="Path_44" data-name="Path 44" d="M686.7,433.061h0a1.508,1.508,0,0,1,1.154-2.118l2.657-.388.731,1.357-2.254,1.722a1.508,1.508,0,0,1-2.288-.573Z" transform="translate(-638.042 -392)" fill="#ffb9b9"/>
      <path id="Path_45" data-name="Path 45" d="M729.379,332.918a29.675,29.675,0,0,0-8.178,2.1,4,4,0,0,0-.887-2.349c2.625-.691,5.006-1.5,6.472-2.766l-.887-6.68,1.931-2.192.333.174a2.224,2.224,0,0,1,1.127,1.415,27.144,27.144,0,0,1,.929,9.07A1.128,1.128,0,0,1,729.379,332.918Z" transform="translate(-668.155 -294.274)" fill="#3f3d56"/>
      <path id="Path_46" data-name="Path 46" d="M271.558,717.975a6.188,6.188,0,0,1-7.054,0,.479.479,0,0,1-.226-.441l.734-9.538h5.934l.838,9.534A.478.478,0,0,1,271.558,717.975Z" transform="translate(-261.231 -639.56)" fill="#3f3d56"/>
      <ellipse id="Ellipse_16" data-name="Ellipse 16" cx="2.994" cy="1.079" rx="2.994" ry="1.079" transform="translate(3.725 67.463)" fill="#3f3d56"/>
      <path id="Path_47" data-name="Path 47" d="M282.644,691.311a3.529,3.529,0,0,1-4.531,0v-1.726h4.531Z" transform="translate(-273.577 -623.133)" fill="#fbfbfb"/>
      <ellipse id="Ellipse_17" data-name="Ellipse 17" cx="2.266" cy="0.863" rx="2.266" ry="0.863" transform="translate(4.535 65.589)" fill="#fafbfb"/>
      <ellipse id="Ellipse_18" data-name="Ellipse 18" cx="0.216" cy="0.108" rx="0.216" ry="0.108" transform="translate(6.693 66.236)" fill="#e6e6e6"/>
      <ellipse id="Ellipse_19" data-name="Ellipse 19" cx="0.216" cy="0.108" rx="0.216" ry="0.108" transform="translate(7.712 66.236)" fill="#e6e6e6"/>
      <ellipse id="Ellipse_20" data-name="Ellipse 20" cx="0.216" cy="0.108" rx="0.216" ry="0.108" transform="translate(7.203 66.491)" fill="#e6e6e6"/>
      <ellipse id="Ellipse_21" data-name="Ellipse 21" cx="0.216" cy="0.108" rx="0.216" ry="0.108" transform="translate(5.165 66.491)" fill="#e6e6e6"/>
      <ellipse id="Ellipse_22" data-name="Ellipse 22" cx="0.216" cy="0.108" rx="0.216" ry="0.108" transform="translate(5.674 66.236)" fill="#e6e6e6"/>
      <ellipse id="Ellipse_23" data-name="Ellipse 23" cx="0.216" cy="0.108" rx="0.216" ry="0.108" transform="translate(6.184 66.618)" fill="#e6e6e6"/>
      <path id="Path_48" data-name="Path 48" d="M876.558,717.975a6.188,6.188,0,0,1-7.054,0,.478.478,0,0,1-.226-.441l.734-9.538h5.934l.838,9.534A.478.478,0,0,1,876.558,717.975Z" transform="translate(-801.075 -639.56)" fill="#3f3d56"/>
      <ellipse id="Ellipse_24" data-name="Ellipse 24" cx="2.994" cy="1.079" rx="2.994" ry="1.079" transform="translate(68.882 67.463)" fill="#3f3d56"/>
      <path id="Path_49" data-name="Path 49" d="M887.644,691.311a3.529,3.529,0,0,1-4.531,0v-1.726h4.531Z" transform="translate(-813.421 -623.133)" fill="#fbfbfb"/>
      <ellipse id="Ellipse_25" data-name="Ellipse 25" cx="2.266" cy="0.863" rx="2.266" ry="0.863" transform="translate(69.692 65.589)" fill="#fafbfb"/>
      <ellipse id="Ellipse_26" data-name="Ellipse 26" cx="0.216" cy="0.108" rx="0.216" ry="0.108" transform="translate(71.85 66.236)" fill="#e6e6e6"/>
      <ellipse id="Ellipse_27" data-name="Ellipse 27" cx="0.216" cy="0.108" rx="0.216" ry="0.108" transform="translate(72.869 66.236)" fill="#e6e6e6"/>
      <ellipse id="Ellipse_28" data-name="Ellipse 28" cx="0.216" cy="0.108" rx="0.216" ry="0.108" transform="translate(72.359 66.491)" fill="#e6e6e6"/>
      <ellipse id="Ellipse_29" data-name="Ellipse 29" cx="0.216" cy="0.108" rx="0.216" ry="0.108" transform="translate(70.321 66.491)" fill="#e6e6e6"/>
      <ellipse id="Ellipse_30" data-name="Ellipse 30" cx="0.216" cy="0.108" rx="0.216" ry="0.108" transform="translate(70.831 66.236)" fill="#e6e6e6"/>
      <ellipse id="Ellipse_31" data-name="Ellipse 31" cx="0.216" cy="0.108" rx="0.216" ry="0.108" transform="translate(71.34 66.618)" fill="#e6e6e6"/>
    </g>
  </g>
</svg>
